<svg width="80" height="66" viewBox="0 0 80 66" fill="none" xmlns="http://www.w3.org/2000/svg">
<g clip-path="url(#clip0_2414_62315)">
<path d="M54.3837 47.5717C49.9495 54.0808 42.1115 58.0354 35.7196 60.5616L34.8029 60.9169L33.3817 60.6007C26.6629 58.9734 19.7735 53.8321 16.4834 47.696C18.0965 53.1499 22.1683 57.4385 26.5136 60.5687C29.6241 62.7889 33.0772 64.4849 36.7357 65.5891L37.2829 65.7419L38.4305 65.28C46.8868 61.5245 56.4054 56.9233 61.2127 47.5859L54.3837 47.5717Z" fill="white"/>
<path d="M55.2187 4.65804C45.5686 4.95294 29.0328 6.07926 17.4534 11.6789C17.0235 11.8849 15.6769 12.4854 15.6769 12.4854L14.7957 18.7849L14.4404 11.2525C14.4404 11.2525 16.0429 10.382 16.5723 10.1155C20.2339 8.32714 24.0222 6.81064 27.9065 5.57828C32.197 4.23438 36.569 3.16629 40.9959 2.38054C47.6095 1.04371 54.3232 0.261694 61.067 0.0426365C62.0311 0.0142122 62.9868 0 63.9343 0H69.0223L68.9228 0.604017L66.0804 18.7956H59.2941V18.7352L61.3406 4.66159C61.3406 4.66159 56.7465 4.61896 55.2187 4.65804Z" fill="white"/>
<path d="M8.37564 21.1762H2.77605L3.05674 22.5974L0.971102 36.099L0.228516 37.5237H5.82811L5.56163 36.099L7.64372 22.6045L8.37564 21.1762Z" fill="white"/>
<path d="M9.41643 21.1762L8.80176 25.1556L9.66159 24.3881L9.75753 24.3135H14.5541L13.6126 25.1698L11.9249 36.099L11.2711 37.3532L11.1823 37.5237H16.7819L16.5119 36.099L18.3346 24.3135H22.7617L22.8114 24.3881L23.2733 25.0916L23.959 21.1762H9.41643Z" fill="white"/>
<path d="M52.6608 34.2975L53.2293 30.5775L52.6608 34.2975C52.3979 36.0279 53.2897 37.2714 54.8779 37.4953H54.9241C55.0633 37.5122 55.2032 37.5217 55.3434 37.5237H63.2382L64.1158 31.7429H60.4313L60.1293 33.7184C60.1213 33.8249 60.0922 33.9287 60.0438 34.024C59.9955 34.1192 59.9288 34.2039 59.8475 34.2733C59.7663 34.3426 59.6721 34.3952 59.5705 34.428C59.4689 34.4609 59.3617 34.4733 59.2553 34.4645H57.5676C57.0773 34.4645 56.857 34.1945 56.9245 33.7006L58.2569 24.9814C58.2636 24.8739 58.2917 24.7687 58.3394 24.6721C58.3871 24.5754 58.4536 24.4892 58.5349 24.4185C58.6162 24.3478 58.7108 24.2939 58.8131 24.26C58.9154 24.2261 59.0235 24.2129 59.1309 24.2211H60.8186C61.3089 24.2211 61.5292 24.4947 61.4617 24.9885L61.2237 26.5483H64.9153L65.7396 21.1655H62.9256H57.8412C56.9442 21.1521 56.0742 21.4716 55.399 22.0621C54.7238 22.6527 54.2913 23.4725 54.1851 24.3632L53.2293 30.5988" fill="white"/>
<path d="M32.8529 21.1762L32.4017 24.1145L31.8616 27.6214H28.7207L29.4953 22.6045L30.2237 21.1762H25.1144L22.8227 36.099L22.0801 37.5237H27.6761V37.5131L27.4096 36.099L28.2943 30.3643L32.2524 30.3608L31.3109 31.2171H31.3073L31.2185 31.8211L30.5612 36.099L29.8186 37.5237H35.4146V37.5131L35.1482 36.099L35.8481 31.5688L35.9867 30.645L36.0222 30.4176H36.0258L36.4592 27.6214L37.2338 22.6045L37.9622 21.1762H32.8529Z" fill="white"/>
<path d="M47.6299 32.8799L46.6955 33.7255L47.0188 36.0918L46.6919 37.513H52.3093L51.4424 36.0918L49.3603 22.5903L50.0922 21.1691H42.2187L37.3368 36.0918L36.8251 37.108L36.6084 37.513H42.1547L41.8882 36.0918L42.8831 32.8657L47.6299 32.8799ZM43.5226 30.2968L45.3524 24.8109L46.23 30.3004L43.5226 30.2968Z" fill="white"/>
<path d="M75.1974 32.8799L74.263 33.7255L74.5863 36.0918L74.263 37.513H79.8768L79.0098 36.0918L76.9278 22.5903L77.6632 21.1691H69.7719L64.8936 36.0989L64.3678 37.108L64.1475 37.513H69.708L69.4415 36.0918L70.4364 32.8657L75.1974 32.8799ZM71.0759 30.2968L72.8879 24.8109L73.7762 30.3004L71.0759 30.2968Z" fill="white"/>
<path d="M19.4436 39.492C20.2324 39.492 20.6872 40.0001 20.5628 40.7392L20.4101 41.6345C20.3733 41.8423 20.2856 42.0378 20.1548 42.2033C20.0239 42.3689 19.854 42.4994 19.6604 42.5832C19.8422 42.6572 19.9923 42.7927 20.0845 42.9661C20.1767 43.1394 20.2052 43.3397 20.1649 43.5318L19.9872 44.5693C19.9287 44.9313 19.7401 45.2594 19.4569 45.4923C19.1736 45.7251 18.8152 45.8467 18.4488 45.8342H14.9668L16.0327 39.5098L19.4436 39.492ZM18.3102 44.6404C18.3954 44.6415 18.4781 44.612 18.5433 44.5572C18.6085 44.5024 18.6519 44.426 18.6655 44.3419L18.8183 43.4253C18.8645 43.1623 18.6975 43.1446 18.4381 43.1446H16.7646L16.5124 44.6404H18.3102ZM18.6655 42.0218C18.9071 42.0218 18.9924 41.9685 19.0208 41.7233L19.1487 40.9665C19.1807 40.7747 19.0848 40.6681 18.8787 40.6681H17.1874L16.9565 42.0218H18.6655Z" fill="white"/>
<path d="M26.4319 39.4566C27.2171 39.4566 27.6754 39.9647 27.5511 40.7037L26.8902 44.612C26.8263 44.9707 26.6352 45.2942 26.3519 45.5233C26.0687 45.7524 25.7123 45.8717 25.3482 45.8592H23.092C22.3068 45.8592 21.8484 45.3475 21.9764 44.612L22.6372 40.7037C22.6997 40.345 22.8899 40.0211 23.1727 39.7918C23.4556 39.5625 23.8118 39.4435 24.1757 39.4566H26.4319ZM26.1618 40.9489C26.1938 40.757 26.0979 40.6504 25.8918 40.6504H24.3107C24.2255 40.6493 24.1428 40.6788 24.0776 40.7336C24.0124 40.7884 23.969 40.8648 23.9554 40.9489L23.3798 44.3598C23.3443 44.5516 23.4402 44.6582 23.6463 44.6582H25.2274C25.3126 44.6593 25.3953 44.6298 25.4605 44.575C25.5257 44.5202 25.5691 44.4438 25.5827 44.3598L26.1618 40.9489Z" fill="white"/>
<path d="M35.3287 45.8342H34.0568L34.7674 41.6168L32.767 44.8145H31.797L30.8803 41.6168L30.1697 45.8342H28.8906L29.9565 39.5098H31.4346L32.5609 43.1979L34.9308 39.492H36.4089L35.3287 45.8342Z" fill="white"/>
<path d="M42.1796 39.492C42.9648 39.492 43.4196 40.0001 43.2953 40.7392L43.1425 41.6345C43.1067 41.8427 43.0193 42.0385 42.8883 42.2042C42.7574 42.3699 42.587 42.5002 42.3928 42.5832C42.5747 42.6572 42.7248 42.7927 42.817 42.9661C42.9092 43.1394 42.9376 43.3397 42.8973 43.5318L42.7197 44.5693C42.6572 44.928 42.467 45.252 42.1842 45.4812C41.9013 45.7105 41.545 45.8296 41.1812 45.8165H37.6992L38.7651 39.492H42.1796ZM41.0426 44.6404C41.1278 44.6415 41.2105 44.612 41.2757 44.5572C41.341 44.5024 41.3843 44.426 41.3979 44.3419L41.5543 43.4253C41.5969 43.1623 41.4335 43.1446 41.1705 43.1446H39.4864L39.2306 44.6404H41.0426ZM41.3979 42.0218C41.6431 42.0218 41.7248 41.9685 41.7532 41.7233L41.8812 40.9665C41.9131 40.7747 41.8172 40.6681 41.6111 40.6681H39.8914L39.6605 42.0218H41.3979Z" fill="white"/>
<path d="M50.1414 39.492L49.9389 40.6859H46.8798L46.6595 41.9863H49.1466L48.9441 43.1801H46.4569L46.2118 44.6226H49.2603L49.0542 45.8165H44.6484L45.7144 39.492H50.1414Z" fill="white"/>
<path d="M54.6685 45.8342L53.9792 43.4892H52.8956L52.4976 45.8342H51.1475L52.2134 39.5098H55.6563C56.4415 39.5098 56.8998 40.0179 56.7719 40.7569L56.5232 42.2421C56.4747 42.5297 56.3422 42.7965 56.1424 43.0089C55.9427 43.2213 55.6845 43.3699 55.4005 43.4359L56.1111 45.8342H54.6685ZM55.3791 41.0021C55.4147 40.8067 55.3187 40.7036 55.1127 40.7036H53.361L53.091 42.3096H54.8391C54.9242 42.3107 55.007 42.2812 55.0722 42.2264C55.1374 42.1716 55.1808 42.0952 55.1944 42.0112L55.3791 41.0021Z" fill="white"/>
<path d="M62.0906 40.9488C62.1225 40.757 62.0302 40.6504 61.8241 40.6504H60.4739C60.3876 40.6444 60.3023 40.6722 60.236 40.7278C60.1697 40.7835 60.1276 40.8627 60.1186 40.9488L60.0156 41.5458C59.9836 41.7412 60.0831 41.8016 60.2821 41.8442L61.9662 42.1995C62.6768 42.3487 63.2169 42.7609 63.0961 43.4644L62.9042 44.6085C62.841 44.9675 62.65 45.2914 62.3666 45.5207C62.0832 45.7499 61.7264 45.8688 61.3622 45.8556H59.2659C58.4807 45.8556 58.0259 45.344 58.1502 44.6085L58.2852 43.7984H59.5963L59.5004 44.3633C59.4684 44.5552 59.5643 44.6618 59.7704 44.6618H61.2307C61.3171 44.6678 61.4024 44.64 61.4687 44.5843C61.5349 44.5286 61.577 44.4494 61.586 44.3633L61.6962 43.7025C61.7281 43.507 61.6287 43.4466 61.4297 43.404L59.7491 43.0487C59.0385 42.8995 58.4949 42.4838 58.6157 41.7838L58.7969 40.7179C58.8594 40.3586 59.0502 40.0342 59.3337 39.8048C59.6173 39.5755 59.9745 39.4568 60.3389 39.4708H62.3215C63.1067 39.4708 63.5651 39.9789 63.4407 40.7179L63.3128 41.4569H62.0017L62.0906 40.9488Z" fill="white"/>
</g>
<defs>
<clipPath id="clip0_2414_62315">
<rect width="79.8947" height="66" fill="white"/>
</clipPath>
</defs>
</svg>
