<?xml version="1.0" encoding="UTF-8"?>
<svg id="Layer_1" data-name="Layer 1" xmlns="http://www.w3.org/2000/svg" viewBox="0 0 428.19 506.37">
  <defs>
    <style>
      .cls-1 {
        fill: #ffd72b;
      }

      .cls-2 {
        fill: #fff;
      }

      .cls-3 {
        fill: #001e5f;
      }
    </style>
  </defs>
  <polygon class="cls-2" points="384.07 350.74 357.86 292.59 397.96 256.85 397.96 70 316.4 0 .26 0 .26 152.43 26.11 152.43 26.11 351.46 0 351.46 0 506.37 212.34 506.23 428.19 506.23 428.19 350.74 384.07 350.74"/>
  <path class="cls-3" d="M375.92,363.72l-34.25-73.05,43.96-40.65V76.53l-73.75-63.39H12.36v127.31h26.21v223.54H12.25v129.16h191.31v-129.16h-26.18v-35.33h30.23l15.73,35.33v129.16h191.83v-129.44h-39.24ZM388.76,466.95h-139.35v-76.75h15.59l-38.56-87.64h-75.28v87.64h26.21v76.75H38.55v-76.75h26.11V114.24h-26.11V39.34h262.47s51.35,42.36,58.3,49.44v146.03c-7,7-52.95,49.31-52.95,49.31l49.36,105.95h33.04v76.89h-.01Z"/>
  <path class="cls-1" d="M306.38,284.11s45.95-42.31,52.95-49.31V88.77c-6.96-7.08-58.3-49.44-58.3-49.44H38.55v74.92h26.11v275.95h-26.11v76.75h138.82v-76.75h-26.21v-87.64h75.28l38.56,87.64h-15.59v76.75h139.35v-76.89h-33.04l-49.36-105.95h.01ZM269.18,216.96l-10.91,12.59h-107.1v-115.29h107.1l10.91,10.69v92.01Z"/>
  <path class="cls-3" d="M151.18,114.24v115.29h107.1l10.91-12.59v-92.01l-10.91-10.69s-107.1,0-107.1,0ZM242.98,203.34h-65.71v-62.93h65.71v62.93Z"/>
</svg>