<svg width="80" height="85" fill="none" xmlns="http://www.w3.org/2000/svg"><g clip-path="url(#clip0)"><path d="M64.6455 53.1052V31.3373l1.9769-1.3315v-2.4019h-6.1006V52.762c0 .9979-1.4134 1.8699-3.3589 2.3578-1.1405.2787-2.3106.4182-3.4847.4156-2.043 0-4.0356-.425-5.3515-1.0829-.9223-.4659-1.4984-1.0514-1.4984-1.6905v-1.6809h5.0556v-6.192h-2.276L48.374 46.973h-1.5362V27.6039h-6.0975v2.4019l1.9769 1.3315V46.973H27.9534v-2.257c1.1726-.2101 2.3083-.5898 3.3715-1.127.9427-.4785 1.7949-1.1177 2.5183-1.8887.7829-.8399 1.3829-1.8331 1.7622-2.9168.3793-1.0837.5296-2.2343.4413-3.3791-.062-.8855-.2529-1.7572-.5666-2.5876-.4998-1.1805-1.2722-2.2258-2.2539-3.0503-.2361-.2172-.4879-.4344-.7618-.6547-.3572-.2833-.7361-.5381-1.1332-.7618-1.0929-.6083-2.2184-1.1558-3.3715-1.6401v-7.3h-6.1069v2.383l1.9737 1.3347v1.9265c-1.5739-.5824-2.8961-1.042-3.5603-1.2592-.6073-.2024-1.2032-.4378-1.7848-.7051-.6822-.2983-1.3183-.6926-1.8888-1.171-.8059-.7209-1.1616-1.5394-.9758-2.5026.1354-.6572.4773-1.2539.9758-1.703.5495-.4923 1.1916-.8701 1.8888-1.1113.8808-.3104 1.8003-.498 2.7324-.5571.2833-.0189.5666-.0315.8467-.0315.2802 0 .6107 0 .9444.0315 2.5183.1636 6.2644.9601 7.6337 2.9275h4.0577V13.369h-3.2172l-.7586.7807-.1984.2046c-.1574-.0724-.3148-.1385-.4784-.2046-2.8332-1.171-6.3399-1.5739-9.3305-1.5015-5.726.1542-9.9348 3.3021-10.152 6.9568-.2518 4.2371 2.6978 6.2675 6.5225 7.6274.4879.1732.979.3495 1.4669.5289.6296.2361 1.2592.4753 1.8888.7209 1.108.4312 2.2035.8814 3.2329 1.3441l.1385.063c.9821.447 1.9108.9034 2.7576 1.3725-.9735.4308-1.898.9648-2.7576 1.5928v8.3924c-1.148-.0836-2.2808-.3121-3.3714-.68-.6477-.2142-1.2789-.4751-1.8888-.7807-.3651-.1857-.7114-.3809-1.0388-.5886-.7172-.4338-1.3453-1-1.851-1.6684h-4.0545v5.789h3.0094l1.1679-1.1773c.8627.5965 1.7912 1.0919 2.767 1.4763.6013.2519 1.2434.4943 1.8888.702 1.0209.3392 2.0769.5621 3.1479.6642h.3462c.7529.0217 1.5063.0028 2.2571-.0566-.9221.869-1.7274 1.8541-2.3956 2.9307v3.2077h21.642c-1.002.8731-1.881 1.878-2.6128 2.9874.0346.1291.0787.2581.1259.384.2951.7159.7407 1.36 1.3064 1.8888 2.0115 1.9674 5.6914 3.2927 9.3965 3.2927 5.5372.022 10.9925-2.9055 10.9925-6.513zM27.9534 32.0928c1.8321 1.1836 3.0724 2.4302 3.2581 3.7114.0874.6117.036 1.2351-.1504 1.8242-.1863.5891-.5029 1.1286-.9262 1.5787-.6066.6449-1.3528 1.1424-2.1815 1.4544v-8.5687z" fill="#fff"/><path d="M79.4942 24.793c0-15.61997-2.8331-23.48032-2.9244-23.70697L76.1134 0H3.39654l-.4533 1.08603C2.84566 1.31268.015686 9.17303.015686 24.793.0377214 48.5755 14.7574 73.677 39.7613 85c24.5946-11.7386 39.7109-36.4245 39.7329-60.207zM39.7487 83.0294C25.0331 75.8533 13.3672 63.6537 6.8561 48.6321c-.19517-.4533-.38404-.9034-.56977-1.3599-2.93626-7.1335-4.47308-14.7652-4.5267-22.4792 0-15.40591 2.78905-23.02072 2.78905-23.02072H74.936s2.786 7.61481 2.786 23.02072c0 10.0733-2.7985 20.3198-7.9013 29.5904-6.8294 12.4219-17.3333 22.4277-30.072 28.646z" fill="#E6D1AC"/><path d="M57.2605 75.2637l-1.7094.0063.0095.5572.532-.0032.0346 1.9643.6453-.0031-.0346-1.9643.532-.0032-.0094-.554zM59.4388 75.2542l-.5099 1.3474-.5257-1.3442-.6359.0031-.3778 2.5215.6422-.0031.1826-1.4512h.0063l.5949 1.448h.255l.5729-1.4543h.0063l.2046 1.4512.6454-.0032-.4187-2.5183-.6422.0031z" fill="#E6D1AC"/><path d="M69.8207 54.3927c5.1028-9.28 7.9013-19.517 7.9013-29.5904 0-15.40587-2.7859-23.02068-2.7859-23.02068H4.56129S1.75964 9.38698 1.75964 24.7929c.04963 7.7132 1.58217 15.3449 4.51411 22.4792.18573.4565.3746.9066.56977 1.3599C13.3572 63.6569 25.0279 75.858 39.7487 83.0325c12.7388-6.2183 23.2427-16.2242 30.072-28.6461v.0063zm-26.8454.0598c-.0472-.1259-.0913-.2549-.1259-.384.7318-1.1094 1.6107-2.1143 2.6127-2.9874H23.8202v-3.2077c.6682-1.0766 1.4735-2.0617 2.3956-2.9307-.7508.0594-1.5042.0783-2.2571.0566h-.3462c-1.071-.1021-2.127-.325-3.1479-.6642-.6548-.2077-1.297-.4501-1.8888-.7019-.9759-.3845-1.9043-.8799-2.767-1.4764l-1.1679 1.1773h-3.0094V37.523h4.0545c.5057.6685 1.1338 1.2347 1.851 1.6684.3148.2078.6736.403 1.0388.5887.6099.3056 1.2411.5665 1.8888.7807 1.0906.3679 2.2234.5964 3.3714.6799v-8.3923c.8596-.628 1.7841-1.162 2.7576-1.5929-.8468-.469-1.7755-.9254-2.7576-1.3724l-.1385-.063c-1.0357-.4627-2.1249-.9129-3.2329-1.3442-.6296-.2455-1.2592-.4847-1.8888-.7208-.4879-.1795-.979-.3557-1.4669-.5289-3.8247-1.3599-6.7743-3.3903-6.5225-7.6274.2172-3.6547 4.426-6.8026 10.152-6.9569 2.9905-.0818 6.4942.3306 9.3304 1.5016.1606.0661.3148.1322.4785.2046l.1732-.1983.7586-.7838h3.2203v5.6032h-4.0576c-1.3694-1.9674-5.1217-2.7638-7.6337-2.9275-.3432-.0221-.6642-.0315-.9444-.0315s-.5635 0-.8468.0315c-.9321.0592-1.8515.2467-2.7324.5572-.6972.2411-1.3393.6189-1.8887 1.1112-.4985.4491-.8404 1.0458-.9759 1.703-.1857.9633.17 1.7817.9759 2.5026.5705.4784 1.2065.8727 1.8887 1.171.5817.2673 1.1775.5027 1.7849.7051.6642.2267 1.9958.6863 3.5603 1.2592v-1.9265l-1.9738-1.3347v-2.383h6.107v7.2874c1.1531.4843 2.2786 1.0318 3.3714 1.6401.3972.2238.7761.4785 1.1333.7618.2738.2203.5257.4375.7618.6547.9816.8245 1.754 1.8698 2.2539 3.0504.3136.8304.5045 1.7021.5666 2.5876.0882 1.1447-.062 2.2953-.4413 3.379-.3793 1.0837-.9794 2.0769-1.7623 2.9168-.7233.7711-1.5755 1.4102-2.5183 1.8887-1.0632.5373-2.1989.9169-3.3714 1.127v2.2571h14.7637v-15.62l-1.9769-1.3316V27.604h6.0944v19.3691h1.5488l1.234-2.0839h2.2727v6.1919h-5.0555v1.681c0 .6296.5761 1.2245 1.4984 1.6904 1.3064.658 3.299 1.0829 5.3515 1.0829 1.1709.0019 2.3378-.1376 3.4753-.4155 1.9454-.4879 3.3588-1.3599 3.3588-2.3578V27.604h6.1006v2.4018l-1.9769 1.3316v21.7678c0 3.6075-5.4553 6.5351-10.9673 6.5351-3.7051 0-7.385-1.3253-9.3965-3.2927-.5676-.5333-1.0132-1.183-1.3064-1.9045v.0094zm14.1656-14.8298v11.9621c-.6092.2347-1.2427.4004-1.8887.4942V41.5178h-5.0461v-2.3264h6.9569l-.0221.4313zm12.7585 5.8237c-.5761 1.4511-1.2088 2.8897-1.8887 4.3032V39.1914h4.001c-.5867 2.1213-1.2876 4.2093-2.0997 6.255h-.0126zM5.45844 24.7929c0-.7083.01889-1.4449.05982-2.2036.13311-2.3707.39054-4.7328.77123-7.0765.47759-3.0686 1.15265-6.10317 2.02096-9.08486H39.7487V24.2231h-2.383v4.9863c-.5604-.7265-1.1932-1.3941-1.8887-1.9926-.707-.5996-1.4607-1.1417-2.2539-1.6212-.6149-.3778-1.2445-.7282-1.8888-1.0514v-2.2098h6.746V9.98823H30.05l-.4156.43127C23.496 8.50556 15.431 8.44576 10.4133 13.0228c-1.24292 1.1037-2.17886 2.5104-2.71672 4.0831-.53786 1.5728-.65931 3.258-.35253 4.8916.62958 3.362 2.76705 6.3588 8.59695 8.4427.9444.3337 1.8006.6611 2.6096.9822.6737.2686 1.3033.5288 1.8888.7807v4.6778c-.6943-.3309-1.3318-.7697-1.8888-1.3001-.4467-.4274-.8219-.9237-1.1112-1.4701H8.19398v5.0807h-.71772c-.47848-1.7292-.87512-3.47-1.18991-5.2223-.54595-3.0284-.823-6.0991-.82791-9.1762zM39.7487 78.937V55.5732c.0894.2642.1945.5227.3148.7744 2.2035 4.6148 8.9401 6.6578 13.6116 6.6641 2.3261-.0203 4.6319-.4365 6.8183-1.2308-.6862.8751-1.3945 1.7313-2.1248 2.5687-5.2728 6.0755-11.6221 11.1373-18.6199 14.578v.0094z" fill="#5B2F18"/><path d="M30.135 39.1913c.4233-.4501.7398-.9897.9262-1.5787.1863-.5891.2377-1.2125.1504-1.8242-.1857-1.2812-1.426-2.5183-3.2581-3.7114v8.5687c.8286-.312 1.5748-.8095 2.1815-1.4544z" fill="#5B2F18"/><path d="M52.1043 39.1915h-1.8887v2.3263h5.0587v10.5739c.646-.0938 1.2796-.2596 1.8887-.4942v-12.406h-5.0587zM8.19397 39.1914v-5.0808h9.24543c.2893.5464.6645 1.0427 1.1112 1.4701.557.5304 1.1945.9692 1.8888 1.3001V32.203c-.5918-.2518-1.2214-.5121-1.8888-.7807-.809-.3148-1.6747-.6484-2.6096-.9821-5.8299-2.0839-7.97367-5.0808-8.59696-8.4427-.30678-1.6337-.18533-3.3189.35253-4.8916.53786-1.5728 1.4738-2.9795 2.71673-4.0831 5.0177-4.5771 13.0827-4.5173 19.2211-2.6034l.4155-.43123h8.0209V22.3343h-6.7459v2.2224c.6484.3232 1.278.6737 1.8887 1.0514.7933.4795 1.547 1.0216 2.2539 1.6212.6955.5985 1.3283 1.2661 1.8888 1.9926V24.223h2.3829V6.43103H8.31045c-.86832 2.98168-1.54338 6.01627-2.02097 9.08487-.38069 2.3437-.63812 4.7058-.77123 7.0765-.04093.7555-.05981 1.4921-.05981 2.2036.00435 3.0803.2814 6.1541.8279 9.1856.31479 1.7502.71143 3.491 1.18991 5.2224l.71772-.0126zM53.6782 63.0118c-4.6715 0-11.4175-2.0493-13.6116-6.6642-.1202-.2516-.2253-.5102-.3148-.7744v23.3544c6.9978-3.4406 13.3472-8.4993 18.6231-14.578.7303-.8394 1.4386-1.6956 2.1248-2.5687-2.1874.7947-4.4943 1.2109-6.8215 1.2309zM68.017 39.1915v10.5581c.6862-1.4134 1.3189-2.852 1.8887-4.3032.8142-2.0455 1.5172-4.1335 2.106-6.2549H68.017z" fill="#BE3040"/></g><defs><clipPath id="clip0"><path fill="#fff" d="M0 0h79.4943v85H0z"/></clipPath></defs></svg>