<svg width="49" height="62" viewBox="0 0 49 62" fill="none" xmlns="http://www.w3.org/2000/svg">
<g clip-path="url(#clip0_5045_22854)">
<path d="M47.6491 52.1807L36.0428 60.6635H12.83L1.22363 52.1807V43.6979H17.5148V47.9604H30.1763V37.3727H12.9144L1.30804 28.8899V9.79842L12.9144 1.32617H36.1272L47.7335 9.79842V18.2812H31.052V14.0714H18.7387V24.6801H36.0744L47.6808 33.0997L47.6491 52.1807Z" fill="#53575A" stroke="#53575A" stroke-width="2.55" stroke-miterlimit="10"/>
<path d="M20.7858 37.3727L28.14 24.6696H18.6333V14.0819H31.5375V18.3022H31.833L39.9258 4.32564L35.8741 1.33667H12.8513L1.33984 9.81944V28.8899L12.8513 37.3727H20.7858Z" fill="#8A2432"/>
<path d="M16.7236 44.3924V43.6978H1.33984V52.1805L8.95785 57.7901L16.7236 44.3924Z" fill="#8A2432"/>
<path d="M27.191 24.6694L19.8263 37.3725H30.0926V47.9602H16.7242V43.6978H16.1544L8.2832 57.2849L12.8519 60.6528H35.8747L47.3861 52.1806V33.1101L35.8747 24.6694H27.191Z" fill="#BBBBBB"/>
<path d="M39.2616 3.84155L31.5381 17.1551V18.3023H47.3861V9.81949L39.2616 3.84155Z" fill="#BBBBBB"/>
</g>
<defs>
<clipPath id="clip0_5045_22854">
<rect width="49" height="62" fill="white"/>
</clipPath>
</defs>
</svg>
