<svg xmlns="http://www.w3.org/2000/svg" width="204" height="218" viewBox="0 0 204 218"><g fill="none" fill-rule="evenodd"><path fill="#231F20" d="M150.03 194.118h-1.42v4.14h1.033v-2.846l1.033 2.847h.775l1.033-2.847v2.847h1.032v-4.141h-1.42l-1.033 2.588-1.033-2.588zm-2.195 0h-3.357v.776h1.163v3.365h1.032v-3.365h1.162v-.776z"/><path fill="#E06F1D" fill-rule="nonzero" d="M180.889 46.847l17.688 57.977-3.486-.518c-17.818 26.53-56.164 88-56.164 88l-4.132 14.753-37.572 6.859-25.823-8.153-5.165-14.365-51.129-71.953-4.26.647 7.23-58.235-13.557-46.2 43.124 7.247 33.57-9.447 69.334 3.235 41.962-12.812-11.62 42.965z"/><path d="M180.888 46.847l17.689 57.976-3.486-.517c-17.818 26.529-56.165 88-56.165 88l-4.131 14.752-37.573 6.86-25.822-8.154-5.165-14.364-51.13-71.953-4.26.647 7.23-58.236-13.556-46.2 43.124 7.248 33.57-9.448 69.333 3.236 41.962-12.812-11.62 42.965z"/><path d="M180.888 46.847l17.689 57.976-3.486-.517c-17.818 26.529-56.165 88-56.165 88l-4.131 14.752-37.573 6.86-25.822-8.154-5.165-14.364-51.13-71.953-4.26.647 7.23-58.236-13.556-46.2 43.124 7.248 33.57-9.448 69.333 3.236 41.962-12.812-11.62 42.965z"/><path fill="#231F20" fill-rule="nonzero" d="M97.223 214.047l-25.952-8.153-5.165-14.365-51.129-71.823-4.39.647v-.13l7.23-58.235L4.39 15.53h.129l43.124 7.247 33.57-9.447 69.334 3.236 42.091-12.812v.259l-11.62 42.964 17.688 58.106-3.615-.517c-17.56 26.14-55.39 86.706-56.164 87.87l-4.132 14.753h-.13l-37.442 6.86zm-25.694-8.412l25.694 8.153 37.443-6.859 4.131-14.753c.388-.647 38.606-61.729 56.165-88l3.357.518-17.56-57.847 11.62-42.706-41.832 12.683-69.334-3.236-33.57 9.447-42.995-7.247 13.557 46.07-7.23 58.107 4.131-.647 51.13 71.953 5.293 14.364z"/><path fill="#FFF" fill-rule="nonzero" d="M45.06 119.835l8.135 7.377 6.456 3.494a7.007 7.007 0 0 1-2.195-9.835c1.678-2.718 4.906-3.753 7.617-2.977l-.516 3.882 16.914 5.436 21.175-7.377 1.936-5.953s16.785-3.235 11.491 13.589l11.879-10.612 7.101-6.73 2.195 18.247-16.397 20.318-17.818 7.894-32.666.518-21.175-8.412-6.455-16.306 2.324-12.553zM34.215 100.941l34.215-8.412-8.134-.129 12.524-2.2 1.033-1.812-15.623-8.67-12.007-12.812 5.293-2.588-14.46-4.4 3.615-10.483-18.593 19.412-.903 17.988 20.4-14.882 13.557 11.388 10.845 5.306-9.167 2.588z"/><path fill="#FFF" fill-rule="nonzero" d="M80.438 134.33l.258 1.164-.258-1.165zm57.972 47.105l-.904 2.07.904-2.07zM101.096 84.118l21.175 1.423 18.205 5.953-20.271-4.012-10.458-.776 11.233 5.953zM117.494 68.071l-5.681 7.117-10.2 8.541 18.979-8.023 10.459-13.2 11.62 7.247-.904-9.318L130.018 55 116.59 72.729z"/><path fill="#FFF" fill-rule="nonzero" d="M122.271 60.953l4.519-11.906-3.615-4.271 10.2 2.589-1.679-8.024-7.618-5.953 12.783 2.459 18.592 17.859 2.195 7.118-10.2-4.659 2.711 4.659-.258 5.694-19.238-13.33z"/><path d="M18.592 114.659l51 46.459 53.066-6.083 12.524-24.329 5.681-8.024-.645-16.176 4.002 3.235 3.228 4.788 3.099 12.165 6.714-15.27-1.808-7.248-1.033-2.717-7.101-6.083 10.975 4.4 3.228 3.753.903 6.859-2.066 15.53 7.231-17.73-.517-19.282-.387-1.294-8.78-9.318 12.524 1.424 1.421 2.329V61.988l5.81 34.294-1.033-38.047 4.519 3.236L193.8 89.035l-12.911-42.188 11.62-42.965-41.962 12.812-69.334-3.235-33.57 9.447-43.124-7.247 13.557 46.2L13.17 101.2l6.972-26.918z"/><path fill="#FFF" fill-rule="nonzero" d="M138.927 192.306s38.346-61.47 56.164-88l3.486.518-4.777-15.789-12.653-27.564-4.52-3.236 1.034 38.047-5.81-34.294v20.06l-1.42-2.33-12.525-1.424 8.78 9.318.387 1.294.517 19.282-7.23 17.73 2.065-15.53-.903-6.859-3.228-3.753-10.975-4.4 7.101 6.083 1.033 2.717 1.808 7.248-6.714 15.27-3.099-12.165-3.228-4.788-4.002-3.235.645 16.176-5.68 8.024-12.525 24.33-53.066 6.082-51-46.46 1.55-40.376L13.17 101.2l-2.324 18.894 4.26-.647 51.13 71.953 5.164 14.365 25.823 8.153 37.572-6.86 4.132-14.752z"/><path fill="#231F20" fill-rule="nonzero" d="M185.02 46.976L196.64 0l-47.772 13.718-67.784-3.624-33.828 9.835L0 12.424l14.46 49.823-8.004 61.082 6.585-.776 50.612 70.012 4.648 15.27 28.793 9.318 41.445-8.024 4.261-15.917 54.099-84.636 6.585 1.036-18.464-62.636zm10.458 59.918l-55.26 86.706-2.84 13.459-40.155 6.859-27.114-6.86-6.198-17.729-50.225-67.811-5.552-.777L13.17 101.2l4.906-39.341-13.557-46.2 43.124 7.247 33.57-9.447 69.334 3.235 41.962-12.812-11.62 42.965L193.8 89.035l5.294 11.647 1.807 6.989-5.423-.777z"/><path fill="#231F20" fill-rule="nonzero" d="M199.094 100.682L193.8 89.035l4.777 15.789-3.486-.518c-17.818 26.53-56.164 88-56.164 88l-4.132 14.753-37.572 6.859 40.154-6.86 2.84-13.458 55.261-86.706 5.423.777-1.807-6.989zM66.235 191.4l-51.129-71.953-4.26.647L13.17 101.2l-5.036 19.541 5.552.777 50.225 67.811 6.198 17.73 27.114 6.859-25.823-8.153zM130.922 59.788c3.098 2.977 7.617 5.953 10.716 9.447-3.099-1.164-10.07-5.694-10.07-5.694l-1.68 2.718s9.942 9.317 9.942 9.835c-3.227 3.365-6.843 6.212-10.07 9.577 3.486 1.423 9.683 5.435 9.683 5.435l-18.592-5.177s-19.755-1.553-19.755-1.811l17.818-10.483 12.008-13.847z"/><path fill="#231F20" fill-rule="nonzero" d="M142.8 61.471l-13.299-6.083-9.554 9.188 9.038-14.235zM78.372 82.694l-2.711 5.953 3.228-1.035 5.035.776zM146.286 94.729l11.749 7.895h-1.678l2.711 12.423-1.42-1.165-7.489 13.459 2.325-15.012-1.292-11.258z"/><path fill="#231F20" fill-rule="nonzero" d="M154.808 76.871l6.714 6.082 3.356 27.823-5.551 17.6 10.587-16.047 1.678.518-2.711-26.012 2.711 1.294-2.84-5.305z"/><path fill="#231F20" fill-rule="nonzero" d="M159.456 45.294l12.007 17.471 6.327 48.011-42.866 70.271-1.678 4.141 56.81-81.27-11.233-44zM157.519 41.282l-17.301-20.706-20.142 1.165 17.559 4.4zM84.053 26.012l12.137-5.306 19.238 9.965-20.271-5.695zM83.924 34.941l11.233-4.012 25.048 12.424zM84.441 42.576l29.179 5.695-12.782 2.976 11.491 8.412-19.625 20.188 9.038-19.153-14.59-9.835 12.524-2.588z"/><path fill="#FFF" fill-rule="nonzero" d="M123.046 72.73c1.032.517 1.807 1.552 1.807 2.846 0 1.683-1.42 3.106-3.228 3.106a3.262 3.262 0 0 1-2.97-1.94l2.067-1.424 2.324-2.589z"/><path fill="#231F20" fill-rule="nonzero" d="M138.281 129.412l16.785 4.788 24.531 14.365-25.564-11.906-18.592-4.53zM139.314 119.447l22.595.259 33.569 9.318-35.119-5.436h-22.853zM130.792 140.024c5.294 2.329 8.135 3.752 13.3 6.47 10.07 5.435 15.622 8.93 24.66 15.918-10.975-9.577-17.56-14.624-29.696-22.777-2.195-1.553-3.486-2.33-5.681-3.753l-2.583 4.142zM188.765 7.506l-33.957 14.235 11.62 12.812 16.526-21.224-4.389 23.165z"/><path fill="#E06F1D" fill-rule="nonzero" d="M135.828 76.094c-2.453 2.718-8.65 8.282-8.65 8.282l-20.917-1.164 8.392-4.012.775-.388c.516.776 1.162 1.553 1.937 2.07l3.486-4.53.258 5.824h.645c3.874 0 7.102-3.105 7.102-6.858 0-2.2-1.033-4.142-2.712-5.306l1.033-1.036c2.712 2.2 8.65 7.118 8.65 7.118z"/><path fill="#231F20" fill-rule="nonzero" d="M64.815 117.765l2.195-9.706-16.656-2.588c-3.486 3.623-4.39 7.764-3.615 12.423.775 2.847 4.003 7.118 6.714 9.318l6.585 3.753-6.585-2.07-7.488-5.695.387 3.106L57.456 136.4s5.81 2.07 9.425 4.012c.13.259-9.684-2.07-9.684-2.07l-10.458-7.766c.13 1.553.646 3.236 1.291 4.66 2.195 2.329 11.233 8.282 11.233 8.282l13.17 3.235-12.782-.647-8.522-5.435.258.776c2.195 2.847 8.005 7.118 8.005 7.118l15.365 4.659 7.101-8.93s-11.878-8.282-16.01-11.259c-.645-.259-1.55-1.553-1.55-1.553l-1.807-9.964c.258-.26 1.679-2.589 2.324-3.753zm5.94 74.282l.387.13-.13-.13 1.42-2.588-20.14-29.506-.905 4.53-34.86-48.012-2.97-.13 8.909-57.2 9.038-12.165L16.01 27.824l4.39 19.152L9.167 19.8l39.638 6.341 31.117-9.317-3.357 9.447h-7.618s-9.425 5.435-13.944 8.54c2.324-.646 21.432-6.729 21.432-6.729-.645 2.33-1.032 4.789-1.807 7.118h-6.843l-17.56 14.624 24.79-13.071-1.937 7.376-24.66 14.365h13.815l-7.618 10.224 16.527 9.964-9.555-11.776 6.069-9.059-6.714-1.553 12.911-10.482-1.291 18.764L77.21 81.53l-3.486 6.86-16.14-7.765-13.943-15.012 4.518-.647-13.298-3.494 3.873-9.577-.129-.13c-5.164 6.083-14.46 18.118-14.46 18.118l-1.163 15.142 4.777-11 5.552-5.048-2.065 8.412 10.2-8.67c4.519 5.306 13.17 12.94 13.17 12.94l16.397 7.895L58.1 92.27s-19.625 7.247-21.045 8.023c9.941-3.753 31.374-7.765 31.374-7.765l5.552 6.342-8.65 18.894c.129.906.258 2.717.258 2.717s9.038 2.07 14.073 2.718c6.714-2.2 20.142-5.953 20.142-5.953l3.228.777 1.55-4.142 1.42 2.46s-.13 8.023-.388 11.387c-3.873 3.753-18.592 16.177-18.592 16.177l10.07 7.506 16.785-1.165 8.91-6.73s6.455-5.176 7.617-8.282c-2.453 2.2-13.428 7.377-13.428 7.377l-15.752 1.94 15.752-4.27 13.428-8.93s1.937-1.552 1.937-6.081c-1.679 1.294-12.524 8.67-12.524 8.67l-11.879 2.847 12.783-5.953 11.62-10.482s.387-5.565.129-8.024c-1.55 2.718-6.714 7.895-6.714 7.895l-10.975 8.54 10.588-11.905 7.746-13.459-3.615-5.047 12.008 9.059 3.873 9.706-2.324-1.683 1.291 6.083-1.033 7.764-2.97-2.2-1.549 8.412-5.422 5.953-3.616 7.377s4.907-4.66 7.23-6.73c.646.13-7.875 12.424-7.875 12.424l-1.033 5.176 12.782-11.13-3.098 6.212 19.496-18.505-28.147 43.482-.904 3.882 3.615 4.27-5.552 9.448-25.048-1.294-3.486.388-12.395 2.718 14.461-1.036-12.911 4.142 8.909 5.823-20.4-4.53-4.649-11.517z"/><path fill="#FFF" fill-rule="nonzero" d="M42.22 133.294c-2.453-2.718-5.939-9.318-5.939-9.318l.646 5.695 4.906 12.682-16.914-27.177 3.228-1.164.775-11.647c0 .13 12.265 29.247 13.298 30.93z"/><path fill="#E06F1D" fill-rule="nonzero" d="M30.342 78.941l10.329-5.953 1.678 2.847zM46.352 92.529l-10.846-6.082 8.651 6.341-3.744 2.2z"/><path fill="#FFF" fill-rule="nonzero" d="M47.385 82.953c0-.777.387-1.553.904-2.07l4.906 3.105c-.387 1.036-1.55 1.941-2.84 1.941-1.55-.129-2.97-1.423-2.97-2.976z"/><path fill="#E06F1D" fill-rule="nonzero" d="M56.423 86.059c.258-.518.258-.388.387-.647L63.008 88c-4.649 1.294-10.33 2.459-15.365 3.882-3.099-2.458-6.327-5.306-9.554-7.376l5.68-7.765 1.808 1.683a6.17 6.17 0 0 0-1.807 4.4c0 1.164.258 2.2.903 3.235l4.778-2.977-2.066 5.565c.904.518 2.066.777 3.228.777 2.324 0 4.648-1.295 5.81-3.365zM80.696 128.765l-.645 3.364 2.969 9.706z"/><path fill="#E06F1D" d="M87.41 136.659v-3.883l10.587-8.541-9.683 8.93-.129 4.27z"/><path fill="#E06F1D" fill-rule="nonzero" d="M89.863 136.529v-2.847l6.069-4.788 1.807-3.106-.129 4.53z"/><path fill="#FFF" fill-rule="nonzero" d="M83.149 124.624l16.269-5.436 2.711 1.036-4.261.388z"/><path fill="#E06F1D" fill-rule="nonzero" d="M71.142 132l3.357 1.424.258-.13-.516-.518-5.552-4.27L75.532 132l1.291 3.882-.129-.129zM90.638 184.024l7.23-1.036 12.654.388s-1.163-5.435-1.033-8.929c.129-3.753 1.678-9.576 1.678-9.576-2.582-.26-4.906-.777-7.36.776-2.84 1.812-4.26 4.27-4.131 7.635-1.033-1.423-1.291-2.588-1.033-4.4.13-1.423.387-2.2 1.291-3.364-3.228.13-5.552.776-7.618 3.106-4.26 4.788-5.164 10.482-1.678 15.4z"/><path fill="#FFF" fill-rule="nonzero" d="M77.727 189.33l.516.776-.775.647s1.55 2.2 2.583 2.588c2.97.906 3.486.518 7.36.518l-6.973 1.553-5.035-4.141 2.324-1.942z"/><path fill="#FFF" d="M118.785 193.6c2.324-.13 3.873-.388 5.68-1.812 1.68-1.294 2.454-1.94 3.358-3.494l-2.712 5.565-6.326-.259z"/><path fill="#FFF" fill-rule="nonzero" d="M88.572 193.729l12.395-2.458 17.301 2.329-17.817-1.294zM110.263 152.965c.646 2.459.775 4.011 1.55 6.6 2.065 6.73 3.744 10.482 7.746 16.306-.258-5.695-.129-8.8.259-14.495.258-5.047 0-7.635 1.42-12.94l-6.327 4.011-4.648.518zM77.856 155.294l8.779.388 16.785-1.553 1.55 6.212-4.907-2.588-13.169 1.165-5.94-.389-2.324 3.236z"/><path fill="#FFF" fill-rule="nonzero" d="M64.944 152.447c.259 4.27.646 6.73 1.937 10.87 2.066 6.6 4.003 10.354 8.263 15.789-1.162-5.824-1.55-9.188-1.678-15.141-.13-3.494 0-5.436.258-8.8l-8.78-2.718zm48.934 37.012l-14.202-1.165-9.038 1.035c-.13.906-1.033 1.812-2.066 2.33-3.744 1.941-6.972.517-8.392-2.718-2.195-7.765-2.324-9.059-.388-18.117 3.357 8.929 5.165 9.188 9.167 15.011l9.426-1.164 14.073.517c-1.55-7.117-1.936-10.223-.129-18.117 4.132 10.482 6.585 10.611 10.975 19.54.516 1.036-1.679 3.624-3.486 4.013-3.357.905-5.036.129-5.94-1.165z"/><path fill="#231F20" fill-rule="nonzero" d="M54.357 147.27c-4.777 2.718-7.489 4.271-12.137 7.248-5.939 3.623-9.167 5.694-14.977 9.576 7.23-6.988 11.62-10.741 20.013-16.435 2.195-1.553 3.486-2.33 5.68-3.753l1.421 3.365zM45.448 136.271l-16.785 4.788-11.362 7.506 12.395-5.047 18.593-4.53zM42.22 127.729l-22.466.259-14.848 4.788 15.494-2.717 23.628 1.682z"/></g></svg>