<svg width="174" height="112" viewBox="0 0 174 112" fill="none" xmlns="http://www.w3.org/2000/svg">
<g clip-path="url(#clip0_19047_533845)">
<path d="M23.3237 9.29939L23.3607 8.92025V8.4135H38.3173V-0.325195H133.041V8.4135H150.898L148.157 18.138L147.827 19.3161C147.226 21.3948 146.612 23.4773 145.958 25.6597L145.906 25.8336L146.009 25.9834C147.861 28.6651 148.835 32.0644 148.826 35.8095C148.817 42.4824 145.686 47.5758 140.45 49.4345C139.08 49.9209 137.635 50.1687 136.154 50.1687C132.19 50.1687 128.558 48.4783 125.046 46.8434C124.136 46.4199 123.2 45.9834 122.274 45.5913C111.336 40.951 98.1085 40.951 87.4796 40.951H85.4693C82.2013 40.951 78.8537 41.0509 75.5192 41.2488C60.1446 42.1661 44.3058 45.5173 25.6744 51.7944L23.3256 52.586V9.29939H23.3237Z" fill="#B4B4B4"/>
<path d="M172.259 10.5366L167.362 15.5376C163.147 19.7525 153.071 24.8033 138.22 30.1427C124.476 33.6549 111.301 35.508 111.17 35.5265L110.452 35.6264L109.982 36.1757C109.954 36.209 107.123 39.5213 103.705 42.2179C101.763 43.7492 99.5994 44.8626 98.166 45.5136C96.4516 44.084 92.6066 41.7832 85.6156 41.7832C78.6246 41.7832 74.6853 44.1172 72.9542 45.5469C71.5098 44.8959 69.3163 43.7732 67.3429 42.2179C63.9251 39.5213 61.0936 36.209 61.0659 36.1757L60.5961 35.6245L59.8804 35.5265C59.7916 35.5136 50.9327 34.2707 40.2225 31.8997C21.1065 25.9815 8.47465 20.324 3.68825 15.5376L-1.15918 10.7475C-1.02047 11.1821 0.786452 23.3108 8.11586 32.0902C7.90317 31.9034 4.8941 29.2384 4.8941 29.2384L4.92369 33.5014C4.92554 33.6382 4.96993 36.9155 6.93036 40.7438C7.92167 42.6802 9.52885 44.9846 12.1107 47.0745L10.448 46.3311L11.2119 49.9782C11.7445 52.5156 13.8103 56.5641 18.2028 58.9684L15.6727 58.2601L17.7201 62.1606C19.5714 65.6856 22.9393 67.9882 27.5925 68.9573L29.4827 70.9067C32.1163 73.6254 34.8831 75.4545 37.746 76.3774L36.7529 76.6825L43.3499 78.3507C46.3553 79.1109 49.0647 79.4955 51.4025 79.4955C51.8482 79.4955 52.2735 79.4826 52.6749 79.4567L54.811 80.0356C56.3923 80.4628 57.931 80.681 59.3903 80.681C61.9462 80.681 64.0084 80.0374 65.6359 79.1534C66.1926 80.1521 67.0988 80.9807 68.227 81.4708C68.2732 81.4911 68.3176 81.5078 68.362 81.5244C67.785 83.0465 67.0452 84.92 66.0927 87.2207C65.0071 89.8248 64.086 91.9369 63.9455 92.2568L59.0722 103.313L67.785 98.9001L64.0195 107.446L74.7556 102.003C75.1477 101.804 75.5342 101.593 75.9133 101.369L75.8005 101.785L85.525 111.325L95.2476 101.785L95.1348 101.369C95.5139 101.593 95.9004 101.804 96.2925 102.003L107.029 107.446L103.263 98.9001L111.976 103.313L107.099 92.2457C106.953 91.9147 106.039 89.8211 104.959 87.2263C104.007 84.9237 103.265 83.0502 102.686 81.5263C102.732 81.5078 102.78 81.4874 102.829 81.4671C103.951 80.9807 104.859 80.1558 105.418 79.1552C107.045 80.0411 109.104 80.681 111.658 80.681C113.115 80.681 114.656 80.4628 116.235 80.0356L118.362 79.4549C118.767 79.4826 119.194 79.4955 119.644 79.4955C121.983 79.4955 124.693 79.1109 127.698 78.3507L134.269 76.6862L133.284 76.3829C136.154 75.4619 138.928 73.6309 141.567 70.9067L143.456 68.9573C148.111 67.9882 151.479 65.6856 153.326 62.1606L155.331 58.3192L152.777 59.0054C157.216 56.6066 159.3 52.5286 159.834 49.9782L160.591 46.3015L158.987 47.0357C161.54 44.9551 163.132 42.6691 164.118 40.7438C166.076 36.9155 166.123 33.6382 166.123 33.5014L166.148 29.2716C166.148 29.2716 163.051 31.9885 162.925 32.0958C167.872 25.5875 172.259 13.2035 172.259 10.5366ZM87.8479 78.8908C87.859 78.6947 87.8812 78.4987 87.9145 78.3063C88.19 78.3285 88.4601 78.36 88.7208 78.4081C89.2942 78.5061 89.8675 78.7854 90.3761 79.0942C90.2522 79.2477 90.1283 79.4031 90.0062 79.5621C89.6863 79.9894 89.394 80.4425 89.2054 80.9196C89.0463 81.3191 88.9613 81.7371 88.9927 82.1736L88.9557 82.1995C88.7449 81.9757 88.5655 81.7297 88.4157 81.4652C87.9792 80.6977 87.7961 79.7859 87.8479 78.8908ZM95.5195 79.9949C95.5527 79.9709 95.5842 79.945 95.6175 79.9191C95.6582 79.8895 95.6988 79.858 95.7377 79.8247C95.7765 79.7952 95.8154 79.7637 95.8524 79.7304C95.9115 79.6823 95.9707 79.6306 96.0281 79.5788C96.0798 79.5325 96.1298 79.4844 96.1797 79.4364C96.1927 79.4271 96.2038 79.416 96.2167 79.4031C96.2629 79.3568 96.3092 79.3125 96.3536 79.2662C96.3684 79.2514 96.3831 79.2366 96.3961 79.2218C96.496 79.122 96.5903 79.0184 96.6772 78.9111H96.6791C96.7105 78.876 96.7401 78.8427 96.7678 78.8075C96.8326 78.7299 96.8936 78.6522 96.9528 78.5727C97.0194 78.4857 97.0841 78.397 97.1451 78.3063C97.2801 78.347 97.417 78.4007 97.5446 78.458C97.6537 78.5061 97.7592 78.5634 97.8609 78.6263C98.0458 78.7428 98.1975 78.8908 98.3251 79.0498C98.4157 79.1626 98.4952 79.2792 98.5618 79.3994C98.4564 79.4456 98.351 79.49 98.2437 79.5307C98.1568 79.5658 98.068 79.5973 97.9792 79.6287C97.9792 79.6306 97.9774 79.6306 97.9755 79.6306C97.8701 79.6675 97.7629 79.7027 97.6537 79.736C97.5446 79.7693 97.4355 79.8007 97.3245 79.8303C97.2154 79.8599 97.1044 79.8876 96.9935 79.9117C96.8973 79.9357 96.8011 79.9561 96.705 79.9746C96.6661 79.9819 96.6273 79.9893 96.5866 79.9949C96.4978 80.0134 96.4072 80.0282 96.3184 80.0411C96.2056 80.0596 96.0928 80.0763 95.98 80.0892C95.8653 80.104 95.7525 80.117 95.6378 80.1262C95.525 80.1373 95.4103 80.1466 95.2975 80.154C95.3733 80.1022 95.4473 80.0504 95.5195 79.9949Z" fill="#B4B4B4"/>
<path d="M155.664 36.6216C164.223 30.7366 168.638 17.095 168.705 16.8823C163.367 22.218 150.735 27.6665 138.777 31.9628C124.732 35.5582 111.431 37.4076 111.431 37.4076C111.431 37.4076 108.501 40.855 104.882 43.7106C102.165 45.8522 99.1076 47.2134 97.7538 47.759C97.7538 47.759 94.7059 43.6847 85.6158 43.6847C76.5257 43.6847 73.3612 47.7849 73.3612 47.7849C72.0426 47.2578 68.9299 45.8892 66.1668 43.7106C62.5475 40.855 59.6179 37.4076 59.6179 37.4076C59.6179 37.4076 50.6869 36.1666 39.7362 33.7401C25.5897 29.3625 8.59133 23.1261 2.3457 16.8823C2.41228 17.095 6.82324 30.7366 15.3844 36.6216C15.3844 36.6216 12.76 36.5902 10.4926 35.7043C8.40453 34.8868 6.82509 33.4868 6.82509 33.4868C6.82509 33.4868 6.90647 45.1661 20.9568 49.5808C20.9568 49.5808 19.3478 50.4149 17.0045 50.4482C14.9424 50.474 13.1817 49.6381 13.0726 49.5882C13.1207 49.823 15.2438 59.32 27.0471 59.0389C27.0471 59.0389 26.0558 60.6294 23.5091 61.3082C21.495 61.839 19.4902 61.3026 19.4051 61.2804C24.0214 70.0672 38.5785 67.097 38.5785 67.097C36.5145 70.5018 30.8477 69.5845 30.8477 69.5845C40.6147 79.6641 48.9928 73.0504 48.9928 73.0504C48.8911 74.9535 43.8161 76.507 43.8161 76.507C55.0405 79.3478 57.8572 75.7691 58.0921 75.4325C57.4651 77.1081 55.3087 78.2011 55.3087 78.2011C59.6937 79.3885 62.8656 78.5803 65.0479 77.293C65.551 76.9971 66.0022 76.6735 66.4036 76.3443C66.7013 76.1001 66.9695 75.8523 67.2136 75.6082C68.4676 74.3524 69.0187 73.2002 69.0187 73.2002L69.4755 73.0245L71.608 72.2107L72.4569 71.8852L73.032 71.6651L74.1158 71.2509H74.1177L74.3895 71.1473L75.6657 70.659L77.0861 70.1171L77.9165 69.799L78.2457 69.6733L78.6673 69.5124C79.8288 71.7428 81.0494 73.9751 82.1351 75.9133C82.1369 75.917 82.1388 75.9189 82.1406 75.9226C82.1443 75.9337 82.1517 75.9448 82.1591 75.9559C82.1887 76.0132 82.2183 76.065 82.2479 76.1186C82.3145 76.237 82.3792 76.3535 82.4439 76.4682C82.5401 76.6383 82.6363 76.8085 82.7288 76.9731C82.7325 76.9749 82.7325 76.9768 82.7343 76.9805C82.8212 77.1358 82.9082 77.2893 82.9932 77.4392L81.7079 77.2616L81.2936 77.2043L81.3583 76.692L81.3768 76.5477L80.9644 76.3905L79.7752 75.9374L79.6864 75.9023L78.266 74.75L78.1439 75.3123L73.7755 73.6515L73.3169 73.4758H73.315L72.7565 73.2631L72.172 76.0077C72.1517 76.102 72.1295 76.2037 72.1018 76.3165C72.0389 76.5755 71.9575 76.8862 71.8484 77.2542C71.8484 77.2542 71.8465 77.2635 71.8447 77.269C71.7226 77.6925 71.5654 78.1882 71.3694 78.7782C71.2307 79.1924 71.0735 79.6493 70.8922 80.1542C70.8312 80.3262 70.7683 80.5037 70.7017 80.6868C70.6999 80.6924 70.698 80.6979 70.6962 80.7034C70.5501 81.1048 70.391 81.5339 70.2172 81.9925C69.6142 83.5905 68.8412 85.549 67.848 87.9515C66.6514 90.8237 65.6767 93.0449 65.6656 93.0671L62.9543 99.2165L68.954 96.1779C69.9897 95.6545 70.9366 95.0589 71.8095 94.4246C71.1031 96.078 70.6185 97.1803 70.6129 97.1969L67.9035 103.346L73.8976 100.308C76.03 99.2276 77.7999 97.8146 79.2795 96.2445L77.9276 101.21L83.1208 106.302L85.5251 108.662L87.9294 106.302L93.1227 101.21L91.7689 96.2445C93.2503 97.8146 95.0203 99.2276 97.1527 100.308L103.147 103.346L100.435 97.1969C100.43 97.1803 99.9454 96.078 99.2389 94.4246C100.114 95.0589 101.059 95.6545 102.094 96.1779L108.094 99.2165L105.385 93.0671C105.374 93.0449 104.399 90.8237 103.202 87.9515C102.211 85.549 101.436 83.5923 100.835 81.9944C100.659 81.5339 100.5 81.1048 100.354 80.7034C100.354 80.7034 100.35 80.6924 100.349 80.6887C100.28 80.5037 100.217 80.3262 100.156 80.1542C99.9731 79.6437 99.8141 79.1832 99.6754 78.7689C99.4812 78.1845 99.3277 77.6925 99.2056 77.2727C99.2019 77.2653 99.2 77.2598 99.1982 77.2524C99.0909 76.8843 99.0096 76.5773 98.9467 76.3184C98.9189 76.2037 98.8967 76.102 98.8764 76.0077L98.2938 73.2631L97.7334 73.4758L97.2803 73.6478H97.2785L92.9045 75.3123L92.7824 74.75L91.3639 75.9023L91.2751 75.9374H91.2733L90.0822 76.3924H90.0804L89.6716 76.5477L89.6901 76.6901L89.7549 77.2043L89.3424 77.2616H89.3406L88.0386 77.441C88.1625 77.2246 88.2864 77.0027 88.4158 76.7752C88.4177 76.7715 88.4195 76.7659 88.4232 76.7622C88.4769 76.6642 88.5324 76.5662 88.5897 76.4663C88.6526 76.3554 88.7155 76.2389 88.7783 76.126C88.7783 76.1223 88.7802 76.1186 88.7839 76.1168H88.7857C88.7857 76.1168 88.7894 76.1094 88.7913 76.1057C88.8264 76.0391 88.8634 75.9781 88.8986 75.9133C89.9842 73.9751 91.2067 71.741 92.3681 69.505L92.8083 69.6733L93.1264 69.7953L93.9642 70.1153L95.3883 70.659L96.6607 71.1454L96.9326 71.2509H96.9345L98.0182 71.6651L98.5934 71.8852L99.4423 72.2107L101.575 73.0263L102.032 73.2002C102.032 73.2002 102.583 74.3543 103.84 75.6137C104.084 75.8579 104.354 76.1057 104.652 76.3498C105.054 76.679 105.503 77.0008 106.006 77.2967C108.187 78.5803 111.357 79.3885 115.738 78.2011C115.738 78.2011 113.585 77.1081 112.956 75.4325C113.189 75.7691 116.006 79.3478 127.232 76.507C127.232 76.507 122.156 74.9535 122.054 73.0504C122.054 73.0504 130.434 79.6641 140.203 69.5845C140.203 69.5845 134.536 70.5018 132.47 67.097C132.47 67.097 147.034 70.0672 151.641 61.2804C151.556 61.3026 149.552 61.839 147.538 61.3082C144.993 60.6294 144.003 59.0389 144.003 59.0389C155.806 59.32 157.926 49.823 157.974 49.5882C157.865 49.6381 156.104 50.474 154.046 50.4482C151.701 50.4149 150.093 49.5808 150.093 49.5808C164.14 45.1661 164.223 33.4868 164.223 33.4868C164.223 33.4868 162.642 34.8868 160.558 35.7043C158.292 36.5902 155.664 36.6216 155.664 36.6216ZM98.2439 79.5309C98.1569 79.566 98.0682 79.5975 97.9794 79.6289C97.9794 79.6308 97.9776 79.6308 97.9757 79.6308C97.8703 79.6678 97.763 79.7029 97.6539 79.7362C97.5448 79.7695 97.4357 79.8009 97.3247 79.8305C97.2156 79.8601 97.1046 79.8878 96.9936 79.9119C96.8975 79.9359 96.8013 79.9563 96.7051 79.9748C96.6663 79.9822 96.6274 79.9896 96.5868 79.9951C96.498 80.0136 96.4074 80.0284 96.3186 80.0413C96.2058 80.0598 96.0929 80.0765 95.9801 80.0894C95.8655 80.1042 95.7526 80.1172 95.638 80.1264C95.5252 80.1375 95.4105 80.1468 95.2977 80.1542C95.3735 80.1024 95.4475 80.0506 95.5196 79.9951C95.5529 79.9711 95.5844 79.9452 95.6176 79.9193C95.6583 79.8897 95.699 79.8582 95.7378 79.825C95.7767 79.7954 95.8155 79.7639 95.8525 79.7306C95.9117 79.6825 95.9709 79.6308 96.0282 79.579C96.08 79.5327 96.1299 79.4847 96.1799 79.4366C96.1928 79.4273 96.2039 79.4162 96.2169 79.4033C96.2631 79.357 96.3093 79.3127 96.3537 79.2664C96.3685 79.2516 96.3833 79.2368 96.3963 79.222C96.4961 79.1222 96.5905 79.0186 96.6774 78.9113H96.6792C96.7107 78.8762 96.7403 78.8429 96.768 78.8078C96.8327 78.7301 96.8938 78.6524 96.9529 78.5729C97.0195 78.4859 97.0843 78.3972 97.1453 78.3065C97.2803 78.3472 97.4172 78.4009 97.5448 78.4582C97.6539 78.5063 97.7593 78.5636 97.861 78.6265C98.046 78.743 98.1976 78.891 98.3252 79.05C98.4159 79.1628 98.4954 79.2794 98.562 79.3996C98.4566 79.4458 98.3511 79.4902 98.2439 79.5309ZM88.721 78.4083C89.2943 78.5063 89.8677 78.7856 90.3763 79.0944C90.2524 79.2479 90.1284 79.4033 90.0064 79.5623C89.6864 79.9896 89.3942 80.4427 89.2056 80.9198C89.0465 81.3193 88.9614 81.7373 88.9929 82.1738L88.9559 82.1997C88.745 81.9759 88.5656 81.7299 88.4158 81.4654C87.9794 80.6979 87.7963 79.7861 87.8481 78.891C87.8592 78.6949 87.8813 78.4989 87.9146 78.3065C88.1902 78.3287 88.4602 78.3602 88.721 78.4083Z" fill="#233F94"/>
<path d="M43.76 44.2466C43.76 44.2466 42.2619 48.7945 31.1245 48.0195C30.0167 47.9474 28.809 47.8198 27.5069 47.6238C13.2864 45.5357 9.32306 37.2261 9.20654 36.9653C9.3397 37.0652 13.7433 40.311 24.1391 42.5193C24.8733 42.6746 25.6704 42.8207 26.5045 42.9483C33.6786 44.0673 43.7581 44.2448 43.7581 44.2448L43.76 44.2466Z" fill="white"/>
<path d="M49.1148 45.6377C48.4194 50.8532 43.0097 53.6588 39.3071 54.9775C37.3153 55.6895 35.8172 55.9743 35.8172 55.9743C21.6022 58.6967 16.5532 52.0942 16.5532 52.0942C16.5532 52.0942 23.0929 52.6009 30.5351 51.4709C31.7539 51.2878 32.945 51.064 34.1027 50.8088C42.5455 48.9667 49.1148 45.6377 49.1148 45.6377Z" fill="white"/>
<path d="M47.9073 60.3649C46.4888 61.5615 44.7244 62.7304 42.5198 63.8216C32.296 68.8817 23.1948 62.8081 23.1948 62.8081C23.1948 62.8081 35.9468 61.7446 43.0432 57.5149C43.5222 57.2375 43.968 56.9416 44.3841 56.629C51.6469 51.2305 53.2892 47.563 53.2892 47.563C53.2892 47.563 55.1146 54.2858 47.9073 60.3649Z" fill="white"/>
<path d="M68.5173 67.8349C68.4452 68.214 68.362 68.6024 68.2565 68.9926C66.0187 77.3355 59 77.4021 59 77.4021C59 77.4021 63.1576 74.8924 64.6002 66.9046C65.1735 63.7494 65.3178 59.7305 64.6168 54.6704C64.6168 54.6704 69.9543 60.1078 68.5192 67.833L68.5173 67.8349Z" fill="white"/>
<path d="M61.5781 66.0371C61.2211 67.1949 60.7439 68.3693 60.1022 69.5492C55.989 77.1412 49.355 75.9446 49.355 75.9446C49.355 75.9446 54.4484 72.7784 57.9272 64.8183C59.3901 61.4726 60.5646 57.2762 60.9548 52.1162C60.9548 52.1162 63.8603 58.6226 61.5781 66.0371Z" fill="white"/>
<path d="M55.1829 63.7658C53.9031 66.0425 52.061 68.247 49.4274 70.028C41.5746 75.3489 35.7358 71.0915 35.7358 71.0915C35.7358 71.0915 44.0677 69.6508 51.1196 61.9792C53.7644 59.1125 56.2241 55.3674 57.9996 50.5015C57.9996 50.5015 58.7616 57.4203 55.1829 63.7658Z" fill="white"/>
<path d="M7.22646 25.099C7.22646 25.099 14.9757 33.331 30.3521 37.7715C45.4233 42.1233 57.0694 42.495 57.0694 42.495C57.0694 42.495 58.856 46.7747 62.8157 49.7209C66.7772 52.6689 68.2253 53.7416 71.6302 55.1546C75.035 56.5676 60.8589 53.0406 56.0966 43.699C56.0966 43.699 40.526 42.7484 29.8842 39.3879C10.9864 33.4197 7.22461 25.0972 7.22461 25.0972L7.22646 25.099Z" fill="#FFC72B"/>
<path d="M77.062 73.1262C76.7421 72.7101 76.5423 71.9795 76.5423 71.9795C76.5423 71.9795 76.0966 72.0813 75.8173 72.2625C75.5381 72.4475 75.2681 72.8654 75.2681 72.8654C75.871 73.6126 77.578 73.792 77.578 73.792C77.578 73.792 77.3783 73.5405 77.062 73.1262ZM80.1987 73.8789C79.7659 73.5294 79.2832 73.2002 79.0077 72.7138C78.7857 72.3106 78.7136 71.8464 78.6415 71.3914C78.4769 70.3835 78.2531 69.3663 77.7038 68.5174C77.1564 67.6574 76.2372 66.9786 75.2255 66.9712C74.286 66.9675 73.4944 67.5482 73.0006 68.3602L73.0764 68.5636C73.5703 69.8712 74.1621 70.9383 74.8445 71.7373C74.961 71.6171 75.0757 71.5153 75.1848 71.4358C75.305 71.3489 75.4512 71.262 75.6213 71.1806C75.7693 70.1356 75.5769 68.9779 75.5085 68.767C75.4641 68.6191 75.4142 68.4767 75.3661 68.3287C75.305 68.1475 75.1811 67.9107 75.1774 67.7258C75.3846 67.8016 75.5991 67.9829 75.7804 68.1142C75.969 68.2492 76.1502 68.3971 76.3112 68.5673C76.6404 68.9057 76.8808 69.3274 77.0139 69.7842C77.0768 70.0117 77.1157 70.2447 77.1268 70.4778C77.1305 70.5998 77.1268 70.7053 77.1027 70.8218C77.0879 70.8939 77.0213 71.0696 77.0435 71.1417C77.1342 71.3988 77.4911 72.3753 77.959 72.9228C78.5545 73.6311 78.9318 74.0602 78.9318 74.0602L79.5089 74.7278L78.6267 74.6761C78.3141 74.6557 75.5307 74.4486 74.2823 73.1817L74.1695 73.0578C73.9327 72.797 73.1097 71.863 72.3367 70.6627L72.3256 70.6405C72.161 70.561 71.9834 70.4981 71.8059 70.4482C70.7165 70.1726 69.4644 70.5129 68.8301 71.4358C68.721 71.5912 68.6377 71.7613 68.5786 71.9333L68.8412 72.2884C69.2795 72.8765 70.2671 73.9733 72.074 74.8518C72.1295 74.7389 72.1943 74.6261 72.2701 74.5244C72.333 74.4338 72.3977 74.3505 72.4624 74.271L72.4587 74.2229C72.455 74.0916 72.4273 73.9511 72.3718 73.7661C72.2016 73.1965 71.9039 72.6768 71.5913 72.1793C71.4619 71.9795 71.3269 71.7872 71.1863 71.5986C71.1345 71.5301 70.9533 71.2213 70.87 71.2028L71.5266 71.3526C71.9686 71.4709 72.3293 71.7576 72.5567 71.9758C72.7972 72.2089 72.971 72.4807 73.1412 72.7378L73.2651 72.9339C73.4537 73.2168 73.6498 73.4869 73.8569 73.7587L73.9253 73.8493C74.2046 74.2192 74.4913 74.6039 74.8982 74.7741C75.4863 75.0108 76.1539 75.1662 76.2816 75.1958L78.0311 75.5767L76.3186 76.089C76.3075 76.0927 74.9389 76.507 73.5555 76.507C73.0986 76.507 72.6696 76.4626 72.259 76.3683L72.05 76.2999L72.0019 76.2777C71.9649 76.2666 71.9335 76.2518 71.9039 76.237C71.5414 76.0742 70.5649 75.6359 69.618 75.2068L69.359 75.0866C68.7062 75.5841 68.1735 76.2666 68.2771 77.0508C68.3659 77.711 68.9059 78.2344 69.5125 78.4989C70.0896 78.7486 70.7202 78.8077 71.3306 78.8466C71.5876 78.3713 71.9002 77.9866 72.259 77.6925C72.7454 77.2875 73.3964 77.134 73.831 77.0693H73.8347C73.9549 77.0323 74.0936 77.0249 74.2268 77.0175C75.0794 76.949 75.8673 76.4885 76.7143 76.4552C77.922 76.4016 78.9318 77.1821 79.7918 78.092C80.3689 77.7369 81.0976 77.4022 81.952 77.1987C82.2387 77.1266 82.5105 77.073 82.7602 77.036C82.2202 75.7913 81.2732 74.7241 80.1987 73.8789ZM74.2675 75.3918C73.9013 75.2068 73.6165 74.6724 73.6165 74.6724C73.6165 74.6724 73.3779 74.8 73.1486 75.0718C72.9174 75.3419 72.8841 75.6452 72.8841 75.6452C73.709 75.9873 75.0443 75.7044 75.0443 75.7044C75.0443 75.7044 74.63 75.5767 74.2675 75.3918Z" fill="#233F94"/>
<path d="M75.7583 80.1542C74.6339 80.0821 73.5131 79.8528 72.4922 79.3997C72.5569 79.2795 72.6346 79.1629 72.7252 79.0501C72.8547 78.8911 73.0082 78.7431 73.1931 78.6266C73.2911 78.5637 73.3966 78.5101 73.5057 78.4583C73.6351 78.401 73.7702 78.3473 73.9052 78.3066C74.4008 79.0298 75.0333 79.6604 75.7583 80.1542Z" fill="#B4B4B4"/>
<path d="M77.0623 73.1243C76.7423 72.71 76.5426 71.9776 76.5426 71.9776C76.5426 71.9776 76.0969 72.0793 75.8195 72.2606C75.5402 72.4455 75.2683 72.8635 75.2683 72.8635C75.8713 73.6107 77.5802 73.7919 77.5802 73.7919C77.5802 73.7919 77.3804 73.5385 77.0642 73.1243H77.0623ZM78.6769 81.0399L78.8507 81.2693L79.0283 81.2804L78.6769 81.0399ZM80.199 73.8788C79.7662 73.5274 79.2835 73.2001 79.0079 72.7137C78.786 72.3105 78.7139 71.8463 78.6417 71.3895C78.4753 70.3834 78.2534 69.3643 77.7022 68.5154C77.1548 67.6554 76.2356 66.9767 75.2239 66.9693C74.2844 66.9656 73.4928 67.5463 72.999 68.3563L73.0749 68.5598C73.5687 69.8674 74.1605 70.9345 74.843 71.7353C74.9595 71.6151 75.0723 71.5134 75.1833 71.4339C75.3035 71.3469 75.4514 71.26 75.6197 71.1768C75.7677 70.1318 75.5753 68.9741 75.5069 68.7632C75.4625 68.6153 75.4126 68.4729 75.3645 68.3268C75.3035 68.1455 75.1796 67.9088 75.1759 67.7238C75.383 67.7997 75.5975 67.9809 75.7788 68.1122C75.9674 68.2472 76.1487 68.3952 76.3096 68.5653C76.6369 68.9038 76.8792 69.3273 77.0105 69.7841C77.0753 70.0098 77.1122 70.2446 77.1233 70.4777C77.127 70.5979 77.1233 70.7033 77.1011 70.8217C77.0863 70.8938 77.0179 71.0714 77.0401 71.1416C77.1307 71.3987 77.4895 72.3752 77.9556 72.9208C78.5511 73.6292 78.9284 74.0601 78.9284 74.0601L79.5054 74.7277L78.6233 74.6741C78.3107 74.6556 75.5273 74.4485 74.2789 73.1816L74.1661 73.0577C73.9293 72.7969 73.1063 71.8629 72.3332 70.6626L72.3221 70.6404C72.1557 70.5609 71.9781 70.498 71.8024 70.4481C70.7131 70.1725 69.461 70.5128 68.8267 71.4357C68.7175 71.5911 68.6343 71.7594 68.5733 71.9332L68.8378 72.2883C69.2761 72.8764 70.2637 73.9732 72.0688 74.8517C72.1261 74.7388 72.189 74.626 72.2648 74.5243C72.3295 74.4337 72.3924 74.3504 72.4572 74.2709L72.4535 74.221C72.4498 74.0897 72.4239 73.9491 72.3665 73.7642C72.1964 73.1945 71.8986 72.6748 71.5861 72.1773C71.4584 71.9776 71.3216 71.7853 71.1829 71.5966C71.1292 71.5282 70.9498 71.2193 70.8666 71.2008L71.5232 71.3525C71.9652 71.469 72.3258 71.7557 72.5533 71.9739C72.7938 72.2069 72.9676 72.4788 73.1378 72.7359L73.2617 72.9319C73.4503 73.2149 73.6464 73.4868 73.8535 73.7586L73.9219 73.8492C74.2012 74.2191 74.4879 74.6038 74.8947 74.774C75.4829 75.0107 76.1505 75.1661 76.2781 75.1957L78.0277 75.5766L76.3151 76.0889C76.304 76.0926 74.9354 76.5069 73.552 76.5069C73.0952 76.5069 72.6661 76.4625 72.2556 76.3682L72.0484 76.2998L71.9985 76.2776C71.9615 76.2665 71.9301 76.2517 71.9005 76.2369C71.538 76.0741 70.5615 75.6377 69.6145 75.2067L69.3538 75.0865C68.7009 75.584 68.1701 76.2665 68.2718 77.0507C68.3624 77.7109 68.9006 78.2343 69.5091 78.4988C70.0861 78.7485 70.715 78.8076 71.3271 78.8465C71.5842 78.3712 71.8968 77.9865 72.2556 77.6924C72.742 77.2892 73.3948 77.1339 73.8276 77.071H73.8313C73.9515 77.034 74.0921 77.0266 74.2234 77.0174C75.076 76.9489 75.8639 76.4903 76.7128 76.4551C77.9186 76.4015 78.9303 77.182 79.7903 78.0919C80.3673 77.7368 81.0941 77.4021 81.9504 77.1986C82.2371 77.1265 82.509 77.0747 82.7568 77.0359C82.2168 75.7912 81.2717 74.724 80.1971 73.8788H80.199ZM75.0445 75.7043C75.0445 75.7043 74.6303 75.5766 74.2678 75.3917C73.9016 75.2067 73.6149 74.6723 73.6149 74.6723C73.6149 74.6723 73.3782 74.7999 73.147 75.0717C72.9177 75.3436 72.8825 75.6451 72.8825 75.6451C73.7092 75.9891 75.0427 75.7061 75.0427 75.7061L75.0445 75.7043Z" fill="#233F94"/>
<path d="M77.5775 73.7919C77.5775 73.7919 75.8685 73.6106 75.2656 72.8634C75.2656 72.8634 75.5375 72.4455 75.8168 72.2605C76.096 72.0793 76.5399 71.9775 76.5399 71.9775C76.5399 71.9775 76.7396 72.7099 77.0596 73.1242C77.3759 73.5385 77.5756 73.7919 77.5756 73.7919H77.5775Z" fill="#FFC72B"/>
<path d="M72.8843 75.6432C72.8843 75.6432 72.9176 75.3418 73.1487 75.0699C73.3781 74.798 73.6167 74.6704 73.6167 74.6704C73.6167 74.6704 73.9033 75.2068 74.2695 75.3899C74.632 75.5748 75.0463 75.7024 75.0463 75.7024C75.0463 75.7024 73.711 75.9854 72.8861 75.6414L72.8843 75.6432Z" fill="#FFC72B"/>
<path d="M82.7597 77.0359C82.51 77.0729 82.24 77.1265 81.9534 77.1986C81.0971 77.4021 80.3702 77.7387 79.7932 78.0919C78.9332 77.1838 77.9234 76.4033 76.7157 76.4551C75.8668 76.4884 75.0789 76.9489 74.2263 77.0174C74.095 77.0248 73.9544 77.0322 73.8342 77.071H73.8305C73.3978 77.1357 72.7449 77.2892 72.2585 77.6924C71.8997 77.9865 71.5871 78.3712 71.3301 78.8465C70.7197 78.8095 70.0891 78.7485 69.512 78.4988C68.9054 78.2343 68.3654 77.7109 68.2748 77.0507C68.173 76.2665 68.7038 75.584 69.3567 75.0865L69.6175 75.2067C70.5644 75.6358 71.5409 76.0741 71.9034 76.2369C71.933 76.2517 71.9644 76.2665 72.0014 76.2776L72.0514 76.2998L72.2585 76.3682C72.6691 76.4625 73.1 76.5069 73.555 76.5069C74.9384 76.5069 76.307 76.0926 76.3181 76.0889L78.0307 75.5766L76.2811 75.1957C76.1535 75.1661 75.4858 75.0107 74.8977 74.774C74.4908 74.6038 74.2041 74.2191 73.9249 73.8492L73.8564 73.7586C73.6493 73.4868 73.4532 73.2149 73.2646 72.9319L73.1407 72.7359C72.9705 72.4788 72.7967 72.2088 72.5563 71.9739C72.3306 71.7557 71.9681 71.469 71.5261 71.3525L70.8695 71.2008C70.9528 71.2193 71.134 71.5282 71.1858 71.5966C71.3245 71.7853 71.4614 71.9776 71.589 72.1773C71.9015 72.6748 72.1993 73.1945 72.3695 73.7642C72.4268 73.9491 72.4527 74.0878 72.4564 74.221L72.4601 74.2709C72.3954 74.3504 72.3325 74.4337 72.2677 74.5243C72.1919 74.626 72.129 74.7388 72.0717 74.8517C70.2648 73.9732 69.2772 72.8764 68.8407 72.2883L68.5762 71.9332C68.6373 71.7594 68.7186 71.5892 68.8296 71.4357C69.464 70.511 70.7142 70.1725 71.8054 70.4481C71.9829 70.498 72.1605 70.5609 72.3251 70.6404L72.3362 70.6626C73.1092 71.8611 73.9304 72.7969 74.169 73.0577L74.2818 73.1816C75.5302 74.4485 78.3136 74.6556 78.6262 74.6741L79.5084 74.7277L78.9313 74.0601C78.9313 74.0601 78.5541 73.631 77.9585 72.9208C77.4906 72.3734 77.1337 71.3969 77.043 71.1416C77.0209 71.0695 77.0874 70.892 77.1041 70.8217C77.1263 70.7052 77.13 70.5997 77.1263 70.4777C77.1152 70.2446 77.0782 70.0098 77.0135 69.7841C76.8821 69.3273 76.6399 68.9056 76.3125 68.5653C76.1498 68.3952 75.9685 68.2491 75.7817 68.1122C75.6005 67.9809 75.3859 67.7997 75.1788 67.7238C75.1825 67.9088 75.3064 68.1455 75.3674 68.3268C75.4155 68.4747 75.4655 68.6171 75.5098 68.7632C75.5783 68.9741 75.7706 70.1318 75.6227 71.1768C75.4525 71.26 75.3064 71.3469 75.1862 71.4339C75.0771 71.5134 74.9643 71.6151 74.8459 71.7353C74.1634 70.9363 73.5716 69.8692 73.0778 68.5598L73.002 68.3563C73.4958 67.5463 74.2873 66.9656 75.2269 66.9693C76.2367 66.9767 77.1577 67.6554 77.7052 68.5154C78.2563 69.3643 78.4782 70.3815 78.6447 71.3895C78.7168 71.8463 78.7871 72.3086 79.0109 72.7137C79.2864 73.2001 79.7692 73.5274 80.2019 73.8788C81.2765 74.724 82.2234 75.7912 82.7616 77.0359H82.7597Z" fill="#FFC72B"/>
<path d="M84.4486 78.0123C84.4079 77.7867 84.358 77.5555 84.2988 77.3595C84.2489 77.206 84.2045 77.0654 84.1546 76.9304C83.6145 75.436 82.5363 74.023 81.0364 72.8357L80.8181 72.6655C80.55 72.4547 80.2781 72.2383 80.1801 72.07C80.071 71.874 80.0173 71.5337 79.9618 71.1675C79.7769 70.0375 79.5087 68.8464 78.8337 67.8015C77.9903 66.4735 76.6014 65.645 75.2106 65.6357C73.6034 65.6357 72.1719 66.7029 71.4691 68.4229C71.3915 68.6263 71.3267 68.8261 71.2694 69.0258C71.1917 69.0221 71.1159 69.0221 71.0512 69.0221C69.6826 69.0221 68.4416 69.6417 67.7332 70.6737C67.3633 71.2026 67.1562 71.8351 67.134 72.4991C67.0952 73.3055 67.3263 74.11 67.7628 74.7573C67.1266 75.5082 66.8399 76.3719 66.9527 77.2282C67.0989 78.2879 67.8719 79.2459 68.9779 79.7249C69.6789 80.0264 70.3798 80.1207 71.0438 80.1651C71.1233 80.215 71.2065 80.2594 71.2897 80.3057C72.5603 80.9844 74.0343 81.3839 75.6748 81.493L79.1999 81.7371L78.8485 81.2692L78.6765 81.0399L77.1026 78.9444C76.7105 78.6763 75.7691 78.4728 75.4603 78.1251C75.549 78.0992 75.8209 78.016 75.8209 78.016C76.1797 77.8995 76.4997 77.8015 76.7567 77.7941H76.8326C77.4577 77.7941 78.1475 78.2491 79.0686 79.2755L79.174 79.3994C79.2572 79.4937 79.3386 79.5844 79.4144 79.6787C79.4865 79.7656 79.5698 79.8562 79.592 79.8747C80.2226 80.6367 80.7904 81.432 80.7275 82.1144L80.365 85.9114L83.0116 83.1742C84.2637 81.8888 84.8 79.958 84.4486 78.0123ZM75.758 80.154C74.6336 80.0819 73.5128 79.8525 72.4919 79.3994C72.5566 79.2792 72.6343 79.1627 72.7249 79.0499C72.8544 78.8908 73.0079 78.7429 73.1928 78.6263C73.2908 78.5635 73.3963 78.5098 73.5054 78.458C73.6348 78.4007 73.7699 78.3471 73.9049 78.3064C74.4005 79.0295 75.033 79.6602 75.758 80.154ZM76.7142 76.4551C75.8671 76.4884 75.0793 76.9489 74.2267 77.0173C74.0935 77.0247 73.9548 77.0321 73.8346 77.0691H73.8309C73.3963 77.1338 72.7453 77.2873 72.2588 77.6924C71.9001 77.9864 71.5875 78.3711 71.3304 78.8464C70.7201 78.8076 70.0894 78.7484 69.5124 78.4987C68.9058 78.2343 68.3657 77.7109 68.277 77.0506C68.1734 76.2664 68.706 75.584 69.3589 75.0865L69.6178 75.2067C70.5647 75.6358 71.5413 76.0741 71.9037 76.2368C71.9333 76.2516 71.9648 76.2664 72.0018 76.2775L72.0499 76.2997L72.2588 76.3682C72.6694 76.4625 73.0985 76.5069 73.5553 76.5069C74.9387 76.5069 76.3073 76.0926 76.3184 76.0889L78.031 75.5766L76.2814 75.1956C76.1538 75.166 75.4862 75.0107 74.898 74.7739C74.4911 74.6038 74.2045 74.2191 73.9252 73.8492L73.8568 73.7586C73.6496 73.4867 73.4536 73.2167 73.265 72.9337L73.141 72.7377C72.9709 72.4806 72.797 72.2087 72.5566 71.9757C72.3291 71.7575 71.9685 71.4708 71.5265 71.3524L70.8699 71.2026C70.9531 71.2211 71.1344 71.53 71.1862 71.5984C71.3267 71.787 71.4617 71.9794 71.5912 72.1791C71.9037 72.6766 72.2015 73.1963 72.3717 73.766C72.4271 73.9509 72.4549 74.0915 72.4586 74.2228L72.4623 74.2709C72.3976 74.3504 72.3328 74.4336 72.2699 74.5242C72.1941 74.626 72.1294 74.7388 72.0739 74.8516C70.267 73.9731 69.2794 72.8764 68.841 72.2882L68.5784 71.9332C68.6376 71.7612 68.7208 71.591 68.8299 71.4356C69.4643 70.5128 70.7164 70.1725 71.8057 70.448C71.9833 70.498 72.1608 70.5609 72.3254 70.6404L72.3365 70.6626C73.1096 71.8629 73.9326 72.7968 74.1693 73.0576L74.2822 73.1815C75.5305 74.4484 78.314 74.6556 78.6265 74.6759L79.5087 74.7277L78.9317 74.06C78.9317 74.06 78.5544 73.631 77.9589 72.9226C77.491 72.3752 77.134 71.3987 77.0434 71.1416C77.0212 71.0695 77.0878 70.8938 77.1026 70.8216C77.1266 70.7051 77.1303 70.5997 77.1266 70.4776C77.1155 70.2446 77.0767 70.0116 77.0138 69.7841C76.8806 69.3273 76.6402 68.9056 76.311 68.5671C76.1501 68.397 75.9689 68.249 75.7802 68.114C75.599 67.9827 75.3844 67.8015 75.1773 67.7256C75.181 67.9106 75.3049 68.1473 75.3659 68.3286C75.414 68.4765 75.464 68.6189 75.5083 68.7669C75.5768 68.9777 75.7691 70.1355 75.6212 71.1804C75.451 71.2618 75.3049 71.3487 75.1847 71.4356C75.0756 71.5152 74.9609 71.6169 74.8444 71.7371C74.1619 70.9381 73.5701 69.871 73.0763 68.5634L73.0005 68.36C73.4943 67.5481 74.2859 66.9674 75.2254 66.9711C76.237 66.9784 77.1562 67.6572 77.7037 68.5172C78.2529 69.3661 78.4767 70.3833 78.6413 71.3913C78.7135 71.8462 78.7856 72.3104 79.0075 72.7136C79.2831 73.2 79.7658 73.5292 80.1986 73.8788C81.2731 74.724 82.22 75.7911 82.7601 77.0358C82.5104 77.0728 82.2385 77.1264 81.9519 77.1986C81.0974 77.402 80.3687 77.7368 79.7917 78.0919C78.9317 77.1819 77.9219 76.4014 76.7142 76.4551ZM72.884 75.645C72.884 75.645 72.9173 75.3417 73.1484 75.0717C73.3778 74.7998 73.6164 74.6722 73.6164 74.6722C73.6164 74.6722 73.9012 75.2067 74.2674 75.3916C74.6299 75.5766 75.0441 75.7042 75.0441 75.7042C75.0441 75.7042 73.7088 75.9872 72.884 75.645ZM75.2679 72.8653C75.2679 72.8653 75.5379 72.4473 75.8172 72.2624C76.0965 72.0811 76.5422 71.9794 76.5422 71.9794C76.5422 71.9794 76.7419 72.7099 77.0619 73.1261C77.3782 73.5403 77.5779 73.7919 77.5779 73.7919C77.5779 73.7919 75.8708 73.6125 75.2679 72.8653ZM82.0536 82.2439C82.1683 81.0695 81.4359 80.0227 80.6776 79.098C81.1862 78.7854 81.7595 78.5061 82.3292 78.4081C82.5936 78.36 82.8692 78.3286 83.1411 78.3064C83.3815 79.7046 83.043 81.2248 82.0536 82.2439Z" fill="#233F94"/>
<path d="M82.0537 82.2436C82.1684 81.0692 81.436 80.0224 80.6777 79.0977C81.1863 78.7852 81.7597 78.5059 82.3293 78.4079C82.5938 78.3598 82.8693 78.3283 83.1412 78.3062C83.3816 79.7043 83.0432 81.2246 82.0537 82.2436Z" fill="#B4B4B4"/>
<path d="M77.5784 73.7919C77.5784 73.7919 75.8695 73.6106 75.2666 72.8634C75.2666 72.8634 75.5385 72.4455 75.8177 72.2605C76.097 72.0793 76.5409 71.9775 76.5409 71.9775C76.5409 71.9775 76.7406 72.7099 77.0606 73.1242C77.3768 73.5385 77.5766 73.7919 77.5766 73.7919H77.5784Z" fill="#233F94"/>
<path d="M75.044 75.7043C75.044 75.7043 73.7086 75.9872 72.8838 75.6432C72.8838 75.6432 72.9171 75.3418 73.1483 75.0699C73.3776 74.798 73.6162 74.6704 73.6162 74.6704C73.6162 74.6704 73.9028 75.2068 74.269 75.3899C74.6315 75.5748 75.0458 75.7024 75.0458 75.7024L75.044 75.7043Z" fill="#233F94"/>
<path d="M75.044 75.7043C75.044 75.7043 73.7086 75.9872 72.8838 75.6432C72.8838 75.6432 72.9171 75.3418 73.1483 75.0699C73.3776 74.798 73.6162 74.6704 73.6162 74.6704C73.6162 74.6704 73.9028 75.2068 74.269 75.3899C74.6315 75.5748 75.0458 75.7024 75.0458 75.7024L75.044 75.7043Z" fill="#233F94"/>
<path d="M75.044 75.7043C75.044 75.7043 73.7086 75.9872 72.8838 75.6432C72.8838 75.6432 72.9171 75.3418 73.1483 75.0699C73.3776 74.798 73.6162 74.6704 73.6162 74.6704C73.6162 74.6704 73.9028 75.2068 74.269 75.3899C74.6315 75.5748 75.0458 75.7024 75.0458 75.7024L75.044 75.7043Z" fill="#B4B4B4"/>
<path d="M77.5784 73.7919C77.5784 73.7919 75.8695 73.6106 75.2666 72.8634C75.2666 72.8634 75.5385 72.4455 75.8177 72.2605C76.097 72.0793 76.5409 71.9775 76.5409 71.9775C76.5409 71.9775 76.7406 72.7099 77.0606 73.1242C77.3768 73.5385 77.5766 73.7919 77.5766 73.7919H77.5784Z" fill="#B4B4B4"/>
<path d="M101.696 75.0866L101.436 75.2068C101.334 75.2531 101.23 75.2993 101.129 75.3456C100.992 75.4084 100.855 75.4695 100.72 75.5305C100.711 75.5342 100.699 75.5379 100.69 75.5435C100.592 75.5878 100.498 75.6304 100.404 75.6729C100.302 75.7173 100.202 75.7635 100.106 75.8079C99.9393 75.8819 99.7858 75.9503 99.6471 76.0132C99.6046 76.0317 99.5639 76.0502 99.525 76.0687C99.3678 76.139 99.2384 76.1963 99.1459 76.237C99.12 76.2518 99.0867 76.2666 99.0479 76.2777L98.9998 76.2999L98.9462 76.3165L98.7927 76.3683C98.7168 76.385 98.6428 76.4016 98.5652 76.4145C98.5374 76.4201 98.5097 76.4256 98.4819 76.4293C98.4154 76.4404 98.3469 76.4515 98.2767 76.4589C98.1897 76.47 98.1009 76.4793 98.0122 76.4867C97.9234 76.4941 97.8328 76.4978 97.7422 76.5015C97.7422 76.5015 97.7422 76.5033 97.7403 76.5015C97.6608 76.5052 97.5794 76.507 97.498 76.507C97.4555 76.507 97.4111 76.507 97.3686 76.5052C97.326 76.5052 97.2816 76.5033 97.2391 76.5015C97.1096 76.4978 96.9802 76.4904 96.8544 76.4793C96.8119 76.4756 96.7712 76.4719 96.7287 76.4682C96.6972 76.4663 96.6639 76.4626 96.6325 76.4589C96.5826 76.4534 96.5326 76.4478 96.4827 76.4423C96.4734 76.4404 96.4623 76.4404 96.4531 76.4386C96.3495 76.4256 96.2478 76.4108 96.1479 76.396C96.1035 76.3887 96.0592 76.3831 96.0166 76.3757C95.9056 76.3572 95.8002 76.3387 95.6985 76.3184C95.6319 76.3054 95.5672 76.2925 95.5062 76.2814C95.2269 76.2222 95.0068 76.1649 94.8736 76.1297C94.8589 76.126 94.8441 76.1223 94.833 76.1186C94.7682 76.1001 94.7331 76.089 94.7312 76.089L93.4514 75.7062L93.0242 75.5767L94.7701 75.1958C94.8995 75.1662 95.5672 75.0108 96.1553 74.7741C96.5622 74.6039 96.8526 74.2192 97.1318 73.8493L97.1984 73.7587C97.2262 73.7217 97.2521 73.6866 97.2798 73.6496H97.2816C97.3538 73.5497 97.4259 73.4499 97.498 73.35C97.511 73.3315 97.5239 73.313 97.5369 73.2945C97.6219 73.1761 97.7052 73.0559 97.7865 72.9339L97.9012 72.76L97.916 72.7378C97.9234 72.7267 97.9308 72.7156 97.9382 72.7045C98.0954 72.4567 98.2656 72.1996 98.4967 71.9758C98.5263 71.9463 98.5596 71.9167 98.5948 71.8852C98.6521 71.8353 98.715 71.7816 98.7834 71.7317C98.8056 71.7151 98.8278 71.6984 98.8518 71.6799C98.8722 71.667 98.8925 71.6522 98.9147 71.6374C98.9203 71.6337 98.9258 71.63 98.9314 71.6263C98.9554 71.6115 98.9794 71.5967 99.0035 71.5819C99.0479 71.556 99.0923 71.5301 99.1385 71.5061C99.1718 71.4876 99.2069 71.4709 99.2421 71.4561C99.2569 71.4487 99.2717 71.4414 99.2883 71.4358C99.3197 71.421 99.353 71.4081 99.3863 71.397C99.4307 71.3803 99.477 71.3655 99.525 71.3526C99.525 71.3526 100.102 71.2213 100.178 71.2065C100.091 71.2361 99.9208 71.5301 99.869 71.5986C99.7248 71.7872 99.5898 71.9795 99.4622 72.1793C99.4548 72.1904 99.4492 72.1996 99.4437 72.2107C99.3882 72.3014 99.3308 72.3901 99.2772 72.4826C99.1958 72.6195 99.1163 72.76 99.0423 72.9006C99.0164 72.9487 98.9924 72.9967 98.9702 73.043C98.9462 73.0911 98.924 73.1392 98.9018 73.1891C98.8777 73.2372 98.8574 73.2853 98.837 73.3352C98.8019 73.4184 98.7686 73.5016 98.739 73.5886C98.7187 73.6459 98.7002 73.7069 98.6817 73.7661C98.6281 73.9511 98.6022 74.0916 98.5948 74.2229L98.5911 74.271C98.6539 74.3506 98.7224 74.4338 98.7871 74.5244C98.8574 74.6261 98.9221 74.7389 98.9831 74.8518C99.0516 74.8185 99.1182 74.7852 99.1847 74.75C99.2513 74.7167 99.3142 74.6835 99.3789 74.6502C99.3808 74.6483 99.3808 74.6465 99.3826 74.6465C99.4455 74.6132 99.5065 74.578 99.5676 74.5429C99.6286 74.5078 99.6896 74.4726 99.7488 74.4375C100.4 74.0528 100.916 73.6478 101.317 73.276C101.371 73.2261 101.424 73.1761 101.474 73.1262C101.51 73.0929 101.545 73.0578 101.576 73.0263C101.596 73.006 101.615 72.9857 101.633 72.9672C101.659 72.9413 101.683 72.9154 101.707 72.8895C101.924 72.6601 102.092 72.453 102.214 72.2884L102.475 71.937C102.418 71.7613 102.334 71.5912 102.225 71.4358C101.593 70.5129 100.337 70.1726 99.2458 70.4482C99.0664 70.4981 98.8925 70.561 98.7261 70.6405L98.715 70.6627C98.6521 70.7607 98.5874 70.8569 98.5226 70.9512C98.4708 71.0308 98.4172 71.1084 98.3636 71.1861C98.3099 71.2657 98.2545 71.3433 98.199 71.4192C98.1379 71.5042 98.0788 71.5856 98.0196 71.6651C97.9123 71.8094 97.8087 71.9463 97.7089 72.072C97.6756 72.1146 97.6441 72.1552 97.6108 72.1941C97.5313 72.2976 97.4555 72.392 97.3834 72.4771C97.3408 72.5307 97.2983 72.5806 97.2576 72.6287C97.2243 72.6675 97.1929 72.7045 97.1633 72.7397C97.0412 72.8839 96.945 72.993 96.8859 73.0578L96.7693 73.1817C96.7324 73.2205 96.6935 73.2575 96.6528 73.2927C96.5567 73.3796 96.4531 73.461 96.344 73.5368C96.3125 73.5608 96.2774 73.583 96.2441 73.6052C96.037 73.7384 95.8132 73.8567 95.5801 73.9603C95.4914 73.9992 95.4026 74.0361 95.312 74.0694C95.2879 74.0805 95.2639 74.0898 95.2398 74.0972C95.0105 74.1841 94.7775 74.2562 94.5481 74.3191C94.5038 74.3321 94.4594 74.3432 94.415 74.3543C94.3188 74.3801 94.2208 74.4023 94.1246 74.4245C94.0839 74.4338 94.0432 74.443 94.0044 74.4504C93.9767 74.4578 93.9489 74.4634 93.9193 74.4689C93.8694 74.48 93.8213 74.4893 93.7732 74.4985C93.5476 74.541 93.3349 74.5743 93.1481 74.6002H93.1463C92.9632 74.6261 92.8041 74.6428 92.6802 74.6539C92.6488 74.6576 92.6192 74.6613 92.5933 74.6631C92.5859 74.6631 92.5803 74.6631 92.5748 74.665C92.5563 74.6668 92.5396 74.6668 92.523 74.6687C92.4897 74.6687 92.4638 74.6724 92.4435 74.6742C92.4361 74.6761 92.4305 74.6761 92.425 74.6761L91.5428 74.7278L92.1235 74.0602C92.1235 74.0602 92.4971 73.6311 93.0963 72.9228C93.5605 72.3753 93.9193 71.3988 94.01 71.1417C94.0358 71.0696 93.9637 70.8939 93.9526 70.8218C93.9304 70.7053 93.923 70.5998 93.9267 70.4778C93.9323 70.3576 93.9452 70.2355 93.9656 70.1153C93.973 70.0728 93.9822 70.0284 93.9915 69.9858C93.9952 69.9618 94.0007 69.9396 94.0081 69.9174C94.0174 69.873 94.0303 69.8286 94.0432 69.7842C94.1746 69.3274 94.4131 68.9057 94.7405 68.5673C94.9032 68.3971 95.0845 68.2492 95.2768 68.1142C95.4562 67.9829 95.6689 67.8016 95.8798 67.7258C95.8724 67.9107 95.7466 68.1475 95.6874 68.3287C95.6375 68.4767 95.5894 68.6191 95.5432 68.767C95.5302 68.8059 95.5154 68.8762 95.4969 68.9723C95.4895 69.0149 95.4821 69.0611 95.4747 69.1129C95.4747 69.1203 95.471 69.1258 95.471 69.1332C95.4581 69.2109 95.447 69.3015 95.4359 69.3977C95.4285 69.468 95.4211 69.542 95.4137 69.6196C95.4044 69.7362 95.3952 69.8601 95.3896 69.9877C95.3841 70.0728 95.3823 70.1615 95.3823 70.2521C95.3823 70.2928 95.3823 70.3354 95.3823 70.3798C95.3823 70.4352 95.3823 70.4926 95.386 70.5481C95.386 70.5851 95.3878 70.622 95.3915 70.659C95.3933 70.7219 95.397 70.7848 95.4026 70.8477C95.4044 70.8865 95.4063 70.9272 95.4118 70.966C95.4174 71.0382 95.4266 71.1103 95.4359 71.1806C95.6023 71.262 95.7484 71.3489 95.8742 71.4358C95.9833 71.5153 96.0924 71.6171 96.209 71.7373C96.3662 71.5542 96.5178 71.3563 96.6639 71.1454C96.688 71.1121 96.712 71.077 96.7361 71.0419C96.8618 70.8551 96.9839 70.659 97.1022 70.45C97.1485 70.3724 97.1929 70.2928 97.2354 70.2115L97.2742 70.1393C97.3168 70.0617 97.3556 69.984 97.3963 69.9045C97.4259 69.8434 97.4573 69.7805 97.4869 69.7177C97.5165 69.6566 97.5461 69.5937 97.5757 69.5309C97.6719 69.3219 97.7644 69.1055 97.855 68.8799C97.8957 68.7763 97.9364 68.6709 97.977 68.5636L98.0529 68.3602C97.5591 67.5482 96.7712 66.9675 95.8317 66.9712C94.8182 66.9786 93.8971 67.6574 93.3552 68.5174C93.2942 68.6098 93.2387 68.706 93.1869 68.8022C93.1666 68.8392 93.1463 68.8762 93.1278 68.9131C93.0926 68.9779 93.0612 69.0445 93.0316 69.111C93.0149 69.148 92.9983 69.1869 92.9817 69.2238C92.9188 69.37 92.8614 69.5198 92.8115 69.6733C92.7653 69.8064 92.7246 69.9414 92.6876 70.0783C92.6857 70.0839 92.6839 70.0875 92.6839 70.0931C92.6506 70.2115 92.621 70.3298 92.5933 70.45C92.5785 70.5111 92.5655 70.574 92.5526 70.6368C92.5396 70.6997 92.5267 70.7626 92.5137 70.8255C92.4915 70.9401 92.4694 71.0548 92.449 71.1695C92.4361 71.2435 92.425 71.3174 92.412 71.3914C92.388 71.5486 92.3639 71.7058 92.3325 71.8612C92.3251 71.8982 92.3177 71.937 92.3085 71.9758C92.2844 72.0905 92.2548 72.2052 92.216 72.3161C92.216 72.318 92.216 72.318 92.216 72.318C92.1956 72.3864 92.1697 72.4549 92.1402 72.5214L92.1069 72.5936C92.0884 72.6343 92.068 72.6749 92.0458 72.7138C92.0051 72.7859 91.9589 72.8562 91.909 72.9209C91.8868 72.9524 91.8627 72.982 91.8387 73.0115C91.8183 73.0356 91.798 73.0596 91.7795 73.0818C91.6057 73.276 91.4022 73.4462 91.1951 73.6126C91.1932 73.6126 91.1932 73.6145 91.1932 73.6145C91.0804 73.7032 90.9657 73.7902 90.8548 73.8789C90.766 73.9492 90.6772 74.0213 90.5885 74.0953C90.5829 74.1009 90.5774 74.1046 90.5718 74.1101C90.5089 74.1638 90.446 74.2174 90.3832 74.2729C90.348 74.3062 90.311 74.3376 90.2759 74.3709C90.1779 74.4578 90.0817 74.5503 89.9874 74.6446C89.9411 74.689 89.8949 74.7352 89.8505 74.7815C89.8246 74.8055 89.8006 74.8314 89.7765 74.8591C89.7155 74.922 89.6545 74.9868 89.5971 75.0533C89.4862 75.1736 89.3808 75.2993 89.2809 75.4269C89.2421 75.4732 89.2051 75.5194 89.1699 75.5675C89.1459 75.5971 89.1237 75.6267 89.1015 75.6581C89.0479 75.7284 88.9979 75.7987 88.9498 75.8708C88.9406 75.8819 88.9313 75.8948 88.9239 75.9059C88.9202 75.9115 88.9165 75.917 88.9128 75.9226C88.8722 75.9818 88.8333 76.0428 88.7945 76.1038C88.7945 76.1038 88.7889 76.1131 88.7871 76.1168C88.7834 76.1186 88.7815 76.1223 88.7815 76.126C88.7741 76.1353 88.7686 76.1445 88.763 76.1556C88.7279 76.2111 88.6946 76.2666 88.6613 76.3221C88.6336 76.3683 88.6077 76.4164 88.5818 76.4645C88.5263 76.5625 88.4745 76.6605 88.4264 76.7622C88.4227 76.7659 88.4209 76.7715 88.419 76.7752C88.4061 76.8011 88.3931 76.827 88.3821 76.8547C88.3525 76.9139 88.3247 76.9749 88.2988 77.036C88.5467 77.073 88.8148 77.1266 89.1015 77.1987C89.1736 77.2154 89.2458 77.2339 89.316 77.2542C89.3253 77.2561 89.3345 77.2579 89.3438 77.2616H89.3456C89.4325 77.2856 89.5158 77.3097 89.599 77.3374C89.6119 77.3393 89.623 77.343 89.636 77.3485C89.7063 77.3707 89.7765 77.3929 89.845 77.4188C89.8746 77.4262 89.9042 77.4373 89.9319 77.4502C89.9818 77.4669 90.0318 77.4854 90.0817 77.5057C90.1261 77.5224 90.1705 77.5409 90.2149 77.5594C90.2574 77.576 90.2999 77.5927 90.3406 77.613C90.3924 77.6333 90.4442 77.6574 90.496 77.6814C90.6883 77.7702 90.8696 77.8627 91.0416 77.9607C91.1174 78.0032 91.1932 78.0476 91.2654 78.092C91.3171 78.0365 91.3708 77.9829 91.4226 77.9293C91.4485 77.9015 91.4762 77.8738 91.5039 77.8479C91.5113 77.8405 91.5187 77.8312 91.528 77.8238C91.565 77.7868 91.602 77.7499 91.6408 77.7147C91.6574 77.6999 91.6741 77.6833 91.6907 77.6666C91.8405 77.5279 91.994 77.3948 92.1531 77.2708C92.2178 77.2191 92.2844 77.171 92.351 77.1229C92.4416 77.0582 92.5322 76.999 92.6247 76.9435C92.6303 76.9398 92.634 76.9361 92.6395 76.9324H92.6414C92.7579 76.8603 92.8781 76.7974 93.0001 76.7401C93.0297 76.7253 93.0575 76.7123 93.0871 76.6994C93.1222 76.6846 93.1574 76.6698 93.1943 76.6568C93.2276 76.6439 93.2591 76.6309 93.2924 76.6198C93.3035 76.6143 93.3146 76.6106 93.3257 76.6087C93.3515 76.5995 93.3756 76.5902 93.4015 76.5828C93.4995 76.5514 93.5994 76.5255 93.7011 76.5052C93.7973 76.4867 93.8971 76.4719 93.997 76.4645C94.1098 76.4534 94.2226 76.4497 94.3392 76.4552C94.4538 76.4589 94.5666 76.4719 94.6795 76.4904C94.722 76.4959 94.7627 76.5033 94.8052 76.5126C94.8126 76.5126 94.8182 76.5144 94.8256 76.5181C94.8718 76.5255 94.918 76.5348 94.9643 76.5459C95.2694 76.618 95.5672 76.7197 95.8687 76.8103C95.9093 76.8233 95.9482 76.8344 95.987 76.8455C96.0592 76.8677 96.1313 76.8862 96.2034 76.9065C96.3421 76.9416 96.4808 76.9712 96.6214 76.9934C96.651 76.9971 96.6806 77.0008 96.7102 77.0045C96.7508 77.0101 96.7915 77.0138 96.8322 77.0175C96.9598 77.0249 97.1023 77.0323 97.2243 77.0693H97.228C97.2816 77.0767 97.339 77.0878 97.4 77.0988C97.4573 77.1081 97.5184 77.121 97.5813 77.1358C97.7126 77.1673 97.8513 77.2061 97.9937 77.2561C98.0251 77.2653 98.0566 77.2782 98.088 77.2912C98.1398 77.3097 98.1916 77.3319 98.2434 77.3559C98.2914 77.3763 98.3395 77.4003 98.3876 77.4244C98.4413 77.4521 98.4949 77.4817 98.5467 77.515C98.5504 77.515 98.5541 77.5187 98.5578 77.5205C98.5615 77.5224 98.5652 77.5242 98.5689 77.5279C98.6022 77.5483 98.6336 77.5686 98.665 77.5908C98.7113 77.6222 98.7557 77.6574 98.8 77.6925C98.8851 77.761 98.9665 77.8368 99.046 77.9163C99.0719 77.9403 99.096 77.9662 99.12 77.994C99.2125 78.092 99.3013 78.1974 99.3826 78.3084C99.4178 78.3546 99.4529 78.4046 99.4862 78.4545C99.5195 78.5044 99.5528 78.5544 99.5842 78.608C99.6175 78.6598 99.6489 78.7134 99.6785 78.7671C99.6952 78.7948 99.71 78.8207 99.7229 78.8466C99.8006 78.841 99.8764 78.8355 99.9541 78.8299C100.013 78.8262 100.074 78.8207 100.134 78.8151C100.224 78.8077 100.313 78.7985 100.402 78.7874C100.561 78.7671 100.72 78.743 100.877 78.7079C100.953 78.6912 101.027 78.6727 101.103 78.6524C101.14 78.6431 101.177 78.632 101.214 78.6191C101.243 78.6099 101.273 78.6006 101.302 78.5914C101.384 78.5636 101.463 78.5322 101.541 78.4989C101.558 78.4915 101.572 78.4841 101.589 78.4767C101.62 78.4619 101.652 78.4471 101.683 78.4305C101.711 78.4175 101.737 78.4027 101.765 78.3879C101.802 78.3676 101.837 78.3472 101.872 78.3232C101.889 78.3139 101.903 78.3047 101.918 78.2936C101.97 78.2603 102.02 78.2252 102.068 78.1863C102.138 78.1327 102.205 78.0754 102.266 78.0143C102.294 77.9866 102.32 77.9607 102.344 77.933C102.377 77.8978 102.408 77.8608 102.436 77.8238C102.462 77.7924 102.484 77.761 102.506 77.7295C102.525 77.7036 102.541 77.6759 102.556 77.65C102.625 77.5427 102.678 77.4299 102.717 77.3097C102.728 77.2745 102.738 77.2394 102.747 77.2043C102.752 77.1858 102.758 77.1654 102.762 77.1469C102.769 77.1155 102.775 77.0841 102.778 77.0508C102.884 76.2666 102.351 75.5841 101.7 75.0866H101.696ZM96.3958 79.222C96.4956 79.1222 96.5899 79.0186 96.6769 78.9113C96.5862 79.0186 96.4919 79.1222 96.3958 79.222ZM88.9924 82.1738L88.9554 82.1997C88.9683 82.2144 88.9813 82.2292 88.9961 82.244C88.9942 82.22 88.9924 82.196 88.9924 82.1738ZM95.2361 72.2625C94.9569 72.0813 94.5093 71.9795 94.5093 71.9795C94.5093 71.9795 94.4705 72.122 94.4002 72.318C94.365 72.416 94.3207 72.5288 94.2689 72.6435C94.1912 72.8137 94.0987 72.9875 93.9915 73.1262C93.6715 73.5405 93.4718 73.792 93.4718 73.792C93.4718 73.792 95.1807 73.6126 95.7836 72.8654C95.7836 72.8654 95.5154 72.4475 95.2361 72.2625ZM97.9031 75.0718C97.6756 74.8 97.4351 74.6724 97.4351 74.6724C97.4351 74.6724 97.1485 75.2068 96.786 75.3918C96.4198 75.5767 96.0055 75.7044 96.0055 75.7044C96.0055 75.7044 97.3408 75.9873 98.1694 75.6452C98.1694 75.6452 98.1324 75.3419 97.9031 75.0718Z" fill="#233F94"/>
<path d="M95.4698 69.1331C95.4569 69.2107 95.4458 69.3014 95.4347 69.3975C95.4458 69.3014 95.4569 69.2126 95.4698 69.1331ZM95.4125 69.6195C95.4014 69.736 95.3921 69.8581 95.3885 69.9875C95.394 69.8599 95.4032 69.736 95.4125 69.6195ZM103.84 75.6136C103.704 75.3177 103.519 75.0291 103.287 74.7573C103.4 74.5927 103.498 74.4188 103.58 74.2357C103.728 73.9195 103.828 73.581 103.881 73.2315C103.916 72.991 103.929 72.7451 103.918 72.4991C103.909 72.2087 103.865 71.9239 103.785 71.652C103.698 71.3469 103.567 71.0584 103.397 70.792C103.371 70.7513 103.345 70.7125 103.317 70.6737C102.609 69.6417 101.368 69.0221 100.003 69.0221C99.9363 69.0221 99.8604 69.0221 99.7809 69.0258C99.7273 68.8261 99.6607 68.6263 99.5812 68.4229C98.8802 66.7029 97.4469 65.6357 95.8397 65.6357C94.4489 65.645 93.0618 66.4735 92.2203 67.8015C91.5416 68.8464 91.2771 70.0375 91.0884 71.1675C91.033 71.5337 90.9793 71.874 90.8739 72.07C90.7722 72.2383 90.5003 72.4547 90.2377 72.6655L90.0176 72.8357C88.7137 73.864 87.7317 75.0624 87.1417 76.3367C87.0492 76.5328 86.9679 76.7306 86.8957 76.9304C86.8476 77.0654 86.8014 77.206 86.757 77.3595C86.6923 77.5555 86.6442 77.7867 86.6017 78.0123C86.561 78.238 86.5314 78.4636 86.5166 78.6874C86.4186 79.9672 86.7015 81.2063 87.3137 82.2254C87.5171 82.5694 87.7613 82.8875 88.0387 83.1742L88.2754 83.4183L90.6853 85.9114L90.4356 83.2851L90.3487 82.3752L90.3246 82.1144C90.2932 81.7852 90.4116 81.4301 90.6113 81.0639C90.7574 80.7976 90.9479 80.5239 91.1569 80.252C91.2549 80.1263 91.3566 80.0005 91.4583 79.8747C91.4861 79.8562 91.5638 79.7656 91.6396 79.6787C91.7154 79.5844 91.7949 79.4937 91.8782 79.3994L91.9873 79.2755C92.3128 78.913 92.6106 78.6208 92.8843 78.3952C93.3873 77.9846 93.8164 77.7941 94.2196 77.7941H94.2991C94.4952 77.7996 94.73 77.8588 94.9927 77.9402C95.0703 77.9642 95.1499 77.9901 95.2331 78.016C95.2331 78.016 95.5013 78.0992 95.5956 78.1251C95.4624 78.2749 95.2091 78.3989 94.9353 78.5117C94.5728 78.6596 94.1715 78.7909 93.9477 78.9444L92.5662 80.7865L92.3794 81.0362L92.2055 81.2692L91.8541 81.7371L93.3836 81.6317L95.381 81.493C96.5536 81.4153 97.6429 81.1878 98.6324 80.8143C99.0245 80.6681 99.4018 80.498 99.7624 80.3057C99.8493 80.2594 99.927 80.215 100.01 80.1651C100.058 80.1614 100.106 80.1577 100.156 80.154C100.462 80.13 100.776 80.093 101.094 80.0282C101.403 79.9654 101.715 79.8747 102.028 79.7434C102.043 79.7379 102.059 79.7323 102.074 79.7249C102.857 79.3865 103.474 78.8076 103.818 78.1214C103.963 77.8385 104.059 77.537 104.101 77.2282C104.172 76.6826 104.081 76.1351 103.84 75.6136ZM88.9967 82.2439C88.9819 82.2291 88.969 82.2143 88.956 82.1995C88.7452 81.9757 88.5658 81.7297 88.416 81.4653C87.9795 80.6977 87.7964 79.786 87.8482 78.8908C87.8593 78.6948 87.8815 78.4987 87.9148 78.3064C88.1903 78.3286 88.4604 78.36 88.7211 78.4081C89.2945 78.5061 89.8678 78.7854 90.3764 79.0943C90.2525 79.2478 90.1286 79.4031 90.0065 79.5622C89.6866 79.9894 89.3943 80.4425 89.2057 80.9197C89.0466 81.3192 88.9616 81.7371 88.993 82.1736C88.993 82.1958 88.9949 82.2198 88.9967 82.2439ZM97.9758 79.6306C97.8704 79.6676 97.7632 79.7027 97.654 79.736C97.5449 79.7693 97.4358 79.8007 97.3248 79.8303C97.2157 79.8599 97.1047 79.8877 96.9938 79.9117C96.8976 79.9358 96.8014 79.9561 96.7053 79.9746C96.6664 79.982 96.6276 79.9894 96.5869 79.9949C96.4981 80.0134 96.4075 80.0282 96.3187 80.0412C96.2059 80.0597 96.0931 80.0763 95.9803 80.0893C95.8656 80.1041 95.7528 80.117 95.6381 80.1263C95.5253 80.1374 95.4106 80.1466 95.2978 80.154C95.3736 80.1022 95.4476 80.0504 95.5198 79.9949C95.553 79.9709 95.5845 79.945 95.6178 79.9191C95.6585 79.8895 95.6992 79.8581 95.738 79.8248C95.7768 79.7952 95.8157 79.7638 95.8527 79.7305C95.9118 79.6824 95.971 79.6306 96.0284 79.5788C96.0801 79.5326 96.1301 79.4845 96.18 79.4364C96.193 79.4272 96.2041 79.4161 96.217 79.4031C96.2632 79.3569 96.3095 79.3125 96.3539 79.2663C96.3687 79.2515 96.3835 79.2367 96.3964 79.2219C96.4926 79.122 96.5869 79.0184 96.6775 78.9112H96.6794C96.7108 78.876 96.7404 78.8427 96.7681 78.8076C96.8329 78.7299 96.8939 78.6522 96.9531 78.5727C97.0197 78.4858 97.0844 78.397 97.1454 78.3064C97.2804 78.3471 97.4173 78.4007 97.5449 78.458C97.654 78.5061 97.7595 78.5635 97.8612 78.6263C98.0461 78.7429 98.1978 78.8908 98.3254 79.0499C98.416 79.1627 98.4955 79.2792 98.5621 79.3994C98.4567 79.4457 98.3513 79.49 98.244 79.5307C98.1571 79.5659 98.0683 79.5973 97.9795 79.6288C97.9795 79.6306 97.9777 79.6306 97.9758 79.6306ZM102.714 77.3095C102.675 77.4297 102.622 77.5426 102.553 77.6498C102.538 77.6776 102.522 77.7035 102.503 77.7294C102.483 77.7608 102.459 77.7922 102.433 77.8237C102.405 77.8607 102.374 77.8977 102.341 77.9328C102.317 77.9605 102.291 77.9864 102.263 78.0142C102.202 78.0752 102.135 78.1325 102.065 78.1862C102.017 78.225 101.967 78.2602 101.915 78.2934C101.9 78.3045 101.886 78.3138 101.869 78.323C101.834 78.3452 101.797 78.3674 101.762 78.3878C101.734 78.4026 101.708 78.4174 101.68 78.4303C101.649 78.4469 101.617 78.4617 101.586 78.4765C101.569 78.4839 101.555 78.4913 101.538 78.4987C101.46 78.532 101.381 78.5635 101.299 78.5912C101.27 78.6005 101.24 78.6115 101.211 78.6189C101.174 78.6319 101.137 78.643 101.1 78.6522C101.026 78.6744 100.95 78.6929 100.874 78.7077C100.717 78.7429 100.558 78.7669 100.399 78.7872C100.31 78.7983 100.221 78.8076 100.13 78.815C100.069 78.8205 100.01 78.8261 99.9511 78.8298C99.8734 78.8353 99.7957 78.8409 99.7199 78.8464C99.7069 78.8205 99.6921 78.7946 99.6755 78.7688C99.6441 78.7133 99.6145 78.6596 99.5812 78.6079C99.5497 78.5542 99.5164 78.5043 99.4831 78.4543C99.4499 78.4044 99.4147 78.3545 99.3796 78.3082C99.2982 78.1973 99.2094 78.0919 99.117 77.9938C99.0929 77.9661 99.0689 77.9402 99.043 77.9161C98.9634 77.8366 98.8821 77.7608 98.797 77.6924C98.7526 77.6572 98.7082 77.6221 98.662 77.5906C98.6305 77.5685 98.5991 77.5481 98.5658 77.5278C98.5621 77.5241 98.5584 77.5222 98.5547 77.5204C98.551 77.5185 98.5473 77.5148 98.5436 77.5148C98.4918 77.4815 98.4382 77.4519 98.3846 77.4242C98.3365 77.4002 98.2884 77.3761 98.2403 77.3558C98.1885 77.3317 98.1367 77.3095 98.085 77.291C98.0535 77.2781 98.0221 77.267 97.9906 77.2559C97.8482 77.206 97.7095 77.1671 97.5782 77.1357C97.5153 77.1209 97.4543 77.1079 97.397 77.0987C97.3359 77.0876 97.2786 77.0765 97.225 77.0691H97.2213C97.0992 77.0321 96.9568 77.0247 96.8292 77.0173C96.7885 77.0136 96.7478 77.0099 96.7071 77.0044C96.6775 77.0007 96.6479 76.997 96.6183 76.9933C96.4778 76.9711 96.3391 76.9415 96.2004 76.9063C96.1282 76.886 96.0561 76.8675 95.984 76.8453C95.9451 76.8342 95.9063 76.8231 95.8656 76.8102C95.5641 76.7196 95.2664 76.6178 94.9612 76.5457C94.915 76.5365 94.8687 76.5254 94.8225 76.518C94.8151 76.5143 94.8096 76.5124 94.8022 76.5124C94.7596 76.5032 94.7189 76.4958 94.6764 76.4902C94.5636 76.4717 94.4508 76.4588 94.3361 76.4551C94.2196 76.4495 94.1068 76.4532 93.994 76.4643C93.8941 76.4717 93.7942 76.4865 93.698 76.505C93.5963 76.5254 93.4964 76.5513 93.3984 76.5827C93.3725 76.5901 93.3485 76.5993 93.3226 76.6086C93.3115 76.6104 93.3004 76.6141 93.2893 76.6197C93.256 76.6308 93.2227 76.6437 93.1913 76.6567C93.1543 76.6696 93.1192 76.6844 93.084 76.6992C93.0544 76.7122 93.0267 76.7269 92.9971 76.7399C92.875 76.7972 92.7548 76.8601 92.6383 76.9322H92.6364C92.6364 76.9322 92.6272 76.9396 92.6217 76.9433C92.5292 76.9988 92.4386 77.058 92.3479 77.1227C92.2814 77.1708 92.2148 77.2189 92.15 77.2707C91.991 77.3946 91.8375 77.5278 91.6877 77.6665C91.671 77.6831 91.6544 77.6998 91.6377 77.7146C91.5989 77.7497 91.5619 77.7867 91.5249 77.8237C91.5157 77.8311 91.5083 77.8403 91.5009 77.8477L91.4195 77.9291C91.3677 77.9827 91.3141 78.0364 91.2623 78.0919C91.1902 78.0475 91.1143 78.0031 91.0385 77.9605C90.8665 77.8625 90.6853 77.77 90.4929 77.6813C90.443 77.6572 90.3912 77.6332 90.3376 77.6128C90.2969 77.5925 90.2543 77.5759 90.2118 77.5592C90.1693 77.5389 90.1249 77.5222 90.0786 77.5056C90.0287 77.4852 89.9788 77.4667 89.9288 77.4501C89.9011 77.4371 89.8715 77.426 89.8419 77.4186C89.7735 77.3928 89.7032 77.3706 89.6329 77.3484C89.62 77.3428 89.6089 77.3391 89.5959 77.3373C89.5127 77.3095 89.4295 77.2855 89.3426 77.2614H89.3407C89.3407 77.2614 89.3222 77.2559 89.313 77.254C89.2427 77.2337 89.1706 77.2152 89.0984 77.1986C88.8118 77.1264 88.5436 77.0728 88.2958 77.0358C88.3235 76.9748 88.3494 76.9137 88.379 76.8546C88.3901 76.8268 88.403 76.8009 88.416 76.775C88.4178 76.7713 88.4197 76.7658 88.4234 76.7621C88.4715 76.6604 88.5232 76.5624 88.5787 76.4643C88.6046 76.4162 88.6305 76.3682 88.6583 76.3219C88.6897 76.2664 88.7248 76.2109 88.76 76.1555C88.7655 76.1444 88.7711 76.1351 88.7785 76.1259C88.7785 76.1222 88.7803 76.1185 88.784 76.1166C88.7859 76.1129 88.7877 76.1092 88.7914 76.1055C88.8303 76.0427 88.8691 75.9835 88.9098 75.9224C88.9135 75.9169 88.9172 75.9113 88.9209 75.9058C88.9283 75.8947 88.9375 75.8817 88.9468 75.8706C88.9949 75.7985 89.0448 75.7282 89.0984 75.658C89.1206 75.6265 89.1428 75.5969 89.1669 75.5673C89.202 75.5193 89.239 75.473 89.2778 75.4268C89.3777 75.2992 89.4831 75.1734 89.5941 75.0532C89.6514 74.9866 89.7125 74.9219 89.7735 74.859C89.7975 74.8313 89.8216 74.8054 89.8475 74.7813C89.8919 74.7351 89.9381 74.6888 89.9843 74.6445C90.0786 74.5501 90.1748 74.4577 90.2728 74.3707C90.308 74.3374 90.3431 74.306 90.3801 74.2727C90.443 74.2172 90.5059 74.1636 90.5688 74.11C90.5743 74.1044 90.5798 74.1007 90.5854 74.0952C90.6742 74.0212 90.7629 73.9491 90.8517 73.8788C90.9627 73.79 91.0774 73.7031 91.1902 73.6143C91.1902 73.6143 91.1902 73.6125 91.192 73.6125C91.3992 73.446 91.6026 73.2759 91.7764 73.0817C91.7949 73.0595 91.8153 73.0354 91.8356 73.0114C91.8597 72.9818 91.8837 72.9522 91.9059 72.9208C91.9558 72.856 92.0021 72.7858 92.0428 72.7136C92.065 72.6748 92.0853 72.6341 92.1038 72.5934L92.1371 72.5213C92.1667 72.4547 92.1926 72.3863 92.2129 72.3178C92.2129 72.3178 92.2129 72.3178 92.2129 72.316C92.2518 72.205 92.2813 72.0904 92.3054 71.9757C92.3146 71.9368 92.322 71.898 92.3294 71.861C92.3609 71.7057 92.3849 71.5485 92.409 71.3913C92.4219 71.3173 92.433 71.2433 92.446 71.1693C92.4663 71.0547 92.4885 70.94 92.5107 70.8253C92.5236 70.7624 92.5366 70.6996 92.5495 70.6367C92.5625 70.5738 92.5754 70.5109 92.5902 70.4499C92.618 70.3297 92.6475 70.2113 92.6808 70.0929C92.6808 70.0874 92.6827 70.0837 92.6845 70.0781C92.7215 69.9413 92.7622 69.8063 92.8084 69.6731C92.8584 69.5196 92.9157 69.3698 92.9786 69.2237C92.9952 69.1867 93.0119 69.1479 93.0285 69.1109C93.0581 69.0443 93.0896 68.9777 93.1247 68.913C93.1432 68.876 93.1635 68.839 93.1839 68.802C93.2357 68.7058 93.2912 68.6097 93.3522 68.5172C93.8941 67.6572 94.8151 66.9784 95.8286 66.9711C96.7681 66.9674 97.556 67.5481 98.0498 68.36L97.974 68.5634C97.9333 68.6707 97.8926 68.7761 97.8519 68.8797C97.7613 69.1053 97.6688 69.3217 97.5727 69.5307C97.5431 69.5936 97.5135 69.6565 97.4839 69.7175C97.4543 69.7804 97.4228 69.8433 97.3933 69.9043C97.3526 69.9838 97.3137 70.0615 97.2712 70.1392L97.2324 70.2113C97.1898 70.2927 97.1454 70.3722 97.0992 70.4499C96.9808 70.6589 96.8588 70.8549 96.733 71.0417C96.709 71.0769 96.6849 71.112 96.6609 71.1453C96.5148 71.3561 96.3631 71.554 96.2059 71.7371C96.0894 71.6169 95.9803 71.5152 95.8712 71.4356C95.7454 71.3487 95.5993 71.2618 95.4328 71.1804C95.4236 71.1101 95.4143 71.038 95.4088 70.9659C95.4032 70.927 95.4014 70.8882 95.3995 70.8475C95.394 70.7846 95.3903 70.7218 95.3885 70.6589C95.3848 70.6219 95.3829 70.5849 95.3829 70.5479C95.381 70.4906 95.3792 70.4351 95.3792 70.3796C95.3792 70.3352 95.3792 70.2927 95.3792 70.252C95.3792 70.1614 95.3811 70.0726 95.3866 69.9875C95.3921 69.8599 95.4014 69.736 95.4106 69.6195C95.418 69.5418 95.4254 69.4678 95.4328 69.3975C95.4439 69.3014 95.455 69.2126 95.468 69.1331C95.468 69.1257 95.4698 69.1201 95.4717 69.1127C95.4791 69.0609 95.4865 69.0147 95.4939 68.9722C95.5124 68.876 95.5272 68.8057 95.5401 68.7669C95.5863 68.6189 95.6344 68.4765 95.6844 68.3286C95.7435 68.1473 95.8693 67.9106 95.8767 67.7256C95.6659 67.8015 95.4532 67.9827 95.2738 68.114C95.0814 68.249 94.9002 68.397 94.7374 68.5671C94.4101 68.9056 94.1715 69.3273 94.0402 69.7841C94.0272 69.8285 94.0143 69.8729 94.005 69.9172C93.9995 69.9394 93.994 69.9635 93.9884 69.9857C93.9792 70.0282 93.9699 70.0726 93.9625 70.1151C93.9422 70.2353 93.9292 70.3574 93.9237 70.4776C93.92 70.5997 93.9274 70.7051 93.9496 70.8216C93.9607 70.8938 94.0328 71.0695 94.0069 71.1416C93.9163 71.3987 93.5575 72.3752 93.0933 72.9226C92.494 73.631 92.1204 74.06 92.1204 74.06L91.5397 74.7277L92.4219 74.6759C92.4219 74.6759 92.433 74.6759 92.4404 74.674C92.4607 74.6722 92.4866 74.6703 92.5199 74.6685C92.5347 74.6667 92.5532 74.6648 92.5717 74.6648C92.5773 74.663 92.5828 74.663 92.5902 74.663C92.618 74.6593 92.6457 74.6574 92.6771 74.6537C92.801 74.6426 92.9601 74.626 93.1432 74.6001H93.145C93.3318 74.5742 93.5445 74.5409 93.7702 74.4984C93.8183 74.4891 93.8663 74.4799 93.9163 74.4688C93.9459 74.4632 93.9736 74.4577 94.0014 74.4503C94.0402 74.4429 94.0809 74.4336 94.1216 74.4244C94.2177 74.4022 94.3158 74.38 94.4119 74.3541C94.4563 74.343 94.5007 74.3319 94.5451 74.319C94.7744 74.2561 95.0075 74.1839 95.2368 74.097C95.2608 74.0896 95.2849 74.0804 95.3089 74.0693C95.3995 74.036 95.4883 73.999 95.5771 73.9602C95.8101 73.8566 96.0339 73.7382 96.241 73.6051C96.2743 73.5829 96.3076 73.5607 96.3409 73.5366C96.45 73.4608 96.5536 73.3794 96.6498 73.2925C96.6905 73.2574 96.7293 73.2204 96.7663 73.1815L96.8828 73.0576C96.942 72.9929 97.0382 72.8838 97.1602 72.7395C97.1898 72.7044 97.2213 72.6674 97.2545 72.6285C97.2952 72.5805 97.3378 72.5305 97.3803 72.4769C97.4524 72.3918 97.5283 72.2975 97.6078 72.1958C97.6411 72.1551 97.6725 72.1144 97.7058 72.0719C97.8057 71.9461 97.9093 71.8092 98.0165 71.665C98.0757 71.5855 98.1349 71.5041 98.1959 71.419C98.2514 71.3432 98.3069 71.2655 98.3605 71.186C98.4142 71.1083 98.4678 71.0306 98.5196 70.9511C98.5843 70.8568 98.649 70.7606 98.7119 70.6626L98.723 70.6404C98.8895 70.5609 99.0633 70.498 99.2427 70.448C100.334 70.1725 101.59 70.5128 102.222 71.4356C102.331 71.591 102.415 71.7612 102.472 71.9369L102.211 72.2882C102.089 72.4528 101.921 72.66 101.704 72.8893C101.682 72.9152 101.656 72.9411 101.63 72.967C101.612 72.9855 101.593 73.0058 101.573 73.0262C101.542 73.0576 101.506 73.0928 101.471 73.1261C101.421 73.176 101.368 73.2259 101.314 73.2759C100.913 73.6476 100.397 74.0526 99.7458 74.4373C99.6866 74.4725 99.6256 74.5076 99.5645 74.5427C99.5035 74.5779 99.4425 74.613 99.3796 74.6463C99.3796 74.6463 99.3796 74.6463 99.3759 74.65C99.3112 74.6833 99.2483 74.7166 99.1817 74.7499C99.1151 74.785 99.0485 74.8183 98.9801 74.8516C98.9191 74.7388 98.8543 74.626 98.7841 74.5242C98.7193 74.4336 98.6509 74.3504 98.588 74.2709L98.5917 74.2228C98.5991 74.0915 98.625 73.9509 98.6786 73.766C98.6953 73.7068 98.7156 73.6476 98.736 73.5884C98.7656 73.5015 98.7988 73.4183 98.834 73.335C98.8543 73.2851 98.8747 73.237 98.8987 73.1889C98.9209 73.139 98.9431 73.0909 98.9672 73.0428C98.9893 72.9966 99.0134 72.9485 99.0393 72.9004C99.1133 72.7599 99.1928 72.6193 99.2742 72.4824C99.3278 72.39 99.3851 72.3012 99.4406 72.2106C99.4462 72.1995 99.4517 72.1902 99.4591 72.1791C99.5867 71.9794 99.7217 71.787 99.866 71.5984C99.9178 71.53 100.088 71.2359 100.175 71.2063C100.099 71.2211 99.522 71.3524 99.522 71.3524C99.4739 71.3654 99.4277 71.3802 99.3833 71.3968C99.35 71.4079 99.3167 71.4209 99.2853 71.4356C99.2686 71.4412 99.2538 71.4486 99.239 71.456C99.2039 71.4708 99.1687 71.4874 99.1354 71.5059C99.0892 71.53 99.0448 71.5559 99.0004 71.5818C98.9764 71.5965 98.9524 71.6113 98.9283 71.6261C98.9228 71.6298 98.9172 71.6335 98.9117 71.6372C98.8895 71.652 98.8691 71.6668 98.8488 71.6798C98.8247 71.6983 98.8025 71.7149 98.7804 71.7316C98.7119 71.7815 98.649 71.8351 98.5917 71.8851C98.5566 71.9165 98.5233 71.9461 98.4937 71.9757C98.2625 72.1995 98.0924 72.4565 97.9351 72.7044C97.9278 72.7155 97.9204 72.7266 97.913 72.7377L97.8982 72.7599L97.7835 72.9337C97.7021 73.0558 97.6189 73.176 97.5338 73.2944C97.5209 73.3128 97.5079 73.3313 97.495 73.3498C97.4228 73.4497 97.3507 73.5496 97.2786 73.6476H97.2767C97.249 73.6864 97.2231 73.7216 97.1954 73.7586L97.1288 73.8492C96.8495 74.2191 96.5591 74.6038 96.1523 74.7739C95.5641 75.0107 94.8965 75.166 94.767 75.1956L93.0211 75.5766L93.4484 75.706L94.7282 76.0889C94.7282 76.0889 94.7652 76.1 94.8299 76.1185C94.8429 76.1203 94.8558 76.1259 94.8706 76.1296C95.0038 76.1647 95.2238 76.222 95.5031 76.2812C95.5641 76.2923 95.6289 76.3053 95.6955 76.3182C95.7972 76.3386 95.9026 76.3571 96.0136 76.3756C96.0561 76.383 96.1005 76.3885 96.1449 76.3959C96.2447 76.4107 96.3465 76.4255 96.45 76.4384C96.4593 76.4403 96.4704 76.4403 96.4796 76.4421C96.5296 76.4477 96.5795 76.4532 96.6294 76.4588C96.6609 76.4625 96.6942 76.4662 96.7256 76.468C96.7681 76.4717 96.8088 76.4754 96.8514 76.4791C96.9771 76.4902 97.1066 76.4976 97.2361 76.5013C97.2786 76.5032 97.3211 76.505 97.3655 76.505C97.408 76.5069 97.4524 76.5069 97.495 76.5069C97.5764 76.5069 97.6577 76.505 97.7373 76.5013C97.7391 76.5032 97.7391 76.5013 97.7391 76.5013C97.8297 76.4976 97.9204 76.4939 98.0091 76.4865C98.0979 76.4791 98.1867 76.4699 98.2736 76.4588C98.3439 76.4514 98.4123 76.4403 98.4789 76.4292C98.5066 76.4255 98.5344 76.4199 98.5621 76.4144C98.6398 76.4014 98.7138 76.3848 98.7896 76.3682L98.9431 76.3164L98.9967 76.2997L99.0448 76.2775C99.0837 76.2664 99.117 76.2516 99.1429 76.2368C99.2353 76.1962 99.3648 76.1388 99.522 76.0685C99.5608 76.05 99.6015 76.0316 99.644 76.0131C99.7828 75.9502 99.9363 75.8817 100.103 75.8078C100.199 75.7634 100.299 75.7171 100.4 75.6728C100.495 75.6302 100.589 75.5877 100.687 75.5433C100.696 75.5377 100.707 75.534 100.717 75.5303C100.852 75.4693 100.989 75.4083 101.125 75.3454C101.227 75.2992 101.331 75.2529 101.432 75.2067L101.693 75.0865C102.344 75.584 102.877 76.2664 102.771 77.0506C102.768 77.082 102.762 77.1153 102.755 77.1468C102.751 77.1653 102.746 77.1856 102.74 77.2041C102.731 77.2393 102.722 77.2744 102.71 77.3095H102.714ZM94.2695 72.6452C94.3213 72.5287 94.3657 72.4159 94.4008 72.3178C94.4711 72.1218 94.51 71.9794 94.51 71.9794C94.51 71.9794 94.9575 72.0811 95.2368 72.2624C95.5161 72.4473 95.7842 72.8653 95.7842 72.8653C95.1813 73.6125 93.4724 73.7919 93.4724 73.7919C93.4724 73.7919 93.6721 73.5403 93.9921 73.1261C94.0994 72.9873 94.1918 72.8135 94.2695 72.6452ZM96.0062 75.7042C96.0062 75.7042 96.4204 75.5766 96.7866 75.3916C97.1491 75.2067 97.4358 74.6722 97.4358 74.6722C97.4358 74.6722 97.6762 74.7998 97.9037 75.0717C98.133 75.3417 98.17 75.645 98.17 75.645C97.3415 75.9872 96.0062 75.7042 96.0062 75.7042Z" fill="#233F94"/>
<path d="M92.0242 81.2803L92.2055 81.2692L92.3793 81.0361L92.0242 81.2821V81.2803ZM101.697 75.0846L101.436 75.2048C100.485 75.6339 99.5127 76.0722 99.1465 76.2349C99.1206 76.2497 99.0854 76.2645 99.0485 76.2756L98.9985 76.2978L98.7914 76.3663C98.3808 76.4606 97.9536 76.505 97.4986 76.505C96.1115 76.505 94.7466 76.0907 94.7318 76.087L93.0229 75.5747L94.7688 75.1937C94.8964 75.1641 95.5641 75.0087 96.1522 74.772C96.5591 74.6019 96.8494 74.2172 97.1287 73.8473L97.1971 73.7567C97.4006 73.4848 97.5966 73.2129 97.7853 72.93L97.9129 72.7339C98.0793 72.4768 98.2513 72.2068 98.4936 71.9719C98.7192 71.7537 99.0854 71.467 99.5238 71.3505C99.5238 71.3505 100.101 71.2192 100.177 71.2026C100.09 71.2322 99.9195 71.5262 99.8678 71.5946C99.7254 71.7833 99.5885 71.9756 99.4609 72.1754C99.152 72.6729 98.8506 73.1926 98.6804 73.7622C98.6268 73.9472 98.6009 74.0859 98.5935 74.219L98.5898 74.269C98.6545 74.3485 98.7211 74.4317 98.7858 74.5223C98.858 74.6241 98.9208 74.7369 98.9819 74.8497C100.785 73.9712 101.776 72.8745 102.213 72.2863L102.474 71.9349C102.416 71.7574 102.335 71.5873 102.224 71.4337C101.59 70.509 100.336 70.1706 99.2445 70.4461C99.0632 70.4961 98.8894 70.559 98.7248 70.6385L98.7137 70.6607C97.9406 71.8591 97.1195 72.7949 96.8846 73.0557L96.7681 73.1796C95.5234 74.4465 92.7362 74.6537 92.4237 74.6721L91.5415 74.7258L92.1222 74.0581C92.1222 74.0581 92.4958 73.6291 93.095 72.9189C93.5593 72.3714 93.9162 71.3949 94.0068 71.1397C94.0327 71.0676 93.9624 70.89 93.9495 70.8197C93.9273 70.7032 93.9199 70.5978 93.9236 70.4757C93.9347 70.2427 93.9735 70.0078 94.0401 69.7822C94.1714 69.3254 94.41 68.9037 94.7374 68.5634C94.9001 68.3932 95.0814 68.2471 95.2737 68.1103C95.4549 67.979 95.6658 67.7977 95.8766 67.7219C95.8692 67.9068 95.7453 68.1436 95.6843 68.3248C95.6362 68.4728 95.5863 68.6152 95.5419 68.7613C95.4734 68.9721 95.2848 70.1299 95.4328 71.1748C95.5992 71.258 95.7453 71.345 95.8692 71.4319C95.9783 71.5114 96.0875 71.6131 96.204 71.7334C96.8864 70.9344 97.482 69.8673 97.9721 68.5578L98.0479 68.3544C97.5541 67.5443 96.7662 66.9636 95.8267 66.9673C94.8132 66.9747 93.8922 67.6534 93.3484 68.5134C92.7973 69.3623 92.5716 70.3796 92.4052 71.3875C92.3331 71.8443 92.2665 72.3067 92.039 72.7117C91.7634 73.1981 91.2844 73.5255 90.8479 73.8769C89.7771 74.7221 88.8265 75.7892 88.292 77.0339C88.5417 77.0709 88.808 77.1245 89.0947 77.1967C89.9547 77.4001 90.6778 77.7367 91.2585 78.0899C92.1185 77.1819 93.1283 76.4014 94.3323 76.4532C95.1849 76.4865 95.9728 76.947 96.8254 77.0154C96.953 77.0228 97.0973 77.0302 97.2175 77.069H97.2212C97.654 77.1338 98.3068 77.291 98.7932 77.6905C99.152 77.9845 99.4646 78.3692 99.718 78.8445C100.332 78.8075 100.963 78.7465 101.536 78.4968C102.143 78.2324 102.683 77.709 102.773 77.0487C102.879 76.2645 102.348 75.5821 101.695 75.0846H101.697ZM95.2367 72.2605C94.9574 72.0792 94.5099 71.9775 94.5099 71.9775C94.5099 71.9775 94.3138 72.7099 93.9939 73.1242C93.6739 73.5384 93.4742 73.7918 93.4742 73.7918C93.4742 73.7918 95.1831 73.6106 95.786 72.8634C95.786 72.8634 95.5178 72.4454 95.2386 72.2605H95.2367ZM97.9036 75.0698C97.678 74.7979 97.4357 74.6703 97.4357 74.6703C97.4357 74.6703 97.1491 75.2066 96.7866 75.3897C96.4204 75.5747 96.0061 75.7023 96.0061 75.7023C96.0061 75.7023 97.3414 75.9853 98.17 75.6413C98.17 75.6413 98.133 75.3398 97.9018 75.0679L97.9036 75.0698Z" fill="#233F94"/>
<path d="M90.3766 79.094C90.2527 79.2475 90.1288 79.4029 90.0067 79.5619C89.6867 79.9892 89.3945 80.4423 89.2059 80.9194C89.0468 81.3189 88.9618 81.7369 88.9932 82.1734L88.9562 82.1993C88.7454 81.9755 88.566 81.7295 88.4162 81.465C87.9797 80.6975 87.7966 79.7857 87.8484 78.8906C87.8595 78.6945 87.8817 78.4985 87.915 78.3062C88.1905 78.3283 88.4606 78.3598 88.7213 78.4079C89.2947 78.5059 89.868 78.7852 90.3766 79.094Z" fill="#B4B4B4"/>
<path d="M88.9963 82.2429C88.9817 82.2282 88.9689 82.2136 88.9561 82.199L88.9927 82.1733C88.9927 82.1953 88.9945 82.2191 88.9963 82.2429Z" fill="#B4B4B4"/>
<path d="M98.5617 79.3997C98.4562 79.4459 98.3508 79.4903 98.2435 79.531C98.1566 79.5661 98.0678 79.5976 97.9791 79.629C97.9791 79.6309 97.9772 79.6309 97.9754 79.6309C97.87 79.6678 97.7627 79.703 97.6536 79.7363C97.5445 79.7696 97.4353 79.801 97.3244 79.8306C97.2153 79.8602 97.1043 79.8879 96.9933 79.912C96.8972 79.9342 96.801 79.9545 96.7048 79.9749C96.666 79.9823 96.6271 79.9897 96.5864 79.9952C96.4977 80.0137 96.407 80.0285 96.3183 80.0414C96.2055 80.0599 96.0926 80.0766 95.9798 80.0895C95.8651 80.1043 95.7523 80.1173 95.6377 80.1265C95.5249 80.1376 95.4102 80.1469 95.2974 80.1543C95.3732 80.1025 95.4472 80.0507 95.5193 79.9952C95.5526 79.9712 95.584 79.9471 95.6173 79.9194C95.658 79.8898 95.6987 79.8583 95.7375 79.825C95.7764 79.7955 95.8152 79.764 95.8522 79.7307C95.9114 79.6826 95.9706 79.6309 96.0279 79.5791C96.0797 79.5328 96.1296 79.4866 96.1796 79.4367C96.1925 79.4274 96.2036 79.4163 96.2165 79.4034C96.2628 79.359 96.309 79.3127 96.3534 79.2665C96.3682 79.2517 96.383 79.2369 96.3959 79.2221C96.4958 79.1222 96.5901 79.0187 96.6771 78.9114H96.6789C96.7104 78.8763 96.7399 78.843 96.7677 78.8078C96.8306 78.732 96.8934 78.6525 96.9526 78.573C97.0192 78.486 97.0839 78.3973 97.145 78.3066C97.28 78.3473 97.4168 78.401 97.5445 78.4583C97.6536 78.5064 97.759 78.5637 97.8607 78.6266C98.0457 78.7431 98.1973 78.8911 98.3249 79.0501C98.4155 79.1629 98.4951 79.2795 98.5617 79.3997Z" fill="#B4B4B4"/>
<path d="M98.1707 75.6433C97.3403 75.9873 96.0068 75.7044 96.0068 75.7044C96.0068 75.7044 96.4211 75.5767 96.7873 75.3918C97.1498 75.2069 97.4365 74.6724 97.4365 74.6724C97.4365 74.6724 97.6769 74.8 97.9044 75.0718C98.1337 75.3437 98.1726 75.6452 98.1726 75.6452L98.1707 75.6433Z" fill="#FFC72B"/>
<path d="M95.785 72.8654C95.182 73.6126 93.4731 73.7938 93.4731 73.7938C93.4731 73.7938 93.6729 73.5404 93.9928 73.1262C94.3128 72.7119 94.5088 71.9795 94.5088 71.9795C94.5088 71.9795 94.9583 72.0812 95.2357 72.2625C95.5149 72.4474 95.7831 72.8654 95.7831 72.8654H95.785Z" fill="#FFC72B"/>
<path d="M102.776 77.0507C102.685 77.7109 102.147 78.2343 101.538 78.4988C100.965 78.7485 100.336 78.8076 99.7204 78.8465C99.467 78.3712 99.1545 77.9865 98.7957 77.6924C98.3093 77.2929 97.6564 77.1339 97.2236 77.071H97.2199C97.0997 77.034 96.9554 77.0266 96.8278 77.0174C95.9752 76.9489 95.1874 76.4903 94.3348 76.4551C93.1326 76.4015 92.121 77.182 91.261 78.0919C90.6802 77.7368 89.9571 77.4021 89.0971 77.1986C88.8104 77.1265 88.5423 77.0747 88.2944 77.0359C88.8289 75.7912 89.7795 74.724 90.8504 73.8788C91.2887 73.5274 91.7659 73.2001 92.0414 72.7137C92.2671 72.3105 92.3355 71.8463 92.4076 71.3895C92.5741 70.3834 92.7997 69.3643 93.3509 68.5154C93.8946 67.6554 94.8138 66.9767 95.8291 66.9693C96.7686 66.9656 97.5565 67.5463 98.0503 68.3563L97.9745 68.5598C97.4844 69.8674 96.8889 70.9345 96.2064 71.7353C96.0899 71.6151 95.9808 71.5134 95.8717 71.4339C95.7478 71.3469 95.5998 71.26 95.4352 71.1768C95.2872 70.1318 95.4759 68.9741 95.5443 68.7632C95.5887 68.6153 95.6386 68.4729 95.6867 68.3268C95.7478 68.1455 95.8717 67.9088 95.8791 67.7238C95.6682 67.7997 95.4574 67.9809 95.2761 68.1122C95.0838 68.2472 94.9026 68.3952 94.7398 68.5653C94.4124 68.9038 94.1739 69.3273 94.0426 69.7841C93.9741 70.0098 93.9371 70.2446 93.926 70.4777C93.9223 70.5979 93.9297 70.7033 93.9519 70.8217C93.963 70.8938 94.0352 71.0714 94.0093 71.1416C93.9186 71.3987 93.5598 72.3752 93.0975 72.9208C92.4983 73.6292 92.1247 74.0601 92.1247 74.0601L91.5439 74.7277L92.4261 74.6741C92.7387 74.6556 95.5258 74.4485 96.7705 73.1816L96.887 73.0577C97.1201 72.7969 97.9431 71.8629 98.7161 70.6626L98.7272 70.6404C98.8937 70.5609 99.0675 70.498 99.2469 70.4481C100.336 70.1725 101.592 70.5128 102.226 71.4357C102.336 71.5911 102.419 71.7594 102.476 71.9369L102.215 72.2883C101.779 72.8764 100.786 73.9732 98.9843 74.8517C98.9233 74.7388 98.8604 74.626 98.7883 74.5243C98.7235 74.4337 98.6569 74.3504 98.5922 74.2709L98.5959 74.221C98.6033 74.0897 98.6292 73.9491 98.6828 73.7642C98.853 73.1945 99.1545 72.6748 99.4633 72.1773C99.5909 71.9776 99.7278 71.7853 99.8702 71.5966C99.9238 71.5282 100.092 71.2341 100.179 71.2045C100.103 71.2193 99.5262 71.3525 99.5262 71.3525C99.0879 71.469 98.7235 71.7557 98.4961 71.9739C98.2556 72.2069 98.0818 72.4788 97.9153 72.7359L97.7877 72.9319C97.5991 73.2149 97.403 73.4868 97.1996 73.7586L97.1312 73.8492C96.8519 74.2191 96.5615 74.6038 96.1546 74.774C95.5665 75.0107 94.8989 75.1661 94.7712 75.1957L93.0253 75.5766L94.7342 76.0889C94.749 76.0926 96.1139 76.5069 97.501 76.5069C97.9579 76.5069 98.3832 76.4625 98.7938 76.3682L99.001 76.2998L99.0509 76.2776C99.0879 76.2665 99.123 76.2517 99.1489 76.2369C99.5151 76.0741 100.488 75.6377 101.439 75.2067L101.699 75.0865C102.352 75.584 102.883 76.2665 102.778 77.0507H102.776Z" fill="#FFC72B"/>
<path d="M95.7845 72.8654C95.1815 73.6126 93.4727 73.7938 93.4727 73.7938C93.4727 73.7938 93.6724 73.5404 93.9923 73.1262C94.3123 72.7119 94.5084 71.9795 94.5084 71.9795C94.5084 71.9795 94.9578 72.0812 95.2352 72.2625C95.5145 72.4474 95.7826 72.8654 95.7826 72.8654H95.7845Z" fill="#233F94"/>
<path d="M98.1707 75.6433C97.3403 75.9873 96.0068 75.7044 96.0068 75.7044C96.0068 75.7044 96.4211 75.5767 96.7873 75.3918C97.1498 75.2069 97.4365 74.6724 97.4365 74.6724C97.4365 74.6724 97.6769 74.8 97.9044 75.0718C98.1337 75.3437 98.1726 75.6452 98.1726 75.6452L98.1707 75.6433Z" fill="#233F94"/>
<path d="M98.1707 75.6433C97.3403 75.9873 96.0068 75.7044 96.0068 75.7044C96.0068 75.7044 96.4211 75.5767 96.7873 75.3918C97.1498 75.2069 97.4365 74.6724 97.4365 74.6724C97.4365 74.6724 97.6769 74.8 97.9044 75.0718C98.1337 75.3437 98.1726 75.6452 98.1726 75.6452L98.1707 75.6433Z" fill="#233F94"/>
<path d="M98.1707 75.6433C97.3403 75.9873 96.0068 75.7044 96.0068 75.7044C96.0068 75.7044 96.4211 75.5767 96.7873 75.3918C97.1498 75.2069 97.4365 74.6724 97.4365 74.6724C97.4365 74.6724 97.6769 74.8 97.9044 75.0718C98.1337 75.3437 98.1726 75.6452 98.1726 75.6452L98.1707 75.6433Z" fill="#B4B4B4"/>
<path d="M95.7845 72.8654C95.1815 73.6126 93.4727 73.7938 93.4727 73.7938C93.4727 73.7938 93.6724 73.5404 93.9923 73.1262C94.3123 72.7119 94.5084 71.9795 94.5084 71.9795C94.5084 71.9795 94.9578 72.0812 95.2352 72.2625C95.5145 72.4474 95.7826 72.8654 95.7826 72.8654H95.7845Z" fill="#B4B4B4"/>
<path d="M85.5619 70.3703L87.5704 67.9327L88.0309 69.4289L90.045 66.1313V69.0276C90.045 69.0276 90.0154 74.4225 85.5601 76.37V70.3685L85.5619 70.3703Z" fill="white"/>
<path d="M85.5622 70.3703L83.5537 67.9327L83.0932 69.4289L81.0791 66.1313V69.0276C81.0791 69.0276 81.1087 74.4225 85.564 76.37V70.3685L85.5622 70.3703Z" fill="white"/>
<path d="M161.843 36.9673C161.726 37.2281 157.763 45.5395 143.543 47.6257C142.113 47.8366 140.804 47.9716 139.612 48.0437C128.76 48.7113 127.29 44.2486 127.29 44.2486C127.29 44.2486 137.058 44.0766 144.21 43.0021C145.168 42.8578 146.074 42.7006 146.91 42.5231C157.308 40.313 161.71 37.069 161.843 36.9691V36.9673Z" fill="white"/>
<path d="M154.495 52.0942C154.495 52.0942 149.446 58.6949 135.231 55.9743C135.231 55.9743 133.633 55.6729 131.547 54.9109C127.857 53.5589 122.619 50.7644 121.935 45.6377C121.935 45.6377 128.386 48.9057 136.712 50.7588C137.942 51.0307 139.216 51.2767 140.513 51.4709C147.95 52.6009 154.495 52.0942 154.495 52.0942Z" fill="white"/>
<path d="M147.855 62.81C147.855 62.81 138.754 68.8818 128.524 63.8235C126.264 62.7046 124.467 61.5025 123.032 60.2726C115.952 54.223 117.761 47.5649 117.761 47.5649C117.761 47.5649 119.403 51.2324 126.666 56.631C127.039 56.9084 127.439 57.1766 127.862 57.4263C134.931 61.7336 147.855 62.8082 147.855 62.8082V62.81Z" fill="white"/>
<path d="M112.049 77.4022C112.049 77.4022 105.031 77.3356 102.793 68.9927C102.682 68.5803 102.593 68.1753 102.521 67.7739C101.125 60.0765 106.435 54.6724 106.435 54.6724C105.739 59.6936 105.878 63.6885 106.435 66.8344C107.87 74.8833 112.051 77.4041 112.051 77.4041L112.049 77.4022Z" fill="white"/>
<path d="M121.694 75.9446C121.694 75.9446 115.06 77.1412 110.947 69.5492C110.296 68.3415 109.806 67.1394 109.449 65.9594C107.206 58.5782 110.095 52.1162 110.095 52.1162C110.485 57.2318 111.643 61.3949 113.083 64.7277C116.562 72.7488 121.694 75.9428 121.694 75.9428V75.9446Z" fill="white"/>
<path d="M135.314 71.0916C135.314 71.0916 129.475 75.3491 121.623 70.0282C118.95 68.2194 117.097 65.9815 115.812 63.6716C112.299 57.3538 113.05 50.5034 113.05 50.5034C114.809 55.3176 117.236 59.0313 119.841 61.885C126.91 69.6324 135.314 71.0916 135.314 71.0916Z" fill="white"/>
<path d="M163.822 25.0995C163.822 25.0995 156.073 33.3314 140.696 37.772C125.625 42.1238 113.979 42.4955 113.979 42.4955C113.979 42.4955 112.193 46.7752 108.233 49.7214C104.271 52.6694 102.823 53.7421 99.4183 55.1551C96.0134 56.5681 110.19 53.0411 114.952 43.6995C114.952 43.6995 130.522 42.7489 141.164 39.3884C160.062 33.4202 163.824 25.0977 163.824 25.0977L163.822 25.0995Z" fill="#FFC72B"/>
<path d="M97.5785 57.4611C97.2419 57.5665 96.8813 57.6867 96.5151 57.8125L94.6416 57.7292C95.0614 57.204 95.263 56.6214 95.361 56.209L97.5785 57.4592V57.4611Z" fill="white"/>
<path d="M97.5785 57.4611C97.2419 57.5665 96.8813 57.6867 96.5151 57.8125L94.6416 57.7292C95.0614 57.204 95.263 56.6214 95.361 56.209L97.5785 57.4592V57.4611Z" fill="white"/>
<path d="M73.5459 57.4611C73.8825 57.5665 74.2431 57.6867 74.6093 57.8125L76.4828 57.7292C76.063 57.204 75.8614 56.6214 75.7634 56.209L73.5459 57.4592V57.4611Z" fill="white"/>
<path d="M82.1033 56.2887C81.8425 56.9119 81.2526 57.3244 80.583 57.4797C80.1429 57.5796 79.675 57.5685 79.2533 57.4298H79.2477C78.9296 57.3299 78.6467 57.1635 78.4136 56.9175H78.4081C78.4081 56.9175 78.4025 56.912 78.397 56.9064C77.3668 55.8152 78.1029 53.0762 78.1029 53.0762C78.1029 53.0762 78.471 53.644 79.2274 54.3283L79.2329 54.3338C79.355 54.4392 79.4882 54.5557 79.6343 54.6686C80.0855 55.0311 80.6145 55.3861 81.0639 55.671L81.0972 55.6932C81.3302 55.8374 81.5485 55.965 81.7149 56.0667C81.9535 56.2055 82.1052 56.2887 82.1052 56.2887H82.1033Z" fill="white"/>
<path d="M73.5459 57.4611C73.8825 57.5665 74.2431 57.6867 74.6093 57.8125L76.4828 57.7292C76.063 57.204 75.8614 56.6214 75.7634 56.209L73.5459 57.4592V57.4611Z" fill="white"/>
<path d="M85.6139 52.0165L81.6523 50.0117L85.6139 54.1212L89.5773 50.0117L85.6139 52.0165Z" fill="white"/>
<path d="M90.5594 59.3514C89.6439 59.4143 89.0373 59.6751 89.0373 59.6751C89.0373 59.6751 88.6526 58.4156 87.9258 57.5445C86.7661 56.1574 85.6158 55.4546 85.6158 55.4546C85.6158 55.4546 84.4654 56.1574 83.3058 57.5445C82.5771 58.4156 82.1943 59.6751 82.1943 59.6751C82.1943 59.6751 81.5877 59.4143 80.6722 59.3514C79.7567 59.2885 79.0225 59.3274 79.0225 59.3274C79.0225 59.3274 80.9404 60.2428 83.132 63.1298C85.3254 66.0169 85.6158 66.8066 85.6158 66.8066C85.6158 66.8066 85.9061 66.0169 88.0996 63.1298C90.2931 60.2428 92.2091 59.3274 92.2091 59.3274C92.2091 59.3274 91.4749 59.2885 90.5594 59.3514Z" fill="#FFC72B"/>
<path d="M87.6462 58.9406C87.6055 59.0053 87.5464 59.0608 87.4613 59.0904C87.3355 59.1348 87.2209 59.1052 87.1302 59.0312H87.121C86.9656 58.9017 86.875 58.641 86.8953 58.4098C86.9249 58.125 86.8953 57.7088 86.8805 57.5331C86.8805 57.4832 86.875 57.4536 86.875 57.4536C86.875 57.4536 86.8898 57.474 86.9101 57.5035V57.5091C87.0045 57.6386 87.256 57.9955 87.4668 58.21C87.6666 58.4061 87.7628 58.7353 87.6462 58.9406Z" fill="#233F94"/>
<path d="M83.5827 58.9406C83.6234 59.0053 83.6826 59.0608 83.7677 59.0904C83.8934 59.1348 84.0081 59.1052 84.0987 59.0312H84.1043H84.1098C84.2652 58.9017 84.3558 58.641 84.3355 58.4098C84.3059 58.125 84.3355 57.7088 84.3502 57.5331C84.3502 57.4832 84.3558 57.4536 84.3558 57.4536C84.3558 57.4536 84.341 57.474 84.3207 57.5035V57.5091C84.2263 57.6386 83.9748 57.9955 83.764 58.21C83.5642 58.4061 83.4681 58.7353 83.5846 58.9406H83.5827Z" fill="#233F94"/>
<path d="M92.7309 56.9064C92.7309 56.9064 92.7254 56.912 92.7198 56.9175H92.7143C92.4812 57.1616 92.1909 57.3299 91.8802 57.4298H91.8746C91.4511 57.5685 90.985 57.5796 90.5448 57.4797C89.8772 57.3299 89.2817 56.9175 89.019 56.2887C89.019 56.2887 89.1744 56.2055 89.4148 56.0667C89.5868 55.9669 89.7995 55.8393 90.0325 55.6932L90.0603 55.671C90.5116 55.388 91.0461 55.0311 91.4955 54.6686C91.6342 54.5576 91.7673 54.4411 91.8912 54.3338L91.8968 54.3283C92.6532 53.644 93.0268 53.0762 93.0268 53.0762C93.0268 53.0762 93.7611 55.8152 92.7309 56.9064Z" fill="white"/>
<path d="M146.113 18.8353L146.444 17.6535L147.104 15.3102L148.628 10.1928H131.26V1.4541H40.0966V10.1928H25.14V11.0787H25.103V50.1041C41.5207 44.5724 58.0622 40.5036 75.412 39.4679C78.7614 39.27 82.1108 39.1664 85.4675 39.1664C97.8589 39.1664 111.367 39.0277 122.967 43.9491C128.271 46.1962 133.92 49.8618 139.855 47.7535C144.924 45.9539 147.04 40.8772 147.045 35.8023C147.053 31.9461 145.973 28.6763 143.938 26.1869C144.658 23.7993 145.386 21.3469 146.113 18.8335V18.8353Z" fill="#233F94"/>
<path d="M49.669 11.448H47.9361V9.04373H46.1939V11.448H44.4609V5.31152H46.1939V7.6252H47.9361V5.31152H49.669V11.448Z" fill="white"/>
<path d="M52.7369 11.4485H51.0039V5.31201H52.7369V11.4485Z" fill="white"/>
<path d="M58.5425 11.4485H54.0742V5.31201H55.7887V10.03H58.5444V11.4485H58.5425Z" fill="white"/>
<path d="M59.4639 11.4485V5.31201H63.3625C63.6492 5.31201 63.9063 5.37674 64.1282 5.58943C64.3501 5.79287 64.4593 6.08694 64.4593 6.39949V7.59794C64.4593 7.9105 64.2373 8.17867 63.934 8.28039V8.29889C64.2836 8.34512 64.5425 8.62994 64.5425 8.96284V10.3629C64.5425 10.6662 64.4315 10.9621 64.2207 11.1748C64.0098 11.3856 63.7602 11.4504 63.455 11.4504H59.4657L59.4639 11.4485ZM62.7356 7.67192V6.70465H61.1968V7.67192H62.7356ZM62.8095 10.0485V9.00723H61.1968V10.0485H62.8095Z" fill="white"/>
<path d="M70.394 11.4485H65.7407V5.31201H70.3847V6.73055H67.4644V7.65158H70.1184V9.07011H67.4644V10.0281H70.3958V11.4467L70.394 11.4485Z" fill="white"/>
<path d="M76.7249 8.25265C76.7249 8.74091 76.4382 9.20142 75.9962 9.32164L77.0652 11.4504H75.2509L74.2651 9.43261H73.2793V11.4504H71.5464V5.31201H75.5357C75.9056 5.31201 76.1996 5.41373 76.4031 5.60608C76.6047 5.80027 76.7249 6.08509 76.7249 6.46238V8.2508V8.25265ZM75.0012 8.02147V6.73979H73.2775V8.02147H75.0012Z" fill="white"/>
<path d="M82.8257 6.73201H81.0836V11.45H79.3599V6.73201H77.6177V5.31348H82.8239V6.73201H82.8257Z" fill="white"/>
<path d="M90.1609 7.45934V6.73065H88.6037V10.0301H90.1609V9.3125H91.8661V10.2983C91.8661 10.6571 91.7644 10.9345 91.572 11.1287C91.3686 11.3395 91.056 11.4505 90.6788 11.4505H88.0618C87.6475 11.4505 87.3238 11.3303 87.1222 11.0917C86.9558 10.8993 86.8726 10.6404 86.8726 10.3001V6.46618C86.8726 6.11663 86.9743 5.84846 87.15 5.65427C87.3534 5.43418 87.666 5.31396 88.0618 5.31396H90.6788C91.0468 5.31396 91.3427 5.41569 91.5443 5.60803C91.7477 5.80222 91.868 6.08704 91.868 6.46433V7.45934H90.1628H90.1609Z" fill="white"/>
<path d="M98.2615 10.2983C98.2615 10.6571 98.1598 10.9345 97.9675 11.1287C97.764 11.3395 97.4515 11.4505 97.0742 11.4505H94.2556C93.8413 11.4505 93.5177 11.3303 93.3161 11.0917C93.1496 10.8993 93.0664 10.6404 93.0664 10.3001V6.46618C93.0664 6.11663 93.1681 5.84846 93.3438 5.65427C93.5473 5.43418 93.8598 5.31396 94.2556 5.31396H97.0742C97.4422 5.31396 97.7381 5.41569 97.9397 5.60803C98.1432 5.80222 98.2634 6.08704 98.2634 6.46433V10.2983H98.2615ZM96.5286 10.0301V6.73065H94.7957V10.0301H96.5286Z" fill="white"/>
<path d="M103.975 11.4485H99.5063V5.31201H101.221V10.03H103.976V11.4485H103.975Z" fill="white"/>
<path d="M109.365 11.4485H104.897V5.31201H106.611V10.03H109.367V11.4485H109.365Z" fill="white"/>
<path d="M114.94 11.4485H110.287V5.31201H114.931V6.73055H112.011V7.65158H114.665V9.07011H112.011V10.0281H114.942V11.4467L114.94 11.4485Z" fill="white"/>
<path d="M119.576 7.27418V6.73044H117.78V10.0206H119.615V9.29194H118.592V7.98253H121.237V10.2962C121.237 11.0341 120.776 11.4484 120.048 11.4484H117.237C116.482 11.4484 116.047 11.0526 116.047 10.2962V6.46227C116.047 5.72619 116.499 5.31006 117.237 5.31006H120.037C120.765 5.31006 121.226 5.71509 121.226 6.46227V7.27418H119.576Z" fill="white"/>
<path d="M127.134 11.4485H122.48V5.31201H127.124V6.73055H124.204V7.65158H126.858V9.07011H124.204V10.0281H127.136V11.4467L127.134 11.4485Z" fill="white"/>
<path d="M57.3835 14.9715C55.092 21.0118 52.7931 27.361 50.5053 34.106C50.5848 27.7346 50.6662 21.3632 50.7457 14.99C48.0529 14.9993 45.3601 15.0085 42.6655 15.0196C42.6377 17.8141 42.6118 20.6105 42.5841 23.405C40.877 23.5549 39.17 23.7139 37.4666 23.8804C37.487 20.9342 37.5055 17.988 37.5258 15.0418C34.833 15.0529 32.142 15.0658 29.4492 15.0806V43.7399C32.0699 42.8577 34.7035 42.0384 37.3538 41.2801C37.3742 38.2414 37.3945 35.2009 37.413 32.1622C39.1089 31.846 40.8086 31.5445 42.5101 31.2615C42.4824 34.1449 42.4546 37.0282 42.4269 39.9115C44.8478 39.2974 47.2799 38.7408 49.7193 38.2303C52.4565 37.657 55.2029 37.1428 57.9605 36.7008C58.1972 35.7613 58.4339 34.8273 58.6707 33.897C60.7902 33.6067 62.9152 33.3477 65.0421 33.1258C65.288 33.9618 65.5359 34.794 65.7837 35.6226C68.7687 35.2786 71.7593 35.0123 74.7517 34.8199C72.0238 28.3708 69.3291 21.8127 66.6622 14.9512C63.5699 14.9567 60.4776 14.9641 57.3872 14.9715H57.3835ZM60.2409 28.615C60.7809 26.3901 61.3191 24.1892 61.8573 22.0124C61.959 22.0069 62.0626 22.0032 62.1643 21.9976C62.3067 22.8872 62.4473 23.8027 62.684 24.683C62.9966 25.9018 63.3091 27.1114 63.6217 28.3154C62.4935 28.4078 61.3672 28.5096 60.2409 28.6168V28.615Z" fill="white"/>
<path d="M136.638 25.8464C136.009 25.5912 135.381 25.3415 134.75 25.0974C134.11 24.8385 133.076 24.5796 133.067 23.5494C133.056 22.4083 134.125 22.1586 134.855 22.2159C136.657 22.3584 138.273 23.4495 139.701 24.8829C140.443 22.4194 141.19 19.8949 141.942 17.3038C141.937 17.2982 141.93 17.2945 141.924 17.289L142.704 14.6221H134.624C129.601 14.7053 124.652 18.1138 124.718 24.0987C124.761 28.0787 127.535 30.5903 130.79 31.8683C131.349 32.0865 131.905 32.3066 132.462 32.5322C133.224 32.8559 134.312 33.1795 134.321 34.452C134.328 35.7262 133.03 35.8391 132.213 35.6597C130.302 35.238 128.502 33.7677 126.995 32.203C126.853 32.0514 126.708 31.9016 126.564 31.7518C125.926 33.5346 125.288 35.275 124.65 36.995C122.551 33.0945 120.711 29.3234 118.458 25.9241C120.818 22.4989 123.176 18.8814 125.538 15.0031C122.488 14.992 119.438 14.9827 116.387 14.9735C115.07 17.3389 113.755 19.6286 112.434 21.8609C111.983 22.608 111.471 23.3423 111.301 24.206C111.24 24.2023 111.179 24.1986 111.116 24.1949C111.138 21.1211 111.16 18.0417 111.182 14.9605C108.846 14.955 106.511 14.9513 104.175 14.9476C103.977 14.9476 103.779 14.9476 103.583 14.9476C103.392 14.9476 103.2 14.9476 103.01 14.9476C100.491 14.9439 97.9716 14.9402 95.4508 14.9383C94.6925 17.7088 93.9305 20.4627 93.163 23.2054C92.8597 24.3206 92.7099 25.5172 92.5934 26.6602C92.5324 26.6602 92.4695 26.6583 92.4084 26.6565C91.3321 22.7264 90.2631 18.8259 89.2052 14.9365C87.0617 14.9365 84.92 14.9365 82.7765 14.9365C81.9534 17.6256 81.1267 20.3203 80.2963 23.0297C79.9227 24.206 79.7304 25.4599 79.5732 26.662C79.5103 26.662 79.4493 26.6639 79.3882 26.6657C78.4284 22.78 77.4778 18.8758 76.5327 14.9402C73.6346 14.942 70.7365 14.9457 67.8384 14.9513C70.4591 21.7702 73.1056 28.3118 75.7873 34.759C78.1935 34.6184 80.6033 34.5296 83.0113 34.4871L85.8059 23.8435C85.8983 23.8435 85.9908 23.8435 86.0833 23.8435C86.9655 27.3833 87.8551 30.9251 88.7521 34.4797C91.2229 34.5167 93.6938 34.6055 96.1628 34.746C98.4802 29.2217 100.77 23.6215 103.039 17.8457C103.098 23.6604 103.157 29.4751 103.217 35.2879C106.446 35.4932 108.502 35.5006 111.436 35.7355C111.336 32.7486 111.256 30.3129 111.156 27.3316C111.217 27.3371 111.278 27.3426 111.341 27.3463L116.194 36.294C119.79 37.3556 121.735 37.9475 124.645 38.9388C127.16 40.7771 130.235 42.4157 132.902 43.2258C137.816 44.772 142.693 42.9854 142.703 35.4784C142.706 30.1945 140.167 27.2409 136.635 25.8446L136.638 25.8464Z" fill="white"/>
</g>
<defs>
<clipPath id="clip0_19047_533845">
<rect width="174" height="112" fill="white"/>
</clipPath>
</defs>
</svg>
