<svg width="64" height="56" viewBox="0 0 64 56" fill="none" xmlns="http://www.w3.org/2000/svg">
<g clip-path="url(#clip0_4891_27378)">
<path d="M23.1001 27.8163C22.8575 27.6057 22.6103 27.4007 22.3585 27.2012C22.2027 27.0756 22.0487 26.9518 21.8993 26.8263C21.2448 26.2268 20.6178 25.5255 20.4546 24.4631C20.3932 24.0588 20.33 23.6418 20.2291 23.2128C19.6315 20.9055 18.8587 18.5378 16.6138 17.0995L16.6239 17.094C17.4663 16.775 18.5498 16.3048 19.472 15.4917C20.6865 14.4513 21.2622 13.3558 21.2851 12.0487C21.3172 11.2778 21.4098 10.3987 22.101 9.73135L22.1899 9.64518L22.1037 9.55626C21.4144 8.84126 21.3218 7.9851 21.3218 7.24168C21.3218 6.10685 20.9505 5.06093 20.2209 4.1351C19.593 3.29818 18.7038 2.68493 17.5039 2.26143C16.161 1.77193 14.7282 1.55835 12.9911 1.58585L12.8188 1.58951C11.1596 1.62435 9.44362 1.66101 7.74687 2.0341C7.60754 2.0616 7.44162 2.04235 7.24179 1.97635C6.56345 1.74626 5.76045 1.51985 4.94095 1.58585C4.36895 1.62801 3.88954 1.80218 3.47612 2.11843L3.34229 2.22018L3.47887 2.31735C4.68337 3.1726 5.19762 4.17176 5.19762 5.65768V9.50676L5.20037 10.2428C5.20495 11.0862 5.20862 11.9579 5.16095 12.7921C5.12887 13.4264 5.01979 14.0892 4.44412 14.6392L4.35887 14.7208L4.43587 14.8097C4.96295 15.4193 5.19762 16.1654 5.19762 17.2288V24.1468C5.19762 25.1048 4.89329 26.0077 4.24612 26.9784C4.13154 27.1242 4.02704 27.28 3.92529 27.4313C3.82629 27.5788 3.72362 27.731 3.61545 27.8694L3.49537 28.0225L3.68512 28.0665C3.74379 28.0803 3.82812 28.1133 3.9262 28.1518C4.06645 28.2077 4.24154 28.2764 4.41387 28.3131C5.41487 28.5569 6.33795 28.3039 7.11162 28.0234C7.2472 27.972 7.39701 27.9723 7.53237 28.0243C8.43437 28.3488 9.22545 28.4726 10.0211 28.4148C10.6307 28.3727 11.122 28.2168 11.5657 27.9244L11.6812 27.8483L11.5923 27.742C11.5263 27.6634 11.4585 27.5864 11.3888 27.511C11.2707 27.3872 11.1619 27.2549 11.0634 27.115C10.2182 26.0205 9.85612 25.0223 9.88912 23.8755C9.90562 22.6288 9.90012 21.3666 9.89462 20.1465C9.89187 19.5296 9.88912 18.9127 9.88912 18.2948C9.90892 18.1854 9.91721 18.0742 9.91387 17.963C10.0138 17.9667 10.1137 17.9685 10.2136 17.9703C10.6435 17.9795 11.0496 17.9887 11.4511 18.0794C13.1085 18.3865 14.3221 19.4361 15.1609 21.2887C15.9547 23.0386 16.1142 24.8884 16.1646 26.3056C16.1894 26.7593 16.1811 27.1993 16.1729 27.665C16.1683 27.9024 16.1646 28.1426 16.1646 28.391V28.5148H16.2884C16.3727 28.5148 16.4598 28.5267 16.5359 28.5368C16.5982 28.545 16.6514 28.5523 16.6963 28.5523H16.7082L16.7201 28.5496C17.0373 28.4873 17.359 28.4148 17.6707 28.3443C17.9805 28.2746 18.3005 28.2022 18.6094 28.1417L18.6625 28.1334C18.8037 28.1105 18.9504 28.0876 19.0631 28.1133C19.9899 28.3901 20.7773 28.5624 21.6078 28.5019C22.2 28.4588 22.6711 28.3021 23.0928 28.0097L23.223 27.9198L23.1001 27.8163ZM9.89278 8.50118C9.89003 7.74218 9.88729 6.9841 9.88729 6.22601C9.88729 5.54951 10.1027 5.21768 10.6518 5.04535C11.4915 4.80426 12.2569 4.68418 12.9765 4.68418C13.631 4.68418 14.2479 4.78318 14.8483 4.9821C15.776 5.28918 16.4552 5.98493 16.7119 6.88968C16.8377 7.3457 16.8506 7.82546 16.7497 8.28762C16.6488 8.74978 16.437 9.18045 16.1325 9.54251H15.919L16.0335 9.66076L15.9455 9.76526H16.1344C16.8118 10.4748 17.03 11.5564 16.7045 12.5923C16.3525 13.7124 15.4285 14.5209 14.2323 14.7547C13.1259 14.9573 12.1276 14.9041 11.265 14.5988C10.9341 14.4727 10.6235 14.2988 10.3429 14.0828C10.0404 13.8664 9.88729 13.53 9.88729 13.0836C9.90379 11.5482 9.89828 9.99901 9.89278 8.50118ZM45.0964 22.264C44.5474 21.7259 44.2916 21.0265 44.2916 20.0631C44.2916 18.9283 43.9754 17.9254 43.352 17.0821C42.5325 15.9528 41.3784 15.2286 39.6093 14.7336C37.8749 14.2533 36.1067 14.2679 34.608 14.3458C33.2632 14.4073 31.8735 14.4705 30.5361 14.795C30.5022 14.8042 30.4362 14.784 30.372 14.7657C30.331 14.7529 30.2894 14.7419 30.2474 14.7327C30.0384 14.6841 29.8275 14.6218 29.624 14.5622C29.3124 14.4705 28.9897 14.3761 28.656 14.3229C27.8686 14.1937 27.1151 14.3578 26.4148 14.8115L26.258 14.9133L26.413 15.0178C27.5927 15.8153 28.1656 16.9593 28.1656 18.5167C28.1656 19.2363 28.1684 19.9549 28.1711 20.6718C28.1803 22.0904 28.1784 23.5092 28.1656 24.9278C28.1656 25.7996 28.074 26.7025 27.4075 27.4047L27.3315 27.4844L27.402 27.5688C27.9108 28.182 28.128 28.8943 28.128 29.9521V37.1296C28.128 37.312 28.128 37.5192 28.0721 37.6988L28.0685 37.7126C27.8778 38.7072 27.5331 39.8209 26.4157 40.5405L26.2104 40.6725L26.4377 40.7605C26.5569 40.8063 26.666 40.8577 26.7723 40.9072C26.951 40.9915 27.1206 41.0713 27.3067 41.1116C28.1372 41.3133 29.0392 41.2317 30.0659 40.8595C30.2239 40.8083 30.3941 40.809 30.5517 40.8613C31.1219 41.0511 31.8424 41.2528 32.6225 41.2528C32.814 41.2528 33.0093 41.2408 33.2064 41.2133C33.5208 41.1693 33.8251 41.0694 34.1478 40.964C34.2917 40.9163 34.4375 40.8687 34.585 40.8265L34.7711 40.7724L34.4521 40.4058C34.2908 40.2206 34.1496 40.0593 34.0176 39.9016C33.1725 38.8071 32.8104 37.8088 32.8434 36.6621C32.8599 35.3751 32.8544 34.0817 32.8489 32.8304C32.8461 32.1915 32.8434 31.5508 32.8434 30.9063V30.7056C33.1431 30.7047 33.4374 30.7028 33.7289 30.7001C34.3907 30.6946 35.0159 30.6891 35.6621 30.7056C37.984 30.7661 40.151 30.0548 42.1008 28.5899C43.2274 27.7512 43.9341 26.7071 44.2027 25.4824L44.2302 25.3532C44.265 25.1964 44.3035 25.0186 44.3035 24.8518C44.3035 24.0038 44.3998 23.1238 45.0955 22.44L45.1854 22.352L45.0964 22.264ZM39.3288 22.0183L39.0978 22.4134L39.0538 22.4895L39.1115 22.5564C39.8825 23.4447 40.0255 24.5208 39.525 25.6685L39.524 25.6694C39.0675 26.7493 38.1839 27.3946 36.8987 27.5871C35.8839 27.7246 35.0498 27.6549 34.266 27.3689C33.9562 27.2736 33.6583 27.0939 33.3879 26.9179C33.0157 26.642 32.836 26.2643 32.869 25.8188C32.8938 24.3228 32.8855 22.8158 32.8773 21.3593C32.8736 20.6213 32.869 19.8834 32.869 19.1464C32.869 18.3517 33.1174 18.0043 33.8169 17.8182C34.5218 17.6238 35.249 17.5221 35.9802 17.5157C36.5663 17.5125 37.1498 17.5937 37.7127 17.7568C38.0964 17.8621 38.4544 18.0452 38.7644 18.2947C39.0744 18.5441 39.3299 18.8546 39.5149 19.2069C39.7697 19.7001 39.9952 20.5003 39.624 21.5087C39.5332 21.6709 39.4324 21.8423 39.3288 22.0183ZM57.1149 53.2418C57.0987 53.239 57.0828 53.235 57.0672 53.2299C57.0547 53.2255 57.0418 53.2221 57.0287 53.2198C55.651 52.8147 54.8626 51.9136 54.6866 50.5395C54.595 49.8603 54.5858 49.1654 54.5766 48.4944C54.574 48.2649 54.5701 48.0355 54.5647 47.806C54.528 46.3476 54.528 44.9533 54.528 43.4775C54.528 42.0961 55.0744 41.1941 56.1973 40.7202L56.2734 40.6881V40.4672L56.2037 40.4333C54.9974 39.8429 54.528 39.1105 54.528 37.8217C54.528 35.6904 54.561 33.418 54.627 31.0695C54.6655 30.0593 55.0441 29.2261 55.7179 28.6623C56.0369 28.4148 56.4118 28.2297 56.7748 28.0509C56.9059 27.9858 57.036 27.9226 57.1598 27.8575L57.3486 27.7576L57.168 27.643C56.003 26.9051 53.6306 27.0288 52.383 27.8905C52.3239 27.9227 52.2568 27.9373 52.1896 27.9327L52.1713 27.918C51.1437 27.2213 49.9319 27.0087 48.4643 27.2681C48.2311 27.318 48.001 27.381 47.775 27.4569C47.6255 27.5037 47.4715 27.5523 47.3184 27.5917L47.0508 27.6604L47.2809 27.8144C47.4633 27.9363 47.5935 28.0042 47.7786 28.0757C49.1344 28.5551 49.9117 29.7898 49.9117 31.4609V37.785C49.9117 39.1032 49.3507 40.0015 48.2434 40.4553L48.2214 40.4672C48.1939 40.4852 48.1712 40.5097 48.1552 40.5384C48.1393 40.5671 48.1305 40.5993 48.1297 40.6322V40.7174L48.2094 40.7477C49.347 41.184 49.8998 42.097 49.8998 43.5408V46.387C49.8998 46.6712 49.9016 46.9553 49.9034 47.2377C49.9099 48.2469 49.9163 49.291 49.8384 50.3268C49.7439 51.7788 48.8484 52.8825 47.4422 53.2813C47.378 53.2858 47.3294 53.3133 47.2735 53.3445C47.2441 53.3616 47.2141 53.3778 47.1837 53.3931L46.928 53.5214L47.1965 53.6204C48.0234 53.9248 48.797 54.0769 49.5267 54.0769C50.4844 54.0804 51.4214 53.7982 52.218 53.2666C53.7498 54.1512 55.3668 54.2548 57.1579 53.5828L57.2386 53.5526V53.3656L57.2304 53.251L57.1149 53.2418Z" fill="#EE3124"/>
<path d="M24.2925 27.5259C23.3767 26.9567 22.5224 26.3251 21.8294 25.4717C21.547 25.1411 21.3625 24.7382 21.2968 24.3084C20.8513 21.7463 20.096 19.2842 18.2526 17.3289C18.8594 16.9201 19.4901 16.5369 20.0227 16.0291C21.3472 14.9273 22.1145 13.5293 22.1145 11.7345C22.1145 11.1653 22.3996 10.6574 22.8075 10.3109C23.1292 10.0258 23.4757 9.8031 23.8222 9.58035C23.7232 9.54277 23.6362 9.48135 23.5372 9.41902C22.6214 8.88643 22.1136 8.11918 22.1136 6.98068C22.1136 5.84218 21.7295 4.82743 21.0741 3.91168C19.997 2.42668 18.4753 1.60993 16.7428 1.18918C13.958 0.496182 11.1741 0.718932 8.35166 1.09018C7.84566 1.15252 7.40016 1.21485 6.89232 1.02877C6.50959 0.913134 6.11566 0.838465 5.71716 0.806016C4.13224 0.707016 2.83332 1.31385 1.69482 2.4771C1.85616 2.51468 1.94232 2.53943 2.04132 2.5761C3.44016 2.89785 4.44207 4.12343 4.44207 5.5461C4.47966 7.8231 4.44207 10.1001 4.44207 12.4018C4.44207 13.3552 3.97182 14.0482 3.11749 14.3571C2.99374 14.3818 2.86999 14.4194 2.70866 14.4808C2.80766 14.5432 2.86999 14.5798 2.93141 14.6046C4.00849 15.1124 4.45399 15.9906 4.45399 17.1914C4.41641 19.5308 4.45399 21.8939 4.45399 24.2699C4.45399 25.2233 4.13224 26.0767 3.43924 26.7083C3.05516 27.0923 2.54824 27.3398 2.11466 27.624C2.46116 28.0943 3.00566 28.5398 3.59966 28.8248C4.73816 29.3327 5.91424 29.2337 7.05274 28.8496C7.23882 28.7873 7.46157 28.8248 7.68432 28.8496C8.35257 28.9486 8.98416 29.1347 9.65241 29.1713C10.9522 29.2089 12.0907 28.7011 13.0679 27.8101C12.3052 27.3183 11.6657 26.6578 11.1988 25.8796C10.8523 25.3103 10.691 24.7163 10.691 24.0105V18.7012H10.9137C11.0127 18.7012 11.0751 18.7388 11.1365 18.7388C12.6215 18.9615 13.6362 19.8406 14.3045 21.1771C15.1588 22.8234 15.3816 24.5926 15.443 26.3874C15.4806 27.2665 15.443 28.1575 15.443 29.0733C16.5201 29.296 17.5596 29.2593 18.611 28.8872C18.8585 28.8248 19.0565 28.8248 19.304 28.8872C20.195 29.1347 21.1107 29.2713 22.0265 29.1347C23.066 28.9733 23.9203 28.5031 24.65 27.7111C24.5271 27.6568 24.4078 27.5949 24.2925 27.5259ZM21.6076 28.3793C20.7532 28.4417 19.9246 28.2556 19.1078 27.9953C18.9465 27.9577 18.7613 27.9953 18.6 28.02C17.9684 28.1438 17.3377 28.3051 16.7062 28.4288C16.6072 28.4288 16.4587 28.3913 16.2973 28.3913C16.2973 27.6607 16.3349 27.0053 16.2973 26.2994C16.235 24.5669 16.0122 22.8592 15.2826 21.2376C14.5272 19.5298 13.3521 18.3043 11.483 17.9578C10.9504 17.834 10.3692 17.8588 9.79999 17.834C9.79999 18.0568 9.79999 18.1805 9.77524 18.2795C9.77524 20.1486 9.79999 22.0048 9.77524 23.873C9.73766 25.1728 10.2207 26.2123 10.9761 27.1895C11.1374 27.4123 11.3226 27.5983 11.5087 27.8211C11.0384 28.1428 10.5553 28.2666 10.0237 28.2913C9.16932 28.3537 8.37732 28.1923 7.58532 27.9073C7.42178 27.845 7.24103 27.845 7.07749 27.9073C6.22407 28.2308 5.37066 28.4169 4.45399 28.1942C4.16891 28.1318 3.88474 27.9714 3.72341 27.9467C3.94616 27.6616 4.13224 27.3527 4.35499 27.0557C4.96182 26.1766 5.33307 25.2242 5.33307 24.1471V17.229C5.33307 16.3133 5.17174 15.4589 4.54107 14.7293C5.11032 14.1967 5.27166 13.5284 5.29641 12.7988C5.35874 11.7217 5.33399 10.6208 5.33399 9.50702V5.68268C5.33399 4.1601 4.80141 3.1206 3.56391 2.24243C3.97274 1.92068 4.45491 1.77218 4.96274 1.7346C5.71716 1.67227 6.48441 1.85835 7.21407 2.11777C7.40016 2.1801 7.59816 2.21677 7.78332 2.1801C9.52866 1.79602 11.2612 1.77127 13.0056 1.7346C14.5282 1.70985 16.0132 1.85835 17.4734 2.40285C18.5129 2.78693 19.4662 3.35618 20.1345 4.23435C20.8156 5.11343 21.1868 6.12818 21.1868 7.26668C21.1868 8.15768 21.3482 8.97443 22.0036 9.66743C21.3106 10.3357 21.1868 11.19 21.1492 12.0682C21.1117 13.4918 20.4187 14.5313 19.3792 15.4223C18.5624 16.1528 17.5724 16.6231 16.5577 17.0063C16.4868 17.0464 16.4122 17.0796 16.3349 17.1053C18.6742 18.4913 19.4662 20.8306 20.0969 23.268C20.1959 23.6768 20.2582 24.0848 20.3197 24.5055C20.481 25.545 21.075 26.2756 21.8047 26.9438C22.1887 27.2656 22.5967 27.5754 23.0055 27.9219C22.5847 28.2189 22.1026 28.3427 21.6076 28.3793ZM46.6683 22.4265C45.5546 21.981 44.9606 21.2257 45.022 19.9634C45.0596 19.1714 44.8359 18.4161 44.4894 17.6864C43.6351 15.9539 42.2491 14.9392 40.5047 14.3323C38.8959 13.7631 37.2496 13.577 35.5418 13.6641C33.9945 13.7631 32.4105 13.9116 30.8265 14.0482C30.6037 14.0482 30.381 14.0482 30.1582 13.9858C28.797 13.5403 27.4357 13.5403 26.1359 14.2086C25.6033 14.4937 25.0964 14.8402 24.7371 15.4094C24.8984 15.447 24.9846 15.4718 25.1212 15.5084C26.4457 15.8549 27.3615 16.8944 27.3982 18.1943C27.4357 20.6326 27.4357 23.0948 27.3982 25.5578C27.3982 26.3498 26.9893 26.8824 26.2597 27.1666C26.0983 27.2289 25.9132 27.2903 25.6904 27.3893C26.9527 28.0209 27.4357 29.0357 27.3982 30.3594C27.3606 32.5085 27.3606 34.6581 27.3982 36.8072C27.4357 37.5992 27.2121 38.3298 26.8656 38.9852C26.6428 39.394 26.3577 39.7405 25.9122 39.9385C25.5905 40.0999 25.3054 40.2603 24.9589 40.4464C25.5657 40.9789 26.0727 41.5849 26.828 41.8324C27.9051 42.1789 28.9812 42.0799 30.0207 41.7334C30.2068 41.6958 30.4296 41.671 30.59 41.7334C32.5581 42.3649 34.352 42.1788 35.9736 40.7186C35.7261 40.4711 35.441 40.2484 35.1568 39.988C34.2035 39.097 33.6095 38.0942 33.6342 36.7329C33.6718 35.1242 33.6342 33.4779 33.6342 31.8691V31.5226C34.2411 31.5226 34.8351 31.4979 35.4043 31.5226C37.9664 31.5849 40.2801 30.891 42.3719 29.406C43.7332 28.4527 44.7112 27.1904 44.9954 25.4827C45.0202 25.2599 45.0577 25.0738 45.0577 24.8511C45.0202 23.5513 45.726 22.8583 46.9268 22.487C46.7921 22.4265 46.7673 22.4018 46.6683 22.4265ZM44.1686 24.8648C44.1686 25.0509 44.1062 25.2737 44.0696 25.4717C43.7845 26.7715 43.0301 27.7487 42.0153 28.504C40.1215 29.9276 37.993 30.6573 35.6546 30.5959C34.6765 30.5711 33.7241 30.5959 32.7093 30.5959V30.9176C32.7093 32.8481 32.7341 34.7419 32.7093 36.6724C32.6717 37.9723 33.1548 39.0118 33.9102 39.9889C34.0962 40.2117 34.2942 40.4344 34.5417 40.7195C34.0715 40.8433 33.626 41.0413 33.1805 41.1036C32.2895 41.2274 31.4352 41.0413 30.5817 40.7571C30.3971 40.6947 30.1971 40.6947 30.0125 40.7571C29.1582 41.0788 28.2424 41.2274 27.3267 41.0046C27.0416 40.9423 26.7941 40.7819 26.4723 40.6581C27.5494 39.9651 27.9573 38.9256 28.1801 37.7495C28.2424 37.5634 28.2424 37.3407 28.2424 37.1427V29.9652C28.2424 29.0494 28.0811 28.2327 27.4871 27.5021C28.1801 26.7715 28.2791 25.8558 28.2791 24.94C28.3038 22.8234 28.2791 20.6702 28.2791 18.5298C28.2791 17.0448 27.7712 15.8073 26.4723 14.9282C27.1406 14.4827 27.8712 14.3213 28.6256 14.4579C29.1582 14.5569 29.6651 14.743 30.2096 14.8668C30.3333 14.9043 30.4571 14.9658 30.5561 14.9291C31.8807 14.6073 33.2419 14.545 34.6032 14.4836C36.2862 14.3846 37.9572 14.4213 39.566 14.8677C41.0262 15.2765 42.3132 15.9072 43.2418 17.1694C43.8734 18.0238 44.1576 19.0009 44.1576 20.078C44.1576 20.9323 44.3437 21.7243 44.9872 22.3798C44.2923 23.0581 44.1686 23.9491 44.1686 24.8648ZM55.2694 49.393V43.3788C55.2694 42.7105 55.4922 42.1779 55.9624 41.7077C56.4327 41.2374 57.0395 40.9524 57.6454 40.7544C57.8929 40.692 58.1157 40.6306 58.4622 40.5316C57.6702 40.3703 56.9772 40.1475 56.2842 39.7149C55.6159 39.2446 55.2071 38.6378 55.2071 37.7843V31.4603C55.2447 30.3832 55.6773 29.5298 56.6059 28.9605C57.0514 28.713 57.5217 28.515 58.0047 28.3913C58.5126 28.2675 59.0442 28.2299 59.6511 28.1438C59.1185 27.822 58.673 27.5122 58.1908 27.2647C56.2603 26.2866 54.2922 26.0272 52.3003 26.9796C52.2013 27.0419 52.0528 27.0172 51.9538 26.9796C51.0005 26.6578 50.0233 26.4103 49.0452 26.4103C48.0305 26.4351 47.0524 26.7568 46.1367 27.2647C45.6664 27.5122 45.1833 27.8339 44.7131 28.1438C45.4061 28.2675 46.0129 28.3298 46.5822 28.4903C48.1047 28.8991 49.1195 29.9753 49.0819 31.8443C49.0443 33.7748 49.0819 35.7301 49.0819 37.6854C49.0819 37.8714 49.0819 38.0694 49.0443 38.2179C48.8582 39.1337 48.2276 39.7029 47.4356 40.087C46.9901 40.3098 46.4822 40.4335 45.9753 40.6196C46.0743 40.6572 46.1367 40.6572 46.1981 40.6819C46.8049 40.9047 47.4356 41.0908 47.9682 41.4125C48.7602 41.858 49.1067 42.5758 49.1067 43.5291V49.5681C49.1067 49.8898 49.0691 50.1997 48.9829 50.5214C48.6612 51.7589 47.7454 52.4153 46.6069 52.737C46.0001 52.8984 45.4061 52.9598 44.7754 53.0588C45.0229 53.2201 45.2457 53.3805 45.4684 53.529C47.5227 54.8536 49.7135 55.2991 52.0152 54.222C52.1211 54.1972 52.2312 54.1972 52.337 54.222C53.822 54.9526 55.307 54.9774 56.8662 54.5071C57.8463 54.1957 58.7579 53.7001 59.5521 53.0469C58.8838 52.9231 58.2275 52.8241 57.584 52.638C55.9991 52.1412 55.2694 51.0641 55.2694 49.393ZM57.1128 53.4649C55.4298 54.0964 53.7963 54.0589 52.2123 53.1184C50.665 54.1579 49.0196 54.1578 47.2376 53.5024C47.3613 53.4401 47.3989 53.4034 47.4603 53.4034C48.9206 52.9946 49.8611 51.8561 49.9601 50.3344C50.0591 49.0099 50.0224 47.7109 50.0224 46.3864V43.5401C50.0224 42.2155 49.5769 41.1394 48.2523 40.6315C48.2523 40.5939 48.2899 40.5692 48.2899 40.5692C49.5274 40.0614 50.0352 39.0466 50.0352 37.7843V31.4603C50.0352 29.7278 49.2185 28.4527 47.8197 27.9577C47.6534 27.8947 47.4954 27.8116 47.3494 27.7102C47.7335 27.6112 48.1047 27.4627 48.4879 27.3884C49.7502 27.1657 50.9877 27.2647 52.1014 28.02C52.1637 28.0823 52.3489 28.0576 52.4479 27.9953C53.6854 27.1409 55.9872 27.0419 57.1009 27.7478C56.6307 27.9953 56.0862 28.218 55.6407 28.5645C54.8853 29.1961 54.5388 30.0871 54.5022 31.0643C54.4376 33.3159 54.4046 35.5684 54.4032 37.821C54.4032 39.1823 54.911 39.9376 56.1485 40.5435V40.6059C54.8862 41.1384 54.4032 42.1532 54.4032 43.4769C54.4032 44.9252 54.4032 46.3479 54.4407 47.8081C54.4655 48.7239 54.4407 49.6396 54.5645 50.5554C54.7506 52.0037 55.604 52.9314 57.0028 53.3402C57.0404 53.3402 57.1018 53.3778 57.1266 53.3778V53.4639H57.1128V53.4649Z" fill="black"/>
<path d="M16.2241 9.66712C16.2489 9.66712 16.2489 9.64236 16.2241 9.64236C17.5854 8.03361 16.9795 5.57053 14.8996 4.86561C13.476 4.39536 12.0533 4.51911 10.6297 4.92795C9.99814 5.11403 9.77539 5.52195 9.77539 6.22778C9.77539 8.50478 9.80014 10.7818 9.77539 13.0835C9.77539 13.5538 9.93672 13.9379 10.2832 14.1854C10.5706 14.4126 10.8924 14.5924 11.2366 14.7179C12.2146 15.0644 13.2661 15.0644 14.2689 14.8793C16.9786 14.3449 17.7091 11.2135 16.2241 9.66712ZM15.2094 13.4914C14.4541 14.024 13.6006 14.123 12.7096 14.024C12.1771 13.9617 11.6701 13.8013 11.1623 13.6399C10.8158 13.5409 10.6545 13.2559 10.6545 12.8479C10.6921 10.6699 10.6545 8.49195 10.6545 6.27636C10.6545 5.92986 10.7535 5.74378 11.0633 5.68236C12.2394 5.43486 13.4026 5.33586 14.5778 5.64478C15.7163 5.96653 16.2856 6.96936 16.0381 8.10786C15.9391 8.6157 15.6292 8.99886 15.2213 9.24636C14.9986 9.4077 14.7511 9.49386 14.4907 9.6552C14.6768 9.7542 14.8372 9.84128 15.0233 9.87795C16.4093 10.7066 16.5083 12.5381 15.2094 13.4914ZM39.7376 21.548C40.4306 19.6789 39.2673 18.0454 37.7447 17.6247C36.4449 17.2406 35.0836 17.3396 33.7847 17.687C32.9927 17.9098 32.7452 18.3186 32.7452 19.1354C32.7452 21.3509 32.7828 23.5656 32.7452 25.8059C32.7205 26.3138 32.9313 26.7217 33.3145 27.0068C33.5996 27.1929 33.9213 27.3909 34.2302 27.477C35.1212 27.7988 36.0003 27.8235 36.9161 27.6998C38.1536 27.5137 39.1316 26.9078 39.6386 25.7069C40.1464 24.5437 40.0226 23.4052 39.1931 22.4519C39.3911 22.142 39.5771 21.8322 39.7376 21.548ZM37.8318 26.5099C36.5943 27.0792 35.3321 27.0178 34.0946 26.5099C33.7481 26.3862 33.5867 26.1011 33.5867 25.6932C33.6243 23.5152 33.5867 21.3372 33.5867 19.1216C33.5867 18.7751 33.6857 18.589 33.9956 18.5148C35.1341 18.2297 36.3101 18.1307 37.4734 18.4524C38.6742 18.7989 39.2435 19.9008 38.9336 21.0393C38.8132 21.4348 38.5537 21.7735 38.2031 21.9926C37.9556 22.1539 37.6952 22.2777 37.4477 22.4381C37.5715 22.4757 37.6705 22.5371 37.7695 22.5994C38.5248 22.9835 39.0317 23.5775 39.0317 24.4685C39.0446 25.3714 38.6614 26.1268 37.8318 26.5099ZM60.0216 26.9564H60.4671V27.9583H60.6898V26.9564H61.0986V26.7574H60.0216V26.9564ZM62.1748 26.7574L61.8283 27.7108L61.4818 26.7574H61.1967V27.9583H61.4195V27.2277V27.0664L61.7412 27.9207H61.9273L62.2491 27.0664V27.9583H62.4718V26.7574H62.1748Z" fill="black"/>
</g>
<defs>
<clipPath id="clip0_4891_27378">
<rect width="63.25" height="55" fill="white" transform="translate(0 0.28125)"/>
</clipPath>
</defs>
</svg>
