<svg width="80" height="80" viewBox="0 0 80 80" xmlns="http://www.w3.org/2000/svg"><g fill="none" fill-rule="evenodd"><path d="M-10-10H90V90H-10z"/><g fill-rule="nonzero"><path d="M40.021 79.619C17.821 79.598-.106 61.46.211 39.196.53 17.672 18.032 0 40.043 0 62.095 0 80 17.905 79.831 40.127c-.17 21.841-17.884 39.45-39.81 39.492zm-7.217-68.635c.085.021.106.106.148.17.487.698.953 1.417 1.44 2.116.38.55.74 1.1 1.121 1.65.72-.169 1.418-.317 2.117-.486-.593-2.603-1.186-5.185-1.757-7.767.212-.043.381-.085.571-.148-.169-.762-.338-1.503-.507-2.244-1.143.254-2.244.508-3.366.762.17.762.34 1.503.508 2.243.233-.042.445-.084.678-.148.148.656.296 1.291.444 1.947-.021 0-.021.022-.042.022-.868-1.27-1.715-2.561-2.582-3.852-.953.211-1.884.423-2.836.656.17.762.338 1.502.508 2.243.232-.042.444-.085.656-.127.423 1.841.825 3.683 1.248 5.503-.232.063-.423.106-.656.17.17.761.339 1.48.508 2.243 1.164-.276 2.328-.53 3.492-.784a377.34 377.34 0 00-.508-2.243c-.275.021-.486.127-.74.127-.106-.487-.233-.974-.318-1.46-.063-.19-.17-.381-.127-.593zm28.55 28.804c.022-11.492-9.27-21.079-21.058-21.079-11.682 0-20.952 9.397-21.1 20.804-.148 11.704 9.248 21.312 20.994 21.334 11.895.042 21.186-9.609 21.165-21.059zm-5.904-27.09h-.043c.212-1.545.403-3.068.614-4.613-.868-.466-1.693-.932-2.56-1.397-.382.677-.741 1.354-1.101 2.032.211.105.38.211.592.317-.91 1.65-1.799 3.302-2.709 4.952a15.07 15.07 0 01-.592-.317c-.381.677-.74 1.354-1.1 2.032a418.27 418.27 0 013.132 1.714c.38-.698.74-1.355 1.1-2.032-.233-.127-.444-.254-.656-.36.339-.634.677-1.248 1.016-1.862.021 0 .042.021.042.021-.19 1.587-.402 3.154-.592 4.762.635.339 1.27.699 1.926 1.037 1.27-2.35 2.54-4.677 3.809-7.005.19.106.339.19.53.275.359-.677.74-1.355 1.1-2.032-1.037-.55-2.032-1.1-3.048-1.65-.38.698-.74 1.354-1.1 2.031.19.148.423.212.592.36-.317.593-.635 1.164-.952 1.735zm-34.54-.105c.042.084.085.127.127.19 1.058 1.799 2.116 3.598 3.153 5.397a.53.53 0 00.36.275c.424.106.826.233 1.249.36a.38.38 0 00.339-.043 147.26 147.26 0 013.09-1.798c.105-.064.148-.127.19-.254.127-.466.233-.932.36-1.397.042-.127 0-.233-.064-.339-.635-1.058-1.248-2.137-1.883-3.217a143.08 143.08 0 00-1.418-2.413c.19-.126.38-.232.571-.36-.402-.677-.783-1.333-1.164-1.989a410.29 410.29 0 00-3.132 1.842c.402.677.783 1.333 1.164 1.989.211-.127.38-.212.592-.339l2.858 4.89-1.524.888c-.953-1.63-1.905-3.26-2.857-4.868.19-.148.402-.211.571-.36-.38-.655-.783-1.312-1.164-1.989a410.29 410.29 0 00-3.132 1.841c.402.678.783 1.334 1.164 1.99.148-.064.338-.17.55-.296zm27.598 51.47c-2.095.424-4.148.868-6.243 1.291.169.762.317 1.503.465 2.244.233 0 .445-.085.677-.106l1.143 5.524c-.211.106-.444.063-.656.19.148.741.296 1.482.466 2.244 2.074-.424 4.148-.868 6.243-1.291a163.25 163.25 0 00-.72-3.429c-.761.148-1.502.318-2.243.466.085.402.148.783.233 1.164-.38.084-.72.19-1.1.106-.106-.508-.212-1.037-.318-1.545a120.01 120.01 0 001.757-.381 57.254 57.254 0 00-.466-2.201c-.593.127-1.185.232-1.757.36-.127-.572-.232-1.101-.338-1.651.38-.085.72-.149 1.08-.212.084.402.168.762.253 1.143.762-.148 1.503-.318 2.244-.466a342.786 342.786 0 01-.72-3.45zm5.016-2.328c.487.614.952 1.228 1.418 1.82.211-.105.338-.296.55-.38a2785.75 2785.75 0 003.45 4.465c-.19.148-.36.275-.53.423.466.614.932 1.228 1.419 1.842 1.693-1.312 3.365-2.603 5.037-3.894-.72-.932-1.418-1.842-2.138-2.773-.614.466-1.206.931-1.82 1.397.254.317.487.635.72.931-.297.233-.572.445-.868.677-.339-.444-.699-.889-1.037-1.333.465-.36.952-.74 1.418-1.1-.466-.593-.931-1.186-1.376-1.8-.487.382-.952.741-1.418 1.101-.36-.465-.698-.889-1.037-1.333.296-.233.593-.445.868-.677.254.317.466.613.72.93.613-.465 1.206-.93 1.82-1.396-.72-.931-1.418-1.841-2.138-2.751-1.714 1.27-3.365 2.56-5.058 3.851zm1.587 3.323c-.339-.72-.656-1.439-.973-2.137-.043-.106-.127-.127-.212-.17-.445-.169-.889-.338-1.333-.529a.298.298 0 00-.297.021l-2.476 1.143a.42.42 0 00-.233.233c-.169.487-.36.995-.529 1.482a.413.413 0 000 .317c1.016 2.201 2.032 4.402 3.048 6.624.042.106.127.17.233.212.486.17.973.339 1.46.53a.34.34 0 00.317-.022c.868-.402 1.736-.804 2.604-1.185a.43.43 0 00.232-.275c.106-.381.233-.783.339-1.164a.705.705 0 00-.021-.466c-.593-1.27-1.164-2.54-1.757-3.81-.02-.042-.042-.127-.106-.148l-2.645 1.228c.339.72.656 1.418.995 2.137.211-.084.402-.169.613-.254.17.36.318.699.487 1.059l-.952.444a1031.59 1031.59 0 00-2.37-5.143l.952-.444c.19.423.402.846.592 1.27a93.408 93.408 0 012.032-.953zm-25.46-.36c0-.02-.021-.042-.021-.063l-.445-1.587c-.042-.127-.106-.17-.211-.233-.762-.402-1.503-.783-2.265-1.207-.106-.063-.212-.063-.339-.042-.486.17-.994.339-1.481.487a.424.424 0 00-.254.212c-1.122 2.116-2.222 4.211-3.344 6.328-.063.105-.063.211-.021.338.148.508.296 1.016.423 1.503.042.127.106.19.212.254.762.402 1.502.804 2.264 1.185.106.064.19.085.297.042.508-.169.994-.338 1.502-.508.106-.042.19-.084.233-.19 1.122-2.116 2.243-4.254 3.365-6.37.042-.043.085-.085.085-.149zm13.524-51.576c-.022.063.02.106.042.169.275.466.571.931.846 1.418a.348.348 0 00.254.17c.826.19 1.672.38 2.498.57.127.022.211.022.317-.063.424-.296.847-.571 1.27-.846a.48.48 0 00.233-.339c.085-.423.19-.847.296-1.29.423-1.885.868-3.747 1.291-5.63.021-.128.043-.233-.042-.36-.275-.445-.55-.89-.804-1.355-.064-.106-.127-.148-.254-.19-.847-.19-1.693-.381-2.54-.593a.321.321 0 00-.275.064c-.445.296-.868.571-1.312.867a.39.39 0 00-.19.297 593.053 593.053 0 01-1.355 5.904c-.106.402-.19.805-.275 1.207zM21.1 65.947c-.593-.508-1.164-.995-1.757-1.481-.296.36-.593.698-.889 1.037-.275-.233-.53-.466-.804-.678 1.227-1.46 2.434-2.878 3.64-4.317.275.233.55.466.804.677-.254.296-.487.572-.72.868.593.508 1.165.995 1.757 1.481.487-.571.953-1.121 1.418-1.672.064-.063.064-.127.064-.211-.021-.445-.064-.868-.085-1.312a.234.234 0 00-.106-.212c-.762-.635-1.524-1.291-2.285-1.926-.085-.063-.149-.106-.276-.106-.508.064-1.015.106-1.523.127-.106 0-.19.064-.254.148-1.588 1.884-3.196 3.768-4.783 5.651-.064.085-.106.148-.085.254l.127 1.524c0 .106.042.19.127.254.762.635 1.524 1.29 2.286 1.926.063.063.127.084.232.063.445-.063.89-.105 1.334-.148a.192.192 0 00.17-.084c.55-.614 1.057-1.228 1.608-1.863zM42.138 72c-.784-.021-1.524-.063-2.286-.085-.021.445-.042.868-.064 1.291h-.994c.084-1.904.148-3.767.232-5.65.233-.043.424.042.635-.022.022-.762.064-1.523.085-2.285a197.27 197.27 0 01-3.534-.148c-.022.783-.064 1.545-.085 2.306.233.022.402 0 .614.043-.085 1.883-.148 3.767-.233 5.63h-.614c-.042.761-.063 1.523-.106 2.306l6.201.254c.064-1.227.106-2.412.149-3.64zm-14.54 1.481c2.01.53 4 1.08 5.99 1.609.317-1.185.634-2.35.952-3.513-.741-.19-1.46-.402-2.201-.593-.127.423-.233.847-.36 1.291-.339-.085-.656-.17-.974-.275.487-1.841.974-3.64 1.46-5.44.233.022.403.128.614.128.19-.74.402-1.482.593-2.222-1.164-.318-2.286-.614-3.407-.91-.212.761-.403 1.481-.593 2.222.19.106.402.084.571.211-.486 1.82-.973 3.62-1.46 5.418-.233 0-.402-.127-.614-.105-.169.72-.36 1.439-.571 2.18zM65.143 41.25v1.99c0 .084.063.126.106.168l.952.953c.085.084.148.106.275.106h2.392a.35.35 0 00.254-.106c.296-.318.613-.635.91-.953a.4.4 0 00.127-.317v-6.455a.384.384 0 00-.127-.296 37.801 37.801 0 01-.91-.953.43.43 0 00-.318-.127h-2.328c-.127 0-.211.043-.317.127-.297.297-.572.593-.868.89a.51.51 0 00-.148.38v2.646c0 .211.042.38.233.529.254.19.465.423.677.635.127.127.254.169.423.169h1.63v1.757h-.91V41.27c-.699-.021-1.376-.021-2.053-.021zm10.794-5.947h-4.932c0 1.29.021 2.56 0 3.83 0 .339.064.614.339.847.317.275.593.571.889.868.084-.106.148-.19.233-.254.063-.064.105-.19.232-.19h1.27v1.989h-.952v-1.143h-1.968v1.947c0 .106.042.148.105.211.276.297.593.53.805.868a.533.533 0 00.444.212h2.328c.127 0 .212-.043.275-.127.275-.318.55-.614.826-.931.127-.127.148-.254.148-.403 0-1.015-.021-2.031 0-3.047 0-.36-.064-.635-.36-.868-.212-.148-.38-.339-.55-.529a.542.542 0 00-.402-.17c-.55.022-1.1 0-1.651 0v-1.079h2.942c-.021-.698-.021-1.354-.021-2.031zM12.635 42.18c0-.042 0-.085.021-.127.508-1.587.995-3.196 1.545-4.783.254-.72.212-1.46.212-2.201h-5.63v3.217h1.968v-1.143h1.397c-.55 1.693-1.1 3.344-1.65 5.016-.212.042-.424-.021-.614.042v2.032h3.259V42.18h-.508zM39.407 6.54c-.02 1.904-.063 3.788-.084 5.65-.233.022-.445-.042-.677.022v2.307h3.619v-2.286h-.657c.022-1.905.064-3.767.085-5.672h.677V4.233h-3.619v2.286c.233.02.424.02.656.02zM8.254 44.254v-2.053h-.593V35.09H6.413c-.085 0-.106.063-.148.106a2.651 2.651 0 01-1.08 1.08c-.063.041-.148.063-.148.168v1.291c.212.043.402-.02.593.043v4.402c-.212.042-.402-.021-.572.042v2.032h3.196z" fill="#040807"/><path d="M61.355 39.788c.02 11.471-9.27 21.122-21.165 21.08-11.746-.043-21.142-9.651-20.994-21.376.148-11.429 9.397-20.804 21.1-20.804 11.789 0 21.08 9.587 21.059 21.1zM41.397 25.545v9.333h1.439c0 .043.021.064.021.085v9.672c0 .106-.042.17-.106.233-.232.211-.444.444-.656.677-.127.127-.233.19-.423.17h-2.328c-.318 0-.656.084-.931-.043-.254-.127-.424-.444-.656-.656a.543.543 0 01-.17-.423V35.09v-.254h1.291v-9.312H26.73v9.333h1.333v.212c-.02 2.857.022 5.714-.02 8.55-.022 1.65 0 3.323 0 4.974 0 .148.063.254.169.338 1.439 1.44 2.9 2.879 4.338 4.318l1.736 1.735a.51.51 0 00.38.148c1.927 0 3.853-.02 5.757 0 1.778.021 3.535 0 5.312 0a.5.5 0 00.403-.169c.804-.847 1.63-1.672 2.455-2.497 1.185-1.207 2.349-2.413 3.534-3.598a.622.622 0 00.19-.487c0-4.423 0-8.847.022-13.291 0-.085-.043-.19.042-.275h1.397V25.48c-4.127.064-8.254.064-12.381.064zM55.45 12.698c.317-.571.635-1.142.952-1.735-.17-.17-.402-.212-.592-.36.36-.656.72-1.333 1.1-2.032 1.016.55 2.01 1.101 3.048 1.651-.381.677-.741 1.355-1.1 2.032-.17-.085-.34-.17-.53-.275-1.27 2.328-2.54 4.656-3.81 7.005-.634-.36-1.27-.698-1.925-1.037.19-1.587.402-3.175.592-4.762-.021 0-.042-.021-.042-.021-.339.614-.677 1.228-1.016 1.862.212.127.423.233.656.36-.36.677-.72 1.334-1.1 2.032-1.059-.571-2.075-1.143-3.133-1.714.36-.678.741-1.334 1.1-2.032.191.106.382.212.593.317.91-1.65 1.8-3.301 2.71-4.952a15.07 15.07 0 00-.593-.317c.36-.678.74-1.355 1.1-2.032.868.465 1.693.931 2.561 1.397-.211 1.545-.402 3.09-.614 4.613h.043zM32.804 10.984c-.042.212.064.402.106.593l.318 1.46c.253 0 .465-.106.74-.127.17.74.339 1.482.508 2.243-1.164.254-2.307.53-3.492.784-.17-.762-.338-1.503-.508-2.244.212-.063.423-.106.656-.17-.423-1.84-.825-3.66-1.248-5.502-.212.042-.424.085-.656.127-.17-.74-.34-1.481-.508-2.243.952-.212 1.883-.424 2.836-.656.867 1.29 1.714 2.56 2.582 3.852.02 0 .02-.022.042-.022-.148-.635-.296-1.29-.445-1.947a7.752 7.752 0 00-.677.148c-.17-.74-.338-1.481-.508-2.243l3.365-.762c.17.74.339 1.482.508 2.244-.19.042-.38.084-.571.148.592 2.582 1.164 5.164 1.756 7.767-.698.17-1.396.317-2.116.487-.38-.55-.762-1.1-1.122-1.651-.486-.699-.952-1.418-1.439-2.117-.02-.063-.042-.148-.127-.169 0-.021 0-.042-.042-.063 0 .02-.042.084.042.063zM20.91 12.593c-.19.105-.38.211-.571.338-.381-.656-.762-1.312-1.164-1.99a410.288 410.288 0 013.132-1.84c.38.656.783 1.312 1.164 1.989-.17.148-.381.212-.572.36.953 1.608 1.905 3.238 2.858 4.867.508-.296.994-.592 1.523-.888l-2.857-4.89c-.19.107-.38.212-.592.34-.381-.657-.783-1.313-1.164-1.99 1.058-.614 2.074-1.228 3.132-1.841.38.656.783 1.333 1.164 1.989-.19.127-.381.233-.571.36.465.804.952 1.608 1.418 2.413.634 1.079 1.248 2.137 1.883 3.216.064.106.106.212.064.34-.127.465-.254.93-.36 1.396a.378.378 0 01-.19.254c-1.038.592-2.054 1.206-3.09 1.799a.38.38 0 01-.34.042 21.49 21.49 0 00-1.248-.36.53.53 0 01-.36-.275c-1.058-1.799-2.095-3.598-3.153-5.397-.042-.084-.064-.148-.106-.232zM48.508 64.063c.233 1.143.466 2.265.698 3.408-.74.148-1.481.317-2.243.466-.085-.381-.17-.741-.254-1.143-.36.063-.72.148-1.08.211.106.55.212 1.08.34 1.651.592-.127 1.163-.233 1.756-.36.148.741.296 1.46.465 2.201-.571.127-1.164.254-1.756.381.106.53.212 1.037.317 1.545.381.064.72-.042 1.1-.106-.084-.38-.147-.761-.232-1.164.74-.148 1.482-.296 2.243-.465.233 1.143.466 2.264.72 3.428-2.095.424-4.148.868-6.243 1.291-.149-.761-.318-1.502-.466-2.243.212-.106.444-.085.656-.19-.38-1.842-.762-3.662-1.143-5.524-.233.02-.423.106-.677.106-.148-.741-.296-1.482-.466-2.244 2.117-.402 4.17-.825 6.265-1.249zm.487 9.694c.02 0 .02-.022.02-.043 0 0 0-.02-.02-.02l-.021.02c0 .021 0 .043.02.043zM53.524 61.735c1.693-1.312 3.365-2.603 5.037-3.894.72.931 1.418 1.842 2.137 2.752-.613.465-1.206.93-1.82 1.396a27.568 27.568 0 00-.72-.93l-.867.676c.339.445.677.89 1.037 1.334.466-.36.931-.72 1.418-1.1.466.592.91 1.184 1.376 1.798-.487.381-.953.74-1.418 1.1.36.445.698.89 1.037 1.334.296-.233.571-.444.867-.677a27.568 27.568 0 00-.72-.931c.615-.466 1.207-.932 1.821-1.397.72.931 1.418 1.841 2.138 2.772-1.672 1.291-3.344 2.582-5.037 3.894-.466-.613-.953-1.227-1.418-1.84.169-.149.338-.276.529-.424a2785.75 2785.75 0 00-3.45-4.466c-.212.085-.339.275-.55.381-.466-.55-.91-1.143-1.397-1.778zM55.111 65.058c-.698.318-1.376.635-2.074.953-.19-.424-.402-.847-.593-1.27l-.952.444c.804 1.714 1.587 3.429 2.37 5.143l.953-.444c-.17-.36-.318-.699-.487-1.059-.19.085-.38.17-.614.254-.338-.72-.656-1.418-.994-2.137.888-.423 1.777-.826 2.645-1.228.085.021.085.085.106.148.592 1.27 1.164 2.54 1.757 3.81.084.17.084.296.02.466-.126.38-.232.783-.338 1.164a.43.43 0 01-.233.275c-.867.402-1.735.783-2.603 1.185-.106.042-.19.063-.317.021-.487-.19-.974-.36-1.46-.529a.385.385 0 01-.234-.212 2003.607 2003.607 0 01-3.047-6.624c-.042-.106-.064-.19 0-.317.19-.487.36-.974.529-1.482a.324.324 0 01.233-.233l2.476-1.143c.106-.042.17-.063.296-.02.445.19.89.338 1.334.528.084.043.169.064.211.17.36.698.677 1.418 1.016 2.137zM29.65 64.698c.022.085-.02.127-.063.17-1.121 2.116-2.243 4.254-3.365 6.37-.063.106-.127.17-.233.19-.508.17-1.015.34-1.502.509-.127.042-.212.02-.297-.043-.761-.402-1.502-.804-2.264-1.185-.106-.063-.19-.127-.212-.254a31.117 31.117 0 00-.423-1.503c-.042-.127-.042-.232.021-.338 1.122-2.117 2.244-4.212 3.344-6.328.064-.106.127-.19.254-.212.508-.148.995-.317 1.482-.487.127-.042.211-.02.338.043.74.402 1.503.804 2.265 1.206.106.063.169.106.211.233l.445 1.587c-.021 0-.021.021 0 .042zm-5.12 4.783c.888-1.671 1.756-3.322 2.645-4.994-.297-.148-.55-.297-.826-.445-.889 1.672-1.756 3.323-2.645 4.995.275.148.529.296.825.444zM43.175 13.122c.084-.402.169-.783.275-1.185.444-1.969.91-3.937 1.354-5.905a.412.412 0 01.19-.297c.445-.275.89-.571 1.313-.867.085-.064.17-.085.275-.064.847.19 1.693.402 2.54.593.127.021.19.084.254.19.254.445.529.91.804 1.355.085.127.063.233.042.36-.423 1.883-.868 3.746-1.29 5.63-.107.422-.191.846-.297 1.29a.48.48 0 01-.233.339c-.423.275-.846.55-1.27.846-.106.064-.19.085-.317.064-.826-.19-1.651-.381-2.498-.572a.348.348 0 01-.254-.169c-.275-.465-.57-.952-.846-1.418-.021-.084-.064-.127-.042-.19zm3.703-5.863c-.423 1.842-.846 3.662-1.248 5.503.317.085.613.17.93.212.424-1.842.847-3.662 1.25-5.503a14.733 14.733 0 01-.932-.212zM21.1 65.947c-.529.635-1.058 1.249-1.587 1.863a.192.192 0 01-.17.084c-.444.043-.888.106-1.332.148-.085.021-.17-.02-.233-.063a183.994 183.994 0 00-2.286-1.926.302.302 0 01-.127-.254l-.127-1.524a.37.37 0 01.085-.254c1.587-1.883 3.196-3.767 4.783-5.65a.347.347 0 01.254-.149l1.524-.127c.105-.02.19.043.275.106.762.635 1.524 1.291 2.285 1.926a.234.234 0 01.106.212c.021.444.043.867.085 1.312 0 .084 0 .148-.064.211-.465.55-.93 1.101-1.418 1.672-.592-.486-1.164-.973-1.756-1.481.233-.296.465-.572.72-.868-.276-.233-.53-.444-.805-.677-1.206 1.44-2.434 2.878-3.64 4.317.275.233.53.445.804.678.296-.339.593-.678.89-1.037.55.486 1.142.973 1.735 1.481zM42.138 72c-.043 1.228-.106 2.413-.149 3.64l-6.2-.254c.042-.783.063-1.524.105-2.307h.614c.085-1.862.148-3.746.233-5.63-.19-.063-.381-.02-.614-.042.021-.761.063-1.523.085-2.306 1.185.042 2.349.084 3.534.148-.021.762-.063 1.523-.085 2.285-.19.043-.402-.02-.635.022-.084 1.862-.148 3.746-.232 5.65h.994c.022-.402.043-.825.064-1.29.762.02 1.524.063 2.286.084zm-.847 2.92c.042 0 .042-.02.042-.042 0-.02 0-.02-.02-.042-.022.021-.043.021-.064.042 0 0 0 .021.042.043zM27.598 73.481c.19-.74.402-1.481.592-2.2.212-.022.381.105.614.105.487-1.799.974-3.598 1.46-5.418-.169-.106-.38-.084-.57-.211.19-.72.38-1.46.592-2.223 1.143.297 2.264.614 3.407.91-.19.741-.402 1.46-.592 2.223-.212 0-.381-.106-.614-.127-.487 1.799-.974 3.619-1.46 5.439.317.084.634.17.973.275.127-.423.233-.847.36-1.291.74.19 1.46.402 2.2.593a797.567 797.567 0 00-.952 3.513c-2.01-.508-4-1.037-6.01-1.588zM65.143 41.249h2.053v1.121h.91v-1.756h-1.63a.543.543 0 01-.423-.17 6.341 6.341 0 00-.677-.634c-.19-.149-.233-.318-.233-.53v-2.645a.51.51 0 01.148-.381c.296-.296.593-.593.868-.889a.4.4 0 01.317-.127h2.328c.127 0 .212.042.318.127.296.318.613.635.91.952.084.085.127.17.127.297v6.455a.43.43 0 01-.127.317c-.318.318-.614.635-.91.953-.064.084-.148.105-.254.105h-2.392a.35.35 0 01-.275-.105l-.952-.953c-.043-.042-.106-.084-.106-.17V41.25zm2.942-2.625v-1.27h-.89v1.27h.89zM75.937 35.302v2.052h-2.942v1.08h1.65c.17 0 .297.042.403.17.169.19.338.38.55.528.317.212.38.508.36.868-.021 1.016 0 2.032 0 3.048 0 .169-.043.275-.148.402-.297.296-.572.613-.826.931a.373.373 0 01-.275.127h-2.328c-.19 0-.36-.064-.444-.212-.233-.338-.55-.571-.805-.867-.063-.064-.106-.127-.106-.212V41.27h1.969v1.143h.952v-1.99h-1.27c-.106 0-.148.127-.233.19-.084.085-.148.17-.232.255-.297-.297-.572-.593-.89-.868-.253-.233-.338-.487-.338-.847.021-1.27 0-2.54 0-3.83 1.672-.021 3.302-.021 4.953-.021zM12.635 42.18h.55v2.053h-3.26V42.2c.191-.063.382 0 .615-.042.55-1.651 1.079-3.323 1.65-5.016h-1.396v1.143H8.825v-3.217h5.63c0 .74.042 1.46-.212 2.2-.55 1.588-1.037 3.197-1.545 4.784-.063.042-.063.085-.063.127zM39.407 6.54h-.656V4.254h3.62v2.328h-.678c-.021 1.905-.063 3.767-.085 5.672h.657v2.286h-3.62v-2.307c.233-.064.445 0 .678-.021.042-1.905.063-3.768.084-5.672zM8.254 44.254H5.079v-2.032c.17-.063.381 0 .572-.042v-4.402c-.19-.064-.381 0-.593-.043v-1.29c0-.106.085-.128.148-.17a2.651 2.651 0 001.08-1.08c.02-.063.063-.105.148-.105h1.249V42.2h.592c-.021.677-.021 1.355-.021 2.053z" fill="#FEFEFE"/><path d="M41.397 25.545h12.38v9.333h-1.396c-.085.106-.042.19-.042.275 0 4.424-.022 8.847-.022 13.291a.67.67 0 01-.19.487c-1.185 1.207-2.35 2.413-3.534 3.598-.826.825-1.63 1.672-2.455 2.497-.106.127-.233.17-.403.17-1.777 0-3.534.02-5.312 0-1.926-.021-3.852 0-5.756 0a.51.51 0 01-.381-.148c-.572-.593-1.164-1.164-1.736-1.736-1.439-1.439-2.9-2.878-4.338-4.317-.106-.106-.17-.19-.17-.339v-4.973c.021-2.858 0-5.715.021-8.55v-.212H26.73v-9.334h12.148V34.9h-1.29v9.757c0 .17.042.296.169.423.211.233.38.55.656.656.254.127.613.043.93.043h2.329c.17 0 .296-.043.423-.17.212-.232.445-.444.656-.677a.303.303 0 00.106-.233v-9.672c0-.02 0-.042-.021-.084h-1.44v-9.397zm-13.609 1.016v7.153h1.397v14.371c0 .211.064.36.212.508.614.592 1.227 1.206 1.862 1.799 1.207 1.185 2.413 2.349 3.598 3.534.106.106.19.127.339.127H45.27c.127 0 .211-.042.317-.127 1.778-1.778 3.535-3.577 5.312-5.355.149-.148.233-.296.233-.529V33.99c0-.105-.02-.19.043-.317h1.418V26.54H42.54v7.153H44v11.302c0 .169-.042.275-.148.402-.423.423-.847.868-1.27 1.312a.464.464 0 01-.36.148H38.18c-.148 0-.254-.042-.339-.148-.402-.444-.804-.868-1.206-1.312a.559.559 0 01-.148-.402v-11.07-.274h1.312V26.54c-3.365.02-6.688.02-10.01.02zM32.804 10.984c-.084.021-.042-.042-.042-.063.042.02.042.042.042.063z" fill="#040807"/><path d="M48.995 73.757l-.021-.022.02-.02.022.02c0 .022 0 .022-.021.022z" fill="#7D122B"/><path d="M24.53 69.481c-.297-.148-.551-.296-.826-.444.889-1.672 1.756-3.323 2.645-4.995l.826.445c-.89 1.672-1.778 3.323-2.646 4.994zM46.878 7.26c.318.063.614.147.91.21-.423 1.842-.825 3.662-1.248 5.504-.318-.043-.614-.127-.932-.212.424-1.82.847-3.661 1.27-5.503z" fill="#040807"/><path d="M41.291 74.92c-.021 0-.042-.02-.021-.063.021-.021.042-.021.063-.042 0 .021.021.021.021.042-.02.042-.042.064-.063.064z" fill="#7D122B"/><path d="M68.085 38.624h-.89v-1.27h.89v1.27z" fill="#040807"/><path d="M27.788 26.56h9.99v7.112h-1.312V45.016c0 .17.042.275.148.402.402.423.804.868 1.206 1.312.106.106.19.148.339.148H42.2a.464.464 0 00.36-.148c.423-.444.825-.889 1.27-1.312.127-.127.148-.233.148-.402V35.83v-2.117h-1.46v-7.153H52.57v7.132h-1.418c-.063.127-.042.212-.042.318v14.052c0 .233-.063.381-.233.53-1.777 1.777-3.555 3.555-5.312 5.354a.43.43 0 01-.317.127H35.175a.48.48 0 01-.339-.127c-1.206-1.185-2.413-2.35-3.598-3.534a74.688 74.688 0 00-1.862-1.8.656.656 0 01-.212-.507V34.032v-.297h-1.397c.021-2.412.021-4.804.021-7.174zm2.117 6.414v14.751a.5.5 0 00.17.402l4.973 4.974a.5.5 0 00.402.169c1.608 0 3.217-.021 4.825.021 1.566.021 3.111 0 4.677 0a.519.519 0 00.339-.127c1.63-1.65 3.28-3.302 4.931-4.952.19-.19.254-.36.254-.614V33.27c0-.106-.021-.212.043-.318h1.375v-5.65h-8.571v5.672h1.46V45.46a.384.384 0 01-.127.297 68.87 68.87 0 00-1.693 1.82.464.464 0 01-.36.148h-4.72a.464.464 0 01-.36-.148c-.528-.572-1.057-1.143-1.608-1.693-.127-.127-.169-.254-.169-.445V33.27c0-.084-.021-.19.042-.295h1.291v-5.651h-8.508v5.65c.424-.02.868-.063 1.334 0z" fill="#FEFEFE"/><path d="M29.905 32.974c-.466-.064-.91-.022-1.376-.043v-5.65h8.508v5.65h-1.291c-.063.106-.042.212-.042.297v12.169c0 .19.042.317.169.444.55.55 1.08 1.122 1.608 1.693a.464.464 0 00.36.149h4.72a.464.464 0 00.36-.149c.55-.613 1.121-1.206 1.693-1.82a.384.384 0 00.127-.296V33.079v-.148h-1.46V27.26h8.57v5.651h-1.375c-.063.127-.042.233-.042.318v14.328c0 .254-.064.444-.254.613-1.65 1.651-3.28 3.302-4.931 4.953-.106.106-.19.127-.339.127-1.566 0-3.111.02-4.677 0-1.609-.021-3.217 0-4.826-.021a.5.5 0 01-.402-.17 550.973 550.973 0 00-4.973-4.973.5.5 0 01-.17-.402v-3.789-10.709c.043-.042.043-.127.043-.211z" fill="#7D122B"/><path d="M65.799 74.222v2.286h-.931v-2.286h-.953v-.74h2.857v.74H65.8zm3.704 2.286V74.18l-.593 2.328h-.698l-.593-2.328v2.328h-.762V73.46h1.228l.486 1.842.466-1.842h1.228v3.048h-.762z" fill="#000000"/></g></g></svg>